<ttFont>
    <TTGlyph name="A" xMin="49" yMin="1" xMax="1387" yMax="1437">
      <contour>
        <pt x="1380" y="157" on="1"/>
        <pt x="1387" y="137" on="0"/>
        <pt x="1387" y="117" on="1"/>
        <pt x="1387" y="90" on="0"/>
        <pt x="1364" y="47" on="0"/>
        <pt x="1326" y="17" on="0"/>
        <pt x="1278" y="1" on="0"/>
        <pt x="1253" y="1" on="1"/>
        <pt x="1216" y="1" on="0"/>
        <pt x="1151" y="42" on="0"/>
        <pt x="1140" y="86" on="1"/>
        <pt x="1036" y="353" on="1"/>
        <pt x="395" y="353" on="1"/>
        <pt x="292" y="86" on="1"/>
        <pt x="280" y="41" on="0"/>
        <pt x="217" y="1" on="0"/>
        <pt x="181" y="1" on="1"/>
        <pt x="157" y="1" on="0"/>
        <pt x="109" y="17" on="0"/>
        <pt x="72" y="47" on="0"/>
        <pt x="49" y="89" on="0"/>
        <pt x="49" y="115" on="1"/>
        <pt x="49" y="125" on="0"/>
        <pt x="52" y="146" on="0"/>
        <pt x="57" y="157" on="1"/>
        <pt x="477" y="1207" on="1"/>
        <pt x="502" y="1277" on="0"/>
        <pt x="552" y="1366" on="0"/>
        <pt x="609" y="1417" on="0"/>
        <pt x="676" y="1437" on="0"/>
        <pt x="717" y="1437" on="1"/>
        <pt x="759" y="1437" on="0"/>
        <pt x="827" y="1416" on="0"/>
        <pt x="884" y="1364" on="0"/>
        <pt x="934" y="1275" on="0"/>
        <pt x="958" y="1207" on="1"/>
      </contour>
      <contour>
        <pt x="714" y="1232" on="1"/>
        <pt x="450" y="521" on="1"/>
        <pt x="981" y="521" on="1"/>
        <pt x="718" y="1232" on="1"/>
      </contour>
    </TTGlyph>
    <TTGlyph name="AE" xMin="56" yMin="0" xMax="1937" yMax="1438">
      <contour>
        <pt x="1262" y="0" on="1"/>
        <pt x="1239" y="0" on="0"/>
        <pt x="1196" y="9" on="0"/>
        <pt x="1161" y="29" on="0"/>
        <pt x="1137" y="62" on="0"/>
        <pt x="1134" y="86" on="1"/>
        <pt x="1089" y="353" on="1"/>
        <pt x="459" y="353" on="1"/>
        <pt x="293" y="86" on="1"/>
        <pt x="272" y="41" on="0"/>
        <pt x="202" y="0" on="0"/>
        <pt x="165" y="0" on="1"/>
        <pt x="144" y="0" on="0"/>
        <pt x="104" y="13" on="0"/>
        <pt x="74" y="38" on="0"/>
        <pt x="56" y="73" on="0"/>
        <pt x="56" y="95" on="1"/>
        <pt x="56" y="124" on="0"/>
        <pt x="73" y="157" on="1"/>
        <pt x="718" y="1231" on="1"/>
        <pt x="751" y="1297" on="0"/>
        <pt x="815" y="1378" on="0"/>
        <pt x="880" y="1422" on="0"/>
        <pt x="949" y="1437" on="0"/>
        <pt x="989" y="1437" on="1"/>
        <pt x="1815" y="1438" on="1"/>
        <pt x="1841" y="1438" on="0"/>
        <pt x="1881" y="1419" on="0"/>
        <pt x="1908" y="1389" on="0"/>
        <pt x="1922" y="1350" on="0"/>
        <pt x="1922" y="1331" on="1"/>
        <pt x="1922" y="1314" on="0"/>
        <pt x="1911" y="1281" on="0"/>
        <pt x="1888" y="1255" on="0"/>
        <pt x="1853" y="1240" on="0"/>
        <pt x="1829" y="1240" on="1"/>
        <pt x="1214" y="1240" on="1"/>
        <pt x="1277" y="835" on="1"/>
        <pt x="1781" y="835" on="1"/>
        <pt x="1807" y="835" on="0"/>
        <pt x="1847" y="816" on="0"/>
        <pt x="1874" y="786" on="0"/>
        <pt x="1887" y="748" on="0"/>
        <pt x="1887" y="729" on="1"/>
        <pt x="1887" y="711" on="0"/>
        <pt x="1876" y="678" on="0"/>
        <pt x="1853" y="653" on="0"/>
        <pt x="1818" y="637" on="0"/>
        <pt x="1794" y="637" on="1"/>
        <pt x="1303" y="637" on="1"/>
        <pt x="1373" y="198" on="1"/>
        <pt x="1830" y="198" on="1"/>
        <pt x="1856" y="198" on="0"/>
        <pt x="1896" y="179" on="0"/>
        <pt x="1923" y="149" on="0"/>
        <pt x="1937" y="111" on="0"/>
        <pt x="1937" y="92" on="1"/>
        <pt x="1937" y="57" on="0"/>
        <pt x="1892" y="2" on="0"/>
        <pt x="1844" y="0" on="1"/>
      </contour>
      <contour>
        <pt x="544" y="521" on="1"/>
        <pt x="1069" y="521" on="1"/>
        <pt x="962" y="1274" on="1"/>
        <pt x="959" y="1274" on="1"/>
      </contour>
    </TTGlyph>
    <TTGlyph name="Aacute" xMin="49" yMin="1" xMax="1387" yMax="1992">
      <component glyphName="A" x="0" y="0" flags="0x1204"/>
      <component glyphName="acute" x="421" y="444" flags="0x1004"/>
    </TTGlyph>
    <TTGlyph name="Acircumflex" xMin="49" yMin="1" xMax="1387" yMax="1999">
      <component glyphName="A" x="0" y="0" flags="0x1204"/>
      <component glyphName="circumflex" x="440" y="444" flags="0x1004"/>
    </TTGlyph>
    <TTGlyph name="Adieresis" xMin="49" yMin="1" xMax="1387" yMax="1869">
      <component glyphName="A" x="0" y="0" flags="0x1204"/>
      <component glyphName="dieresis" x="438" y="444" flags="0x1004"/>
    </TTGlyph>
    <TTGlyph name="Agrave" xMin="49" yMin="1" xMax="1387" yMax="1992">
      <component glyphName="A" x="0" y="0" flags="0x1204"/>
      <component glyphName="grave" x="458" y="444" flags="0x1004"/>
    </TTGlyph>
    <TTGlyph name="Aring" xMin="49" yMin="1" xMax="1387" yMax="1957">
      <component glyphName="A" x="0" y="0" flags="0x1204"/>
      <component glyphName="ring" x="438" y="444" flags="0x1004"/>
    </TTGlyph>
    <TTGlyph name="Atilde" xMin="49" yMin="1" xMax="1387" yMax="1838">
      <component glyphName="A" x="0" y="0" flags="0x1204"/>
      <component glyphName="tilde" x="445" y="444" flags="0x1004"/>
    </TTGlyph>
    <TTGlyph name="B" xMin="175" yMin="0" xMax="1294" yMax="1438">
      <contour>
        <pt x="175" y="1310" on="1"/>
        <pt x="175" y="1337" on="0"/>
        <pt x="195" y="1383" on="0"/>
        <pt x="230" y="1418" on="0"/>
        <pt x="277" y="1438" on="0"/>
        <pt x="304" y="1438" on="1"/>
        <pt x="809" y="1437" on="1"/>
        <pt x="903" y="1437" on="0"/>
        <pt x="1062" y="1383" on="0"/>
        <pt x="1177" y="1288" on="0"/>
        <pt x="1241" y="1156" on="0"/>
        <pt x="1241" y="1077" on="1"/>
        <pt x="1241" y="1018" on="0"/>
        <pt x="1200" y="911" on="0"/>
        <pt x="1126" y="825" on="0"/>
        <pt x="1025" y="764" on="0"/>
        <pt x="964" y="752" on="1"/>
        <pt x="964" y="748" on="1"/>
        <pt x="1039" y="737" on="0"/>
        <pt x="1161" y="677" on="0"/>
        <pt x="1247" y="585" on="0"/>
        <pt x="1294" y="465" on="0"/>
        <pt x="1294" y="393" on="1"/>
        <pt x="1294" y="321" on="0"/>
        <pt x="1242" y="180" on="0"/>
        <pt x="1127" y="69" on="0"/>
        <pt x="946" y="0" on="0"/>
        <pt x="817" y="0" on="1"/>
        <pt x="304" y="0" on="1"/>
        <pt x="277" y="0" on="0"/>
        <pt x="230" y="20" on="0"/>
        <pt x="195" y="54" on="0"/>
        <pt x="175" y="101" on="0"/>
        <pt x="175" y="127" on="1"/>
      </contour>
      <contour>
        <pt x="433" y="177" on="1"/>
        <pt x="685" y="177" on="1"/>
        <pt x="768" y="177" on="0"/>
        <pt x="895" y="200" on="0"/>
        <pt x="982" y="256" on="0"/>
        <pt x="1026" y="351" on="0"/>
        <pt x="1026" y="422" on="1"/>
        <pt x="1026" y="497" on="0"/>
        <pt x="968" y="590" on="0"/>
        <pt x="863" y="642" on="0"/>
        <pt x="716" y="661" on="0"/>
        <pt x="628" y="661" on="1"/>
        <pt x="433" y="661" on="1"/>
      </contour>
      <contour>
        <pt x="433" y="1260" on="1"/>
        <pt x="433" y="815" on="1"/>
        <pt x="681" y="815" on="1"/>
        <pt x="741" y="815" on="0"/>
        <pt x="849" y="840" on="0"/>
        <pt x="929" y="895" on="0"/>
        <pt x="976" y="981" on="0"/>
        <pt x="976" y="1042" on="1"/>
        <pt x="976" y="1108" on="0"/>
        <pt x="926" y="1192" on="0"/>
        <pt x="843" y="1241" on="0"/>
        <pt x="735" y="1260" on="0"/>
        <pt x="676" y="1260" on="1"/>
      </contour>
    </TTGlyph>
    <TTGlyph name="C" xMin="103" yMin="-33" xMax="1254" yMax="1470">
      <contour>
        <pt x="103" y="712" on="1"/>
        <pt x="103" y="887" on="0"/>
        <pt x="204" y="1168" on="0"/>
        <pt x="384" y="1365" on="0"/>
        <pt x="632" y="1470" on="0"/>
        <pt x="778" y="1470" on="1"/>
        <pt x="869" y="1470" on="0"/>
        <pt x="1063" y="1427" on="0"/>
        <pt x="1166" y="1382" on="1"/>
        <pt x="1199" y="1368" on="0"/>
        <pt x="1229" y="1316" on="0"/>
        <pt x="1229" y="1289" on="1"/>
        <pt x="1229" y="1270" on="0"/>
        <pt x="1216" y="1234" on="0"/>
        <pt x="1191" y="1205" on="0"/>
        <pt x="1156" y="1188" on="0"/>
        <pt x="1134" y="1188" on="1"/>
        <pt x="1116" y="1188" on="0"/>
        <pt x="1094" y="1196" on="1"/>
        <pt x="933" y="1253" on="0"/>
        <pt x="808" y="1253" on="1"/>
        <pt x="704" y="1253" on="0"/>
        <pt x="544" y="1181" on="0"/>
        <pt x="436" y="1044" on="0"/>
        <pt x="380" y="845" on="0"/>
        <pt x="380" y="717" on="1"/>
        <pt x="380" y="600" on="0"/>
        <pt x="429" y="406" on="0"/>
        <pt x="530" y="267" on="0"/>
        <pt x="681" y="189" on="0"/>
        <pt x="783" y="189" on="1"/>
        <pt x="854" y="189" on="0"/>
        <pt x="1018" y="228" on="0"/>
        <pt x="1114" y="271" on="1"/>
        <pt x="1127" y="277" on="0"/>
        <pt x="1152" y="282" on="0"/>
        <pt x="1163" y="282" on="1"/>
        <pt x="1184" y="282" on="0"/>
        <pt x="1217" y="266" on="0"/>
        <pt x="1241" y="238" on="0"/>
        <pt x="1254" y="202" on="0"/>
        <pt x="1254" y="183" on="1"/>
        <pt x="1254" y="152" on="0"/>
        <pt x="1218" y="91" on="0"/>
        <pt x="1176" y="71" on="1"/>
        <pt x="954" y="-33" on="0"/>
        <pt x="764" y="-33" on="1"/>
        <pt x="617" y="-33" on="0"/>
        <pt x="373" y="75" on="0"/>
        <pt x="199" y="272" on="0"/>
        <pt x="103" y="546" on="0"/>
      </contour>
    </TTGlyph>
    <TTGlyph name="Ccedilla" xMin="103" yMin="-416" xMax="1254" yMax="1470">
      <component glyphName="C" x="0" y="0" flags="0x1204"/>
      <component glyphName="cedilla" x="439" y="0" flags="0x1004"/>
    </TTGlyph>
    <TTGlyph name="D" xMin="161" yMin="0" xMax="1417" yMax="1438">
      <contour>
        <pt x="294" y="0" on="1"/>
        <pt x="267" y="0" on="0"/>
        <pt x="218" y="20" on="0"/>
        <pt x="182" y="56" on="0"/>
        <pt x="161" y="103" on="0"/>
        <pt x="161" y="130" on="1"/>
        <pt x="161" y="1307" on="1"/>
        <pt x="161" y="1334" on="0"/>
        <pt x="182" y="1382" on="0"/>
        <pt x="218" y="1417" on="0"/>
        <pt x="267" y="1438" on="0"/>
        <pt x="294" y="1438" on="1"/>
        <pt x="650" y="1438" on="1"/>
        <pt x="844" y="1438" on="0"/>
        <pt x="1132" y="1341" on="0"/>
        <pt x="1323" y="1156" on="0"/>
        <pt x="1417" y="886" on="0"/>
        <pt x="1417" y="713" on="1"/>
        <pt x="1417" y="540" on="0"/>
        <pt x="1314" y="274" on="0"/>
        <pt x="1120" y="93" on="0"/>
        <pt x="838" y="0" on="0"/>
        <pt x="660" y="0" on="1"/>
      </contour>
      <contour>
        <pt x="427" y="183" on="1"/>
        <pt x="653" y="183" on="1"/>
        <pt x="783" y="183" on="0"/>
        <pt x="966" y="256" on="0"/>
        <pt x="1082" y="394" on="0"/>
        <pt x="1135" y="592" on="0"/>
        <pt x="1135" y="718" on="1"/>
        <pt x="1135" y="857" on="0"/>
        <pt x="1067" y="1059" on="0"/>
        <pt x="935" y="1191" on="0"/>
        <pt x="741" y="1254" on="0"/>
        <pt x="616" y="1254" on="1"/>
        <pt x="427" y="1254" on="1"/>
      </contour>
    </TTGlyph>
    <TTGlyph name="Delta" xMin="89" yMin="213" xMax="1181" yMax="1555">
      <contour>
        <pt x="1181" y="213" on="1"/>
        <pt x="89" y="213" on="1"/>
        <pt x="547" y="1488" on="1"/>
        <pt x="559" y="1521" on="0"/>
        <pt x="608" y="1555" on="0"/>
        <pt x="636" y="1554" on="1"/>
        <pt x="665" y="1555" on="0"/>
        <pt x="713" y="1521" on="0"/>
        <pt x="725" y="1488" on="1"/>
      </contour>
      <contour>
        <pt x="636" y="1315" on="1"/>
        <pt x="629" y="1315" on="1"/>
        <pt x="289" y="333" on="1"/>
        <pt x="978" y="333" on="1"/>
      </contour>
    </TTGlyph>
    <TTGlyph name="E" xMin="178" yMin="0" xMax="1154" yMax="1438">
      <contour>
        <pt x="309" y="0" on="1"/>
        <pt x="283" y="0" on="0"/>
        <pt x="236" y="21" on="0"/>
        <pt x="200" y="56" on="0"/>
        <pt x="178" y="103" on="0"/>
        <pt x="178" y="129" on="1"/>
        <pt x="178" y="1309" on="1"/>
        <pt x="178" y="1334" on="0"/>
        <pt x="197" y="1381" on="0"/>
        <pt x="232" y="1417" on="0"/>
        <pt x="278" y="1438" on="0"/>
        <pt x="305" y="1438" on="1"/>
        <pt x="1033" y="1438" on="1"/>
        <pt x="1058" y="1438" on="0"/>
        <pt x="1095" y="1421" on="0"/>
        <pt x="1120" y="1393" on="0"/>
        <pt x="1132" y="1358" on="0"/>
        <pt x="1132" y="1339" on="1"/>
        <pt x="1132" y="1321" on="0"/>
        <pt x="1120" y="1285" on="0"/>
        <pt x="1095" y="1257" on="0"/>
        <pt x="1058" y="1240" on="0"/>
        <pt x="1033" y="1240" on="1"/>
        <pt x="439" y="1240" on="1"/>
        <pt x="439" y="835" on="1"/>
        <pt x="995" y="835" on="1"/>
        <pt x="1020" y="835" on="0"/>
        <pt x="1058" y="818" on="0"/>
        <pt x="1083" y="790" on="0"/>
        <pt x="1095" y="755" on="0"/>
        <pt x="1095" y="736" on="1"/>
        <pt x="1095" y="718" on="0"/>
        <pt x="1082" y="682" on="0"/>
        <pt x="1057" y="654" on="0"/>
        <pt x="1020" y="637" on="0"/>
        <pt x="995" y="637" on="1"/>
        <pt x="439" y="637" on="1"/>
        <pt x="439" y="198" on="1"/>
        <pt x="1055" y="198" on="1"/>
        <pt x="1080" y="198" on="0"/>
        <pt x="1117" y="181" on="0"/>
        <pt x="1142" y="153" on="0"/>
        <pt x="1154" y="118" on="0"/>
        <pt x="1154" y="99" on="1"/>
        <pt x="1154" y="81" on="0"/>
        <pt x="1142" y="45" on="0"/>
        <pt x="1117" y="17" on="0"/>
        <pt x="1080" y="0" on="0"/>
        <pt x="1055" y="0" on="1"/>
      </contour>
    </TTGlyph>
    <TTGlyph name="Eacute" xMin="178" yMin="0" xMax="1154" yMax="1992">
      <component glyphName="acute" x="330" y="444" flags="0x1004"/>
      <component glyphName="E" x="0" y="0" flags="0x1004"/>
    </TTGlyph>
    <TTGlyph name="Ecircumflex" xMin="178" yMin="0" xMax="1154" yMax="1999">
      <component glyphName="circumflex" x="349" y="444" flags="0x1004"/>
      <component glyphName="E" x="0" y="0" flags="0x1004"/>
    </TTGlyph>
    <TTGlyph name="Edieresis" xMin="178" yMin="0" xMax="1154" yMax="1869">
      <component glyphName="dieresis" x="346" y="444" flags="0x1004"/>
      <component glyphName="E" x="0" y="0" flags="0x1004"/>
    </TTGlyph>
    <TTGlyph name="Egrave" xMin="178" yMin="0" xMax="1154" yMax="1992">
      <component glyphName="E" x="0" y="0" flags="0x1204"/>
      <component glyphName="grave" x="367" y="444" flags="0x1004"/>
    </TTGlyph>
    <TTGlyph name="Eth" xMin="-7" yMin="0" xMax="1417" yMax="1438">
      <contour>
        <pt x="294" y="0" on="1"/>
        <pt x="267" y="0" on="0"/>
        <pt x="218" y="20" on="0"/>
        <pt x="182" y="56" on="0"/>
        <pt x="161" y="103" on="0"/>
        <pt x="161" y="130" on="1"/>
        <pt x="161" y="648" on="1"/>
        <pt x="66" y="648" on="1"/>
        <pt x="30" y="648" on="0"/>
        <pt x="-7" y="694" on="0"/>
        <pt x="-7" y="721" on="1"/>
        <pt x="-7" y="749" on="0"/>
        <pt x="29" y="794" on="0"/>
        <pt x="66" y="794" on="1"/>
        <pt x="161" y="794" on="1"/>
        <pt x="161" y="1307" on="1"/>
        <pt x="161" y="1334" on="0"/>
        <pt x="182" y="1382" on="0"/>
        <pt x="218" y="1417" on="0"/>
        <pt x="267" y="1438" on="0"/>
        <pt x="294" y="1438" on="1"/>
        <pt x="650" y="1438" on="1"/>
        <pt x="844" y="1438" on="0"/>
        <pt x="1132" y="1341" on="0"/>
        <pt x="1323" y="1156" on="0"/>
        <pt x="1417" y="886" on="0"/>
        <pt x="1417" y="713" on="1"/>
        <pt x="1417" y="540" on="0"/>
        <pt x="1314" y="274" on="0"/>
        <pt x="1120" y="93" on="0"/>
        <pt x="838" y="0" on="0"/>
        <pt x="660" y="0" on="1"/>
      </contour>
      <contour>
        <pt x="427" y="648" on="1"/>
        <pt x="427" y="183" on="1"/>
        <pt x="653" y="183" on="1"/>
        <pt x="783" y="183" on="0"/>
        <pt x="966" y="256" on="0"/>
        <pt x="1082" y="394" on="0"/>
        <pt x="1135" y="592" on="0"/>
        <pt x="1135" y="718" on="1"/>
        <pt x="1135" y="857" on="0"/>
        <pt x="1067" y="1059" on="0"/>
        <pt x="935" y="1191" on="0"/>
        <pt x="741" y="1254" on="0"/>
        <pt x="616" y="1254" on="1"/>
        <pt x="427" y="1254" on="1"/>
        <pt x="427" y="794" on="1"/>
        <pt x="540" y="794" on="1"/>
        <pt x="577" y="794" on="0"/>
        <pt x="613" y="748" on="0"/>
        <pt x="613" y="721" on="1"/>
        <pt x="613" y="693" on="0"/>
        <pt x="577" y="648" on="0"/>
        <pt x="540" y="648" on="1"/>
      </contour>
    </TTGlyph>
    <TTGlyph name="Euro" xMin="6" yMin="-25" xMax="1191" yMax="1458">
      <contour>
        <pt x="135" y="820" on="1"/>
        <pt x="74" y="820" on="1"/>
        <pt x="43" y="820" on="0"/>
        <pt x="12" y="860" on="0"/>
        <pt x="12" y="884" on="1"/>
        <pt x="12" y="907" on="0"/>
        <pt x="42" y="947" on="0"/>
        <pt x="74" y="947" on="1"/>
        <pt x="154" y="947" on="1"/>
        <pt x="179" y="1064" on="0"/>
        <pt x="290" y="1253" on="0"/>
        <pt x="452" y="1386" on="0"/>
        <pt x="664" y="1458" on="0"/>
        <pt x="791" y="1458" on="1"/>
        <pt x="878" y="1458" on="0"/>
        <pt x="1051" y="1429" on="0"/>
        <pt x="1124" y="1401" on="1"/>
        <pt x="1156" y="1387" on="0"/>
        <pt x="1184" y="1335" on="0"/>
        <pt x="1184" y="1308" on="1"/>
        <pt x="1184" y="1289" on="0"/>
        <pt x="1172" y="1253" on="0"/>
        <pt x="1149" y="1225" on="0"/>
        <pt x="1116" y="1208" on="0"/>
        <pt x="1096" y="1208" on="1"/>
        <pt x="1088" y="1208" on="0"/>
        <pt x="1071" y="1212" on="0"/>
        <pt x="1062" y="1215" on="1"/>
        <pt x="950" y="1253" on="0"/>
        <pt x="822" y="1253" on="1"/>
        <pt x="741" y="1253" on="0"/>
        <pt x="615" y="1205" on="0"/>
        <pt x="522" y="1123" on="0"/>
        <pt x="459" y="1011" on="0"/>
        <pt x="441" y="947" on="1"/>
        <pt x="970" y="947" on="1"/>
        <pt x="1002" y="947" on="0"/>
        <pt x="1033" y="907" on="0"/>
        <pt x="1033" y="884" on="1"/>
        <pt x="1033" y="860" on="0"/>
        <pt x="1002" y="820" on="0"/>
        <pt x="970" y="820" on="1"/>
        <pt x="417" y="820" on="1"/>
        <pt x="411" y="769" on="0"/>
        <pt x="411" y="718" on="1"/>
        <pt x="411" y="689" on="0"/>
        <pt x="414" y="630" on="0"/>
        <pt x="418" y="600" on="1"/>
        <pt x="965" y="600" on="1"/>
        <pt x="997" y="600" on="0"/>
        <pt x="1028" y="561" on="0"/>
        <pt x="1028" y="537" on="1"/>
        <pt x="1028" y="514" on="0"/>
        <pt x="997" y="474" on="0"/>
        <pt x="965" y="474" on="1"/>
        <pt x="444" y="474" on="1"/>
        <pt x="463" y="412" on="0"/>
        <pt x="526" y="304" on="0"/>
        <pt x="619" y="225" on="0"/>
        <pt x="742" y="180" on="0"/>
        <pt x="822" y="180" on="1"/>
        <pt x="883" y="180" on="0"/>
        <pt x="1014" y="201" on="0"/>
        <pt x="1074" y="221" on="1"/>
        <pt x="1091" y="226" on="0"/>
        <pt x="1103" y="226" on="1"/>
        <pt x="1122" y="226" on="0"/>
        <pt x="1155" y="209" on="0"/>
        <pt x="1178" y="181" on="0"/>
        <pt x="1191" y="146" on="0"/>
        <pt x="1191" y="127" on="1"/>
        <pt x="1191" y="99" on="0"/>
        <pt x="1160" y="47" on="0"/>
        <pt x="1125" y="33" on="1"/>
        <pt x="1047" y="5" on="0"/>
        <pt x="875" y="-25" on="0"/>
        <pt x="785" y="-25" on="1"/>
        <pt x="660" y="-25" on="0"/>
        <pt x="453" y="44" on="0"/>
        <pt x="294" y="173" on="0"/>
        <pt x="184" y="358" on="0"/>
        <pt x="157" y="474" on="1"/>
        <pt x="69" y="474" on="1"/>
        <pt x="37" y="474" on="0"/>
        <pt x="6" y="514" on="0"/>
        <pt x="6" y="537" on="1"/>
        <pt x="6" y="561" on="0"/>
        <pt x="37" y="600" on="0"/>
        <pt x="69" y="600" on="1"/>
        <pt x="136" y="600" on="1"/>
        <pt x="130" y="654" on="0"/>
        <pt x="130" y="712" on="1"/>
        <pt x="130" y="738" on="0"/>
        <pt x="133" y="791" on="0"/>
      </contour>
    </TTGlyph>
    <TTGlyph name="F" xMin="168" yMin="0" xMax="1087" yMax="1438">
      <contour>
        <pt x="168" y="1306" on="1"/>
        <pt x="168" y="1334" on="0"/>
        <pt x="189" y="1383" on="0"/>
        <pt x="225" y="1418" on="0"/>
        <pt x="272" y="1438" on="0"/>
        <pt x="298" y="1438" on="1"/>
        <pt x="988" y="1438" on="1"/>
        <pt x="1013" y="1438" on="0"/>
        <pt x="1050" y="1421" on="0"/>
        <pt x="1075" y="1393" on="0"/>
        <pt x="1087" y="1358" on="0"/>
        <pt x="1087" y="1339" on="1"/>
        <pt x="1087" y="1321" on="0"/>
        <pt x="1075" y="1285" on="0"/>
        <pt x="1050" y="1257" on="0"/>
        <pt x="1013" y="1240" on="0"/>
        <pt x="988" y="1240" on="1"/>
        <pt x="437" y="1240" on="1"/>
        <pt x="437" y="842" on="1"/>
        <pt x="960" y="842" on="1"/>
        <pt x="985" y="842" on="0"/>
        <pt x="1022" y="825" on="0"/>
        <pt x="1047" y="797" on="0"/>
        <pt x="1059" y="761" on="0"/>
        <pt x="1059" y="743" on="1"/>
        <pt x="1059" y="724" on="0"/>
        <pt x="1047" y="688" on="0"/>
        <pt x="1022" y="660" on="0"/>
        <pt x="985" y="643" on="0"/>
        <pt x="960" y="643" on="1"/>
        <pt x="437" y="643" on="1"/>
        <pt x="437" y="129" on="1"/>
        <pt x="437" y="97" on="0"/>
        <pt x="414" y="48" on="0"/>
        <pt x="376" y="16" on="0"/>
        <pt x="327" y="0" on="0"/>
        <pt x="302" y="0" on="1"/>
        <pt x="277" y="0" on="0"/>
        <pt x="229" y="16" on="0"/>
        <pt x="191" y="48" on="0"/>
        <pt x="168" y="97" on="0"/>
        <pt x="168" y="129" on="1"/>
      </contour>
    </TTGlyph>
    <TTGlyph name="G" xMin="107" yMin="-33" xMax="1379" yMax="1470">
      <contour>
        <pt x="1282" y="757" on="1"/>
        <pt x="1335" y="757" on="0"/>
        <pt x="1379" y="700" on="0"/>
        <pt x="1379" y="647" on="1"/>
        <pt x="1379" y="177" on="1"/>
        <pt x="1379" y="112" on="0"/>
        <pt x="1312" y="40" on="0"/>
        <pt x="1262" y="32" on="1"/>
        <pt x="1216" y="18" on="0"/>
        <pt x="1105" y="-5" on="0"/>
        <pt x="989" y="-23" on="0"/>
        <pt x="876" y="-33" on="0"/>
        <pt x="828" y="-33" on="1"/>
        <pt x="665" y="-33" on="0"/>
        <pt x="399" y="57" on="0"/>
        <pt x="210" y="242" on="0"/>
        <pt x="107" y="525" on="0"/>
        <pt x="107" y="718" on="1"/>
        <pt x="107" y="822" on="0"/>
        <pt x="146" y="1014" on="0"/>
        <pt x="226" y="1181" on="0"/>
        <pt x="347" y="1318" on="0"/>
        <pt x="510" y="1416" on="0"/>
        <pt x="715" y="1470" on="0"/>
        <pt x="839" y="1470" on="1"/>
        <pt x="958" y="1470" on="0"/>
        <pt x="1177" y="1428" on="0"/>
        <pt x="1266" y="1391" on="1"/>
        <pt x="1299" y="1377" on="0"/>
        <pt x="1329" y="1328" on="0"/>
        <pt x="1329" y="1300" on="1"/>
        <pt x="1329" y="1281" on="0"/>
        <pt x="1316" y="1244" on="0"/>
        <pt x="1290" y="1215" on="0"/>
        <pt x="1254" y="1197" on="0"/>
        <pt x="1232" y="1197" on="1"/>
        <pt x="1226" y="1197" on="0"/>
        <pt x="1212" y="1199" on="0"/>
        <pt x="1205" y="1201" on="1"/>
        <pt x="1164" y="1211" on="0"/>
        <pt x="1074" y="1230" on="0"/>
        <pt x="984" y="1245" on="0"/>
        <pt x="897" y="1253" on="0"/>
        <pt x="860" y="1253" on="1"/>
        <pt x="733" y="1253" on="0"/>
        <pt x="554" y="1171" on="0"/>
        <pt x="441" y="1025" on="0"/>
        <pt x="389" y="827" on="0"/>
        <pt x="389" y="710" on="1"/>
        <pt x="389" y="575" on="0"/>
        <pt x="437" y="370" on="0"/>
        <pt x="545" y="232" on="0"/>
        <pt x="717" y="162" on="0"/>
        <pt x="841" y="162" on="1"/>
        <pt x="910" y="162" on="0"/>
        <pt x="1051" y="182" on="0"/>
        <pt x="1117" y="198" on="1"/>
        <pt x="1117" y="587" on="1"/>
        <pt x="885" y="587" on="1"/>
        <pt x="864" y="587" on="0"/>
        <pt x="832" y="602" on="0"/>
        <pt x="811" y="626" on="0"/>
        <pt x="801" y="657" on="0"/>
        <pt x="801" y="673" on="1"/>
        <pt x="801" y="689" on="0"/>
        <pt x="811" y="719" on="0"/>
        <pt x="832" y="743" on="0"/>
        <pt x="864" y="757" on="0"/>
        <pt x="885" y="757" on="1"/>
      </contour>
    </TTGlyph>
    <TTGlyph name="H" xMin="173" yMin="2" xMax="1351" yMax="1436">
      <contour>
        <pt x="1082" y="1307" on="1"/>
        <pt x="1082" y="1339" on="0"/>
        <pt x="1105" y="1387" on="0"/>
        <pt x="1143" y="1420" on="0"/>
        <pt x="1191" y="1436" on="0"/>
        <pt x="1217" y="1436" on="1"/>
        <pt x="1242" y="1436" on="0"/>
        <pt x="1290" y="1420" on="0"/>
        <pt x="1328" y="1388" on="0"/>
        <pt x="1351" y="1339" on="0"/>
        <pt x="1351" y="1307" on="1"/>
        <pt x="1351" y="131" on="1"/>
        <pt x="1351" y="99" on="0"/>
        <pt x="1328" y="50" on="0"/>
        <pt x="1290" y="18" on="0"/>
        <pt x="1241" y="2" on="0"/>
        <pt x="1216" y="2" on="1"/>
        <pt x="1191" y="2" on="0"/>
        <pt x="1143" y="18" on="0"/>
        <pt x="1105" y="50" on="0"/>
        <pt x="1082" y="99" on="0"/>
        <pt x="1082" y="131" on="1"/>
        <pt x="1082" y="639" on="1"/>
        <pt x="442" y="639" on="1"/>
        <pt x="442" y="131" on="1"/>
        <pt x="442" y="99" on="0"/>
        <pt x="419" y="50" on="0"/>
        <pt x="381" y="18" on="0"/>
        <pt x="332" y="2" on="0"/>
        <pt x="307" y="2" on="1"/>
        <pt x="282" y="2" on="0"/>
        <pt x="234" y="18" on="0"/>
        <pt x="196" y="50" on="0"/>
        <pt x="173" y="99" on="0"/>
        <pt x="173" y="131" on="1"/>
        <pt x="173" y="1307" on="1"/>
        <pt x="173" y="1339" on="0"/>
        <pt x="196" y="1387" on="0"/>
        <pt x="234" y="1420" on="0"/>
        <pt x="283" y="1436" on="0"/>
        <pt x="308" y="1436" on="1"/>
        <pt x="333" y="1436" on="0"/>
        <pt x="381" y="1420" on="0"/>
        <pt x="419" y="1388" on="0"/>
        <pt x="442" y="1339" on="0"/>
        <pt x="442" y="1307" on="1"/>
        <pt x="442" y="851" on="1"/>
        <pt x="1082" y="851" on="1"/>
      </contour>
    </TTGlyph>
    <TTGlyph name="I" xMin="185" yMin="2" xMax="453" yMax="1440">
      <contour>
        <pt x="185" y="1311" on="1"/>
        <pt x="185" y="1343" on="0"/>
        <pt x="208" y="1392" on="0"/>
        <pt x="246" y="1424" on="0"/>
        <pt x="294" y="1440" on="0"/>
        <pt x="319" y="1440" on="1"/>
        <pt x="344" y="1440" on="0"/>
        <pt x="392" y="1424" on="0"/>
        <pt x="430" y="1392" on="0"/>
        <pt x="453" y="1343" on="0"/>
        <pt x="453" y="1311" on="1"/>
        <pt x="453" y="130" on="1"/>
        <pt x="453" y="98" on="0"/>
        <pt x="430" y="50" on="0"/>
        <pt x="392" y="18" on="0"/>
        <pt x="343" y="2" on="0"/>
        <pt x="318" y="2" on="1"/>
        <pt x="293" y="2" on="0"/>
        <pt x="245" y="18" on="0"/>
        <pt x="208" y="50" on="0"/>
        <pt x="185" y="98" on="0"/>
        <pt x="185" y="130" on="1"/>
      </contour>
    </TTGlyph>
    <TTGlyph name="Iacute" xMin="89" yMin="2" xMax="531" yMax="1992">
      <component glyphName="I" x="0" y="0" flags="0x1204"/>
      <component glyphName="acute" x="18" y="444" flags="0x1004"/>
    </TTGlyph>
    <TTGlyph name="Icircumflex" xMin="5" yMin="2" xMax="634" yMax="1999">
      <component glyphName="I" x="0" y="0" flags="0x1204"/>
      <component glyphName="circumflex" x="37" y="444" flags="0x1004"/>
    </TTGlyph>
    <TTGlyph name="Idieresis" xMin="-14" yMin="2" xMax="651" yMax="1869">
      <component glyphName="I" x="0" y="0" flags="0x1204"/>
      <component glyphName="dieresis" x="34" y="444" flags="0x1004"/>
    </TTGlyph>
    <TTGlyph name="Igrave" xMin="104" yMin="2" xMax="548" yMax="1992">
      <component glyphName="I" x="0" y="0" flags="0x1204"/>
      <component glyphName="grave" x="54" y="444" flags="0x1004"/>
    </TTGlyph>
    <TTGlyph name="J" xMin="67" yMin="-31" xMax="972" yMax="1438">
      <contour>
        <pt x="703" y="1310" on="1"/>
        <pt x="703" y="1342" on="0"/>
        <pt x="726" y="1390" on="0"/>
        <pt x="764" y="1422" on="0"/>
        <pt x="813" y="1438" on="0"/>
        <pt x="838" y="1438" on="1"/>
        <pt x="863" y="1438" on="0"/>
        <pt x="911" y="1422" on="0"/>
        <pt x="949" y="1390" on="0"/>
        <pt x="972" y="1342" on="0"/>
        <pt x="972" y="1310" on="1"/>
        <pt x="972" y="443" on="1"/>
        <pt x="972" y="315" on="0"/>
        <pt x="895" y="135" on="0"/>
        <pt x="763" y="21" on="0"/>
        <pt x="589" y="-31" on="0"/>
        <pt x="492" y="-31" on="1"/>
        <pt x="430" y="-31" on="0"/>
        <pt x="312" y="-2" on="0"/>
        <pt x="207" y="55" on="0"/>
        <pt x="122" y="141" on="0"/>
        <pt x="94" y="198" on="1"/>
        <pt x="67" y="234" on="0"/>
        <pt x="67" y="269" on="1"/>
        <pt x="67" y="290" on="0"/>
        <pt x="85" y="325" on="0"/>
        <pt x="114" y="351" on="0"/>
        <pt x="150" y="365" on="0"/>
        <pt x="169" y="365" on="1"/>
        <pt x="186" y="365" on="0"/>
        <pt x="219" y="351" on="0"/>
        <pt x="232" y="335" on="1"/>
        <pt x="269" y="258" on="0"/>
        <pt x="389" y="165" on="0"/>
        <pt x="476" y="165" on="1"/>
        <pt x="587" y="165" on="0"/>
        <pt x="703" y="308" on="0"/>
        <pt x="703" y="461" on="1"/>
      </contour>
    </TTGlyph>
    <TTGlyph name="K" xMin="183" yMin="0" xMax="1248" yMax="1438">
      <contour>
        <pt x="447" y="127" on="1"/>
        <pt x="447" y="95" on="0"/>
        <pt x="424" y="48" on="0"/>
        <pt x="386" y="16" on="0"/>
        <pt x="339" y="0" on="0"/>
        <pt x="314" y="0" on="1"/>
        <pt x="289" y="0" on="0"/>
        <pt x="242" y="16" on="0"/>
        <pt x="205" y="47" on="0"/>
        <pt x="183" y="95" on="0"/>
        <pt x="183" y="127" on="1"/>
        <pt x="183" y="1311" on="1"/>
        <pt x="183" y="1343" on="0"/>
        <pt x="206" y="1391" on="0"/>
        <pt x="243" y="1422" on="0"/>
        <pt x="290" y="1438" on="0"/>
        <pt x="315" y="1438" on="1"/>
        <pt x="340" y="1438" on="0"/>
        <pt x="387" y="1422" on="0"/>
        <pt x="424" y="1391" on="0"/>
        <pt x="447" y="1343" on="0"/>
        <pt x="447" y="1311" on="1"/>
        <pt x="447" y="805" on="1"/>
        <pt x="968" y="1380" on="1"/>
        <pt x="988" y="1410" on="0"/>
        <pt x="1041" y="1436" on="0"/>
        <pt x="1069" y="1436" on="1"/>
        <pt x="1093" y="1436" on="0"/>
        <pt x="1138" y="1419" on="0"/>
        <pt x="1173" y="1389" on="0"/>
        <pt x="1195" y="1348" on="0"/>
        <pt x="1195" y="1324" on="1"/>
        <pt x="1195" y="1291" on="0"/>
        <pt x="1171" y="1257" on="1"/>
        <pt x="709" y="780" on="1"/>
        <pt x="1223" y="197" on="1"/>
        <pt x="1237" y="178" on="0"/>
        <pt x="1248" y="141" on="0"/>
        <pt x="1248" y="124" on="1"/>
        <pt x="1248" y="98" on="0"/>
        <pt x="1225" y="53" on="0"/>
        <pt x="1187" y="20" on="0"/>
        <pt x="1138" y="1" on="0"/>
        <pt x="1113" y="1" on="1"/>
        <pt x="1084" y="1" on="0"/>
        <pt x="1029" y="28" on="0"/>
        <pt x="1009" y="60" on="1"/>
        <pt x="447" y="720" on="1"/>
      </contour>
    </TTGlyph>
    <TTGlyph name="L" xMin="175" yMin="0" xMax="1123" yMax="1436">
      <contour>
        <pt x="310" y="0" on="1"/>
        <pt x="283" y="0" on="0"/>
        <pt x="234" y="21" on="0"/>
        <pt x="197" y="57" on="0"/>
        <pt x="175" y="105" on="0"/>
        <pt x="175" y="133" on="1"/>
        <pt x="175" y="1307" on="1"/>
        <pt x="175" y="1339" on="0"/>
        <pt x="198" y="1388" on="0"/>
        <pt x="236" y="1420" on="0"/>
        <pt x="284" y="1436" on="0"/>
        <pt x="310" y="1436" on="1"/>
        <pt x="335" y="1436" on="0"/>
        <pt x="383" y="1420" on="0"/>
        <pt x="421" y="1388" on="0"/>
        <pt x="444" y="1339" on="0"/>
        <pt x="444" y="1307" on="1"/>
        <pt x="444" y="202" on="1"/>
        <pt x="1022" y="202" on="1"/>
        <pt x="1047" y="202" on="0"/>
        <pt x="1085" y="184" on="0"/>
        <pt x="1110" y="156" on="0"/>
        <pt x="1123" y="120" on="0"/>
        <pt x="1123" y="101" on="1"/>
        <pt x="1123" y="82" on="0"/>
        <pt x="1110" y="46" on="0"/>
        <pt x="1085" y="17" on="0"/>
        <pt x="1047" y="0" on="0"/>
        <pt x="1022" y="0" on="1"/>
      </contour>
    </TTGlyph>
    <TTGlyph name="Lslash" xMin="-29" yMin="0" xMax="1123" yMax="1436">
      <contour>
        <pt x="310" y="0" on="1"/>
        <pt x="283" y="0" on="0"/>
        <pt x="234" y="21" on="0"/>
        <pt x="197" y="57" on="0"/>
        <pt x="175" y="105" on="0"/>
        <pt x="175" y="133" on="1"/>
        <pt x="175" y="694" on="1"/>
        <pt x="79" y="663" on="1"/>
        <pt x="62" y="658" on="0"/>
        <pt x="52" y="658" on="1"/>
        <pt x="34" y="658" on="0"/>
        <pt x="4" y="674" on="0"/>
        <pt x="-17" y="699" on="0"/>
        <pt x="-29" y="731" on="0"/>
        <pt x="-29" y="748" on="1"/>
        <pt x="-29" y="771" on="0"/>
        <pt x="-3" y="813" on="0"/>
        <pt x="26" y="822" on="1"/>
        <pt x="175" y="870" on="1"/>
        <pt x="175" y="1307" on="1"/>
        <pt x="175" y="1339" on="0"/>
        <pt x="198" y="1388" on="0"/>
        <pt x="236" y="1420" on="0"/>
        <pt x="284" y="1436" on="0"/>
        <pt x="310" y="1436" on="1"/>
        <pt x="335" y="1436" on="0"/>
        <pt x="383" y="1420" on="0"/>
        <pt x="421" y="1388" on="0"/>
        <pt x="444" y="1339" on="0"/>
        <pt x="444" y="1307" on="1"/>
        <pt x="444" y="958" on="1"/>
        <pt x="671" y="1033" on="1"/>
        <pt x="683" y="1037" on="0"/>
        <pt x="698" y="1037" on="1"/>
        <pt x="716" y="1037" on="0"/>
        <pt x="745" y="1022" on="0"/>
        <pt x="766" y="996" on="0"/>
        <pt x="778" y="964" on="0"/>
        <pt x="778" y="948" on="1"/>
        <pt x="778" y="925" on="0"/>
        <pt x="752" y="884" on="0"/>
        <pt x="723" y="874" on="1"/>
        <pt x="444" y="782" on="1"/>
        <pt x="444" y="202" on="1"/>
        <pt x="1022" y="202" on="1"/>
        <pt x="1047" y="202" on="0"/>
        <pt x="1085" y="184" on="0"/>
        <pt x="1110" y="156" on="0"/>
        <pt x="1123" y="120" on="0"/>
        <pt x="1123" y="101" on="1"/>
        <pt x="1123" y="82" on="0"/>
        <pt x="1110" y="46" on="0"/>
        <pt x="1085" y="17" on="0"/>
        <pt x="1047" y="0" on="0"/>
        <pt x="1022" y="0" on="1"/>
      </contour>
    </TTGlyph>
    <TTGlyph name="M" xMin="183" yMin="0" xMax="1821" yMax="1438">
      <contour>
        <pt x="1004" y="326" on="1"/>
        <pt x="1409" y="1243" on="1"/>
        <pt x="1432" y="1300" on="0"/>
        <pt x="1478" y="1375" on="0"/>
        <pt x="1530" y="1420" on="0"/>
        <pt x="1591" y="1438" on="0"/>
        <pt x="1630" y="1438" on="1"/>
        <pt x="1668" y="1438" on="0"/>
        <pt x="1737" y="1414" on="0"/>
        <pt x="1790" y="1362" on="0"/>
        <pt x="1821" y="1280" on="0"/>
        <pt x="1821" y="1222" on="1"/>
        <pt x="1821" y="116" on="1"/>
        <pt x="1821" y="87" on="0"/>
        <pt x="1802" y="44" on="0"/>
        <pt x="1770" y="15" on="0"/>
        <pt x="1729" y="0" on="0"/>
        <pt x="1708" y="0" on="1"/>
        <pt x="1687" y="0" on="0"/>
        <pt x="1648" y="15" on="0"/>
        <pt x="1616" y="44" on="0"/>
        <pt x="1597" y="87" on="0"/>
        <pt x="1597" y="116" on="1"/>
        <pt x="1597" y="1180" on="1"/>
        <pt x="1154" y="163" on="1"/>
        <pt x="1144" y="135" on="0"/>
        <pt x="1111" y="93" on="0"/>
        <pt x="1069" y="64" on="0"/>
        <pt x="1022" y="49" on="0"/>
        <pt x="998" y="49" on="1"/>
        <pt x="952" y="49" on="0"/>
        <pt x="869" y="104" on="0"/>
        <pt x="848" y="163" on="1"/>
        <pt x="406" y="1174" on="1"/>
        <pt x="406" y="116" on="1"/>
        <pt x="406" y="87" on="0"/>
        <pt x="387" y="44" on="0"/>
        <pt x="355" y="15" on="0"/>
        <pt x="315" y="0" on="0"/>
        <pt x="294" y="0" on="1"/>
        <pt x="273" y="0" on="0"/>
        <pt x="233" y="15" on="0"/>
        <pt x="202" y="44" on="0"/>
        <pt x="183" y="87" on="0"/>
        <pt x="183" y="116" on="1"/>
        <pt x="183" y="1222" on="1"/>
        <pt x="183" y="1280" on="0"/>
        <pt x="214" y="1362" on="0"/>
        <pt x="268" y="1414" on="0"/>
        <pt x="338" y="1438" on="0"/>
        <pt x="377" y="1438" on="1"/>
        <pt x="416" y="1438" on="0"/>
        <pt x="478" y="1419" on="0"/>
        <pt x="531" y="1374" on="0"/>
        <pt x="577" y="1298" on="0"/>
        <pt x="600" y="1241" on="1"/>
        <pt x="998" y="326" on="1"/>
      </contour>
    </TTGlyph>
    <TTGlyph name="N" xMin="163" yMin="0" xMax="1384" yMax="1438">
      <contour>
        <pt x="163" y="1278" on="1"/>
        <pt x="163" y="1316" on="0"/>
        <pt x="186" y="1375" on="0"/>
        <pt x="226" y="1416" on="0"/>
        <pt x="277" y="1437" on="0"/>
        <pt x="306" y="1437" on="1"/>
        <pt x="344" y="1437" on="0"/>
        <pt x="419" y="1399" on="0"/>
        <pt x="450" y="1360" on="1"/>
        <pt x="1149" y="353" on="1"/>
        <pt x="1149" y="1324" on="1"/>
        <pt x="1149" y="1352" on="0"/>
        <pt x="1169" y="1395" on="0"/>
        <pt x="1202" y="1423" on="0"/>
        <pt x="1245" y="1438" on="0"/>
        <pt x="1267" y="1438" on="1"/>
        <pt x="1289" y="1438" on="0"/>
        <pt x="1331" y="1424" on="0"/>
        <pt x="1364" y="1395" on="0"/>
        <pt x="1384" y="1352" on="0"/>
        <pt x="1384" y="1324" on="1"/>
        <pt x="1384" y="159" on="1"/>
        <pt x="1384" y="121" on="0"/>
        <pt x="1360" y="62" on="0"/>
        <pt x="1320" y="22" on="0"/>
        <pt x="1267" y="0" on="0"/>
        <pt x="1238" y="0" on="1"/>
        <pt x="1201" y="0" on="0"/>
        <pt x="1126" y="37" on="0"/>
        <pt x="1094" y="77" on="1"/>
        <pt x="399" y="1079" on="1"/>
        <pt x="399" y="113" on="1"/>
        <pt x="399" y="85" on="0"/>
        <pt x="378" y="43" on="0"/>
        <pt x="345" y="14" on="0"/>
        <pt x="302" y="0" on="0"/>
        <pt x="280" y="0" on="1"/>
        <pt x="258" y="0" on="0"/>
        <pt x="216" y="14" on="0"/>
        <pt x="183" y="42" on="0"/>
        <pt x="163" y="84" on="0"/>
        <pt x="163" y="113" on="1"/>
      </contour>
    </TTGlyph>
    <TTGlyph name="Ntilde" xMin="163" yMin="0" xMax="1384" yMax="1838">
      <component glyphName="N" x="0" y="0" flags="0x1204"/>
      <component glyphName="tilde" x="496" y="444" flags="0x1004"/>
    </TTGlyph>
    <TTGlyph name="O" xMin="111" yMin="-33" xMax="1493" yMax="1470">
      <contour>
        <pt x="394" y="718" on="1"/>
        <pt x="394" y="598" on="0"/>
        <pt x="441" y="395" on="0"/>
        <pt x="541" y="248" on="0"/>
        <pt x="695" y="165" on="0"/>
        <pt x="802" y="165" on="1"/>
        <pt x="909" y="165" on="0"/>
        <pt x="1063" y="248" on="0"/>
        <pt x="1163" y="395" on="0"/>
        <pt x="1211" y="598" on="0"/>
        <pt x="1211" y="718" on="1"/>
        <pt x="1211" y="837" on="0"/>
        <pt x="1164" y="1040" on="0"/>
        <pt x="1064" y="1188" on="0"/>
        <pt x="909" y="1272" on="0"/>
        <pt x="802" y="1272" on="1"/>
        <pt x="695" y="1272" on="0"/>
        <pt x="540" y="1188" on="0"/>
        <pt x="441" y="1040" on="0"/>
        <pt x="394" y="837" on="0"/>
      </contour>
      <contour>
        <pt x="111" y="718" on="1"/>
        <pt x="111" y="886" on="0"/>
        <pt x="201" y="1163" on="0"/>
        <pt x="376" y="1361" on="0"/>
        <pt x="634" y="1470" on="0"/>
        <pt x="802" y="1470" on="1"/>
        <pt x="971" y="1470" on="0"/>
        <pt x="1229" y="1361" on="0"/>
        <pt x="1404" y="1163" on="0"/>
        <pt x="1493" y="886" on="0"/>
        <pt x="1493" y="718" on="1"/>
        <pt x="1493" y="550" on="0"/>
        <pt x="1404" y="274" on="0"/>
        <pt x="1229" y="76" on="0"/>
        <pt x="971" y="-33" on="0"/>
        <pt x="802" y="-33" on="1"/>
        <pt x="634" y="-33" on="0"/>
        <pt x="376" y="76" on="0"/>
        <pt x="201" y="274" on="0"/>
        <pt x="111" y="550" on="0"/>
      </contour>
    </TTGlyph>
    <TTGlyph name="OE" xMin="103" yMin="-24" xMax="1888" yMax="1459">
      <contour>
        <pt x="1038" y="1251" on="1"/>
        <pt x="1030" y="1254" on="0"/>
        <pt x="880" y="1273" on="0"/>
        <pt x="742" y="1273" on="1"/>
        <pt x="646" y="1273" on="0"/>
        <pt x="505" y="1188" on="0"/>
        <pt x="413" y="1038" on="0"/>
        <pt x="367" y="836" on="0"/>
        <pt x="367" y="720" on="1"/>
        <pt x="367" y="604" on="0"/>
        <pt x="411" y="401" on="0"/>
        <pt x="502" y="249" on="0"/>
        <pt x="643" y="162" on="0"/>
        <pt x="741" y="162" on="1"/>
        <pt x="807" y="163" on="0"/>
        <pt x="914" y="170" on="0"/>
        <pt x="990" y="179" on="0"/>
        <pt x="1035" y="187" on="0"/>
        <pt x="1038" y="189" on="1"/>
      </contour>
      <contour>
        <pt x="1294" y="1240" on="1"/>
        <pt x="1294" y="833" on="1"/>
        <pt x="1731" y="833" on="1"/>
        <pt x="1755" y="833" on="0"/>
        <pt x="1792" y="817" on="0"/>
        <pt x="1816" y="788" on="0"/>
        <pt x="1829" y="753" on="0"/>
        <pt x="1829" y="735" on="1"/>
        <pt x="1829" y="717" on="0"/>
        <pt x="1816" y="682" on="0"/>
        <pt x="1792" y="654" on="0"/>
        <pt x="1755" y="638" on="0"/>
        <pt x="1731" y="638" on="1"/>
        <pt x="1294" y="638" on="1"/>
        <pt x="1294" y="196" on="1"/>
        <pt x="1791" y="196" on="1"/>
        <pt x="1815" y="196" on="0"/>
        <pt x="1851" y="178" on="0"/>
        <pt x="1876" y="151" on="0"/>
        <pt x="1888" y="116" on="0"/>
        <pt x="1888" y="97" on="1"/>
        <pt x="1888" y="79" on="0"/>
        <pt x="1876" y="44" on="0"/>
        <pt x="1851" y="16" on="0"/>
        <pt x="1815" y="-1" on="0"/>
        <pt x="1791" y="-1" on="1"/>
        <pt x="1076" y="-1" on="1"/>
        <pt x="1065" y="-1" on="0"/>
        <pt x="987" y="-8" on="0"/>
        <pt x="883" y="-17" on="0"/>
        <pt x="771" y="-24" on="0"/>
        <pt x="726" y="-24" on="1"/>
        <pt x="583" y="-24" on="0"/>
        <pt x="353" y="80" on="0"/>
        <pt x="190" y="272" on="0"/>
        <pt x="103" y="546" on="0"/>
        <pt x="103" y="718" on="1"/>
        <pt x="103" y="890" on="0"/>
        <pt x="190" y="1165" on="0"/>
        <pt x="356" y="1356" on="0"/>
        <pt x="595" y="1459" on="0"/>
        <pt x="745" y="1459" on="1"/>
        <pt x="793" y="1459" on="0"/>
        <pt x="909" y="1452" on="0"/>
        <pt x="1013" y="1443" on="0"/>
        <pt x="1091" y="1437" on="0"/>
        <pt x="1102" y="1437" on="1"/>
        <pt x="1770" y="1437" on="1"/>
        <pt x="1794" y="1437" on="0"/>
        <pt x="1831" y="1419" on="0"/>
        <pt x="1855" y="1392" on="0"/>
        <pt x="1867" y="1357" on="0"/>
        <pt x="1867" y="1339" on="1"/>
        <pt x="1867" y="1320" on="0"/>
        <pt x="1855" y="1285" on="0"/>
        <pt x="1831" y="1257" on="0"/>
        <pt x="1794" y="1240" on="0"/>
        <pt x="1770" y="1240" on="1"/>
      </contour>
    </TTGlyph>
    <TTGlyph name="Oacute" xMin="111" yMin="-33" xMax="1493" yMax="1992">
      <component glyphName="acute" x="501" y="444" flags="0x1004"/>
      <component glyphName="O" x="0" y="0" flags="0x1004"/>
    </TTGlyph>
    <TTGlyph name="Ocircumflex" xMin="111" yMin="-33" xMax="1493" yMax="1999">
      <component glyphName="circumflex" x="519" y="444" flags="0x1004"/>
      <component glyphName="O" x="0" y="0" flags="0x1004"/>
    </TTGlyph>
    <TTGlyph name="Odieresis" xMin="111" yMin="-33" xMax="1493" yMax="1869">
      <component glyphName="dieresis" x="517" y="444" flags="0x1004"/>
      <component glyphName="O" x="0" y="0" flags="0x1004"/>
    </TTGlyph>
    <TTGlyph name="Ograve" xMin="111" yMin="-33" xMax="1493" yMax="1992">
      <component glyphName="O" x="0" y="0" flags="0x1204"/>
      <component glyphName="grave" x="538" y="444" flags="0x1004"/>
    </TTGlyph>
    <TTGlyph name="Oslash" xMin="111" yMin="-158" xMax="1493" yMax="1586">
      <contour>
        <pt x="1191" y="1360" on="1"/>
        <pt x="1340" y="1269" on="0"/>
        <pt x="1493" y="939" on="0"/>
        <pt x="1493" y="718" on="1"/>
        <pt x="1493" y="550" on="0"/>
        <pt x="1404" y="274" on="0"/>
        <pt x="1229" y="76" on="0"/>
        <pt x="971" y="-33" on="0"/>
        <pt x="802" y="-33" on="1"/>
        <pt x="736" y="-33" on="0"/>
        <pt x="618" y="-14" on="0"/>
        <pt x="565" y="3" on="1"/>
        <pt x="508" y="-113" on="1"/>
        <pt x="496" y="-137" on="0"/>
        <pt x="458" y="-158" on="0"/>
        <pt x="438" y="-158" on="1"/>
        <pt x="408" y="-158" on="0"/>
        <pt x="358" y="-117" on="0"/>
        <pt x="358" y="-84" on="1"/>
        <pt x="358" y="-65" on="0"/>
        <pt x="368" y="-45" on="1"/>
        <pt x="424" y="71" on="1"/>
        <pt x="347" y="115" on="0"/>
        <pt x="231" y="245" on="0"/>
        <pt x="151" y="410" on="0"/>
        <pt x="111" y="607" on="0"/>
        <pt x="111" y="718" on="1"/>
        <pt x="111" y="886" on="0"/>
        <pt x="201" y="1163" on="0"/>
        <pt x="376" y="1361" on="0"/>
        <pt x="634" y="1470" on="0"/>
        <pt x="802" y="1470" on="1"/>
        <pt x="871" y="1470" on="0"/>
        <pt x="994" y="1450" on="0"/>
        <pt x="1048" y="1432" on="1"/>
        <pt x="1102" y="1540" on="1"/>
        <pt x="1114" y="1564" on="0"/>
        <pt x="1153" y="1586" on="0"/>
        <pt x="1175" y="1586" on="1"/>
        <pt x="1206" y="1586" on="0"/>
        <pt x="1256" y="1546" on="0"/>
        <pt x="1256" y="1513" on="1"/>
        <pt x="1256" y="1492" on="0"/>
        <pt x="1246" y="1472" on="1"/>
      </contour>
      <contour>
        <pt x="1220" y="718" on="1"/>
        <pt x="1220" y="778" on="0"/>
        <pt x="1200" y="894" on="0"/>
        <pt x="1158" y="999" on="0"/>
        <pt x="1093" y="1087" on="0"/>
        <pt x="1048" y="1118" on="1"/>
        <pt x="669" y="188" on="1"/>
        <pt x="699" y="176" on="0"/>
        <pt x="765" y="165" on="0"/>
        <pt x="802" y="165" on="1"/>
        <pt x="911" y="165" on="0"/>
        <pt x="1069" y="248" on="0"/>
        <pt x="1171" y="395" on="0"/>
        <pt x="1220" y="598" on="0"/>
      </contour>
      <contour>
        <pt x="385" y="718" on="1"/>
        <pt x="385" y="659" on="0"/>
        <pt x="406" y="539" on="0"/>
        <pt x="450" y="430" on="0"/>
        <pt x="518" y="340" on="0"/>
        <pt x="566" y="312" on="1"/>
        <pt x="943" y="1245" on="1"/>
        <pt x="881" y="1272" on="0"/>
        <pt x="802" y="1272" on="1"/>
        <pt x="693" y="1272" on="0"/>
        <pt x="535" y="1188" on="0"/>
        <pt x="433" y="1040" on="0"/>
        <pt x="385" y="837" on="0"/>
      </contour>
    </TTGlyph>
    <TTGlyph name="Otilde" xMin="111" yMin="-33" xMax="1493" yMax="1838">
      <component glyphName="O" x="0" y="0" flags="0x1204"/>
      <component glyphName="tilde" x="525" y="444" flags="0x1004"/>
    </TTGlyph>
    <TTGlyph name="P" xMin="175" yMin="-1" xMax="1273" yMax="1438">
      <contour>
        <pt x="444" y="581" on="1"/>
        <pt x="444" y="128" on="1"/>
        <pt x="444" y="96" on="0"/>
        <pt x="421" y="47" on="0"/>
        <pt x="383" y="15" on="0"/>
        <pt x="334" y="-1" on="0"/>
        <pt x="309" y="-1" on="1"/>
        <pt x="284" y="-1" on="0"/>
        <pt x="236" y="15" on="0"/>
        <pt x="198" y="47" on="0"/>
        <pt x="175" y="96" on="0"/>
        <pt x="175" y="128" on="1"/>
        <pt x="175" y="1305" on="1"/>
        <pt x="175" y="1332" on="0"/>
        <pt x="196" y="1381" on="0"/>
        <pt x="233" y="1417" on="0"/>
        <pt x="282" y="1438" on="0"/>
        <pt x="310" y="1438" on="1"/>
        <pt x="715" y="1438" on="1"/>
        <pt x="827" y="1438" on="0"/>
        <pt x="1030" y="1392" on="0"/>
        <pt x="1183" y="1290" on="0"/>
        <pt x="1273" y="1128" on="0"/>
        <pt x="1273" y="1011" on="1"/>
        <pt x="1273" y="892" on="0"/>
        <pt x="1180" y="728" on="0"/>
        <pt x="1021" y="626" on="0"/>
        <pt x="809" y="581" on="0"/>
        <pt x="691" y="581" on="1"/>
      </contour>
      <contour>
        <pt x="679" y="765" on="1"/>
        <pt x="748" y="765" on="0"/>
        <pt x="867" y="789" on="0"/>
        <pt x="954" y="846" on="0"/>
        <pt x="1004" y="941" on="0"/>
        <pt x="1004" y="1011" on="1"/>
        <pt x="1004" y="1081" on="0"/>
        <pt x="955" y="1174" on="0"/>
        <pt x="870" y="1230" on="0"/>
        <pt x="755" y="1254" on="0"/>
        <pt x="689" y="1254" on="1"/>
        <pt x="444" y="1254" on="1"/>
        <pt x="444" y="765" on="1"/>
      </contour>
    </TTGlyph>
    <TTGlyph name="Q" xMin="111" yMin="-33" xMax="1544" yMax="1470">
      <contour>
        <pt x="111" y="718" on="1"/>
        <pt x="111" y="886" on="0"/>
        <pt x="201" y="1163" on="0"/>
        <pt x="376" y="1361" on="0"/>
        <pt x="634" y="1470" on="0"/>
        <pt x="802" y="1470" on="1"/>
        <pt x="971" y="1470" on="0"/>
        <pt x="1228" y="1363" on="0"/>
        <pt x="1401" y="1167" on="0"/>
        <pt x="1489" y="892" on="0"/>
        <pt x="1489" y="724" on="1"/>
        <pt x="1489" y="640" on="0"/>
        <pt x="1457" y="488" on="0"/>
        <pt x="1398" y="354" on="0"/>
        <pt x="1316" y="238" on="0"/>
        <pt x="1266" y="191" on="1"/>
        <pt x="1448" y="191" on="1"/>
        <pt x="1472" y="191" on="0"/>
        <pt x="1508" y="175" on="0"/>
        <pt x="1532" y="148" on="0"/>
        <pt x="1544" y="115" on="0"/>
        <pt x="1544" y="97" on="1"/>
        <pt x="1544" y="79" on="0"/>
        <pt x="1532" y="45" on="0"/>
        <pt x="1508" y="18" on="0"/>
        <pt x="1472" y="1" on="0"/>
        <pt x="1448" y="0" on="1"/>
        <pt x="1424" y="-1" on="0"/>
        <pt x="1336" y="-4" on="0"/>
        <pt x="1231" y="-6" on="0"/>
        <pt x="1121" y="-8" on="0"/>
        <pt x="1028" y="-9" on="0"/>
        <pt x="965" y="-10" on="0"/>
        <pt x="959" y="-10" on="1"/>
        <pt x="911" y="-21" on="0"/>
        <pt x="838" y="-33" on="0"/>
        <pt x="802" y="-33" on="1"/>
        <pt x="634" y="-33" on="0"/>
        <pt x="376" y="76" on="0"/>
        <pt x="201" y="274" on="0"/>
        <pt x="111" y="550" on="0"/>
      </contour>
      <contour>
        <pt x="394" y="718" on="1"/>
        <pt x="394" y="598" on="0"/>
        <pt x="441" y="395" on="0"/>
        <pt x="541" y="248" on="0"/>
        <pt x="695" y="165" on="0"/>
        <pt x="802" y="165" on="1"/>
        <pt x="909" y="165" on="0"/>
        <pt x="1063" y="248" on="0"/>
        <pt x="1163" y="395" on="0"/>
        <pt x="1211" y="598" on="0"/>
        <pt x="1211" y="718" on="1"/>
        <pt x="1211" y="837" on="0"/>
        <pt x="1164" y="1040" on="0"/>
        <pt x="1064" y="1188" on="0"/>
        <pt x="909" y="1272" on="0"/>
        <pt x="802" y="1272" on="1"/>
        <pt x="695" y="1272" on="0"/>
        <pt x="540" y="1188" on="0"/>
        <pt x="441" y="1040" on="0"/>
        <pt x="394" y="837" on="0"/>
      </contour>
    </TTGlyph>
    <TTGlyph name="R" xMin="179" yMin="2" xMax="1281" yMax="1438">
      <contour>
        <pt x="179" y="1307" on="1"/>
        <pt x="179" y="1334" on="0"/>
        <pt x="200" y="1382" on="0"/>
        <pt x="236" y="1417" on="0"/>
        <pt x="285" y="1438" on="0"/>
        <pt x="312" y="1438" on="1"/>
        <pt x="762" y="1438" on="1"/>
        <pt x="863" y="1438" on="0"/>
        <pt x="1050" y="1406" on="0"/>
        <pt x="1194" y="1323" on="0"/>
        <pt x="1281" y="1181" on="0"/>
        <pt x="1281" y="1071" on="1"/>
        <pt x="1281" y="1011" on="0"/>
        <pt x="1244" y="905" on="0"/>
        <pt x="1169" y="821" on="0"/>
        <pt x="1054" y="761" on="0"/>
        <pt x="975" y="746" on="1"/>
        <pt x="975" y="742" on="1"/>
        <pt x="1050" y="731" on="0"/>
        <pt x="1148" y="683" on="0"/>
        <pt x="1209" y="606" on="0"/>
        <pt x="1239" y="500" on="0"/>
        <pt x="1247" y="433" on="1"/>
        <pt x="1254" y="373" on="0"/>
        <pt x="1264" y="266" on="0"/>
        <pt x="1268" y="225" on="1"/>
        <pt x="1272" y="177" on="0"/>
        <pt x="1275" y="137" on="1"/>
        <pt x="1275" y="125" on="1"/>
        <pt x="1275" y="95" on="0"/>
        <pt x="1252" y="49" on="0"/>
        <pt x="1215" y="18" on="0"/>
        <pt x="1168" y="2" on="0"/>
        <pt x="1143" y="2" on="1"/>
        <pt x="1120" y="2" on="0"/>
        <pt x="1075" y="16" on="0"/>
        <pt x="1038" y="44" on="0"/>
        <pt x="1013" y="88" on="0"/>
        <pt x="1009" y="117" on="1"/>
        <pt x="998" y="224" on="0"/>
        <pt x="984" y="384" on="0"/>
        <pt x="965" y="499" on="0"/>
        <pt x="933" y="573" on="0"/>
        <pt x="876" y="615" on="0"/>
        <pt x="787" y="632" on="0"/>
        <pt x="721" y="632" on="1"/>
        <pt x="444" y="632" on="1"/>
        <pt x="444" y="129" on="1"/>
        <pt x="444" y="97" on="0"/>
        <pt x="421" y="49" on="0"/>
        <pt x="383" y="18" on="0"/>
        <pt x="336" y="2" on="0"/>
        <pt x="311" y="2" on="1"/>
        <pt x="286" y="2" on="0"/>
        <pt x="239" y="18" on="0"/>
        <pt x="202" y="49" on="0"/>
        <pt x="179" y="97" on="0"/>
        <pt x="179" y="129" on="1"/>
      </contour>
      <contour>
        <pt x="658" y="814" on="1"/>
        <pt x="720" y="814" on="0"/>
        <pt x="846" y="827" on="0"/>
        <pt x="948" y="873" on="0"/>
        <pt x="1012" y="961" on="0"/>
        <pt x="1012" y="1037" on="1"/>
        <pt x="1012" y="1112" on="0"/>
        <pt x="956" y="1198" on="0"/>
        <pt x="868" y="1242" on="0"/>
        <pt x="760" y="1254" on="0"/>
        <pt x="709" y="1254" on="1"/>
        <pt x="444" y="1254" on="1"/>
        <pt x="444" y="814" on="1"/>
      </contour>
    </TTGlyph>
    <TTGlyph name="S" xMin="109" yMin="-36" xMax="1225" yMax="1470">
      <contour>
        <pt x="390" y="1077" on="1"/>
        <pt x="390" y="1017" on="0"/>
        <pt x="455" y="937" on="0"/>
        <pt x="563" y="880" on="0"/>
        <pt x="703" y="837" on="0"/>
        <pt x="777" y="815" on="1"/>
        <pt x="872" y="786" on="0"/>
        <pt x="1036" y="718" on="0"/>
        <pt x="1156" y="621" on="0"/>
        <pt x="1225" y="487" on="0"/>
        <pt x="1225" y="393" on="1"/>
        <pt x="1225" y="293" on="0"/>
        <pt x="1143" y="134" on="0"/>
        <pt x="995" y="23" on="0"/>
        <pt x="787" y="-36" on="0"/>
        <pt x="660" y="-36" on="1"/>
        <pt x="565" y="-36" on="0"/>
        <pt x="394" y="-4" on="0"/>
        <pt x="253" y="53" on="0"/>
        <pt x="147" y="130" on="0"/>
        <pt x="117" y="176" on="1"/>
        <pt x="109" y="191" on="0"/>
        <pt x="109" y="210" on="1"/>
        <pt x="109" y="228" on="0"/>
        <pt x="125" y="266" on="0"/>
        <pt x="150" y="297" on="0"/>
        <pt x="181" y="317" on="0"/>
        <pt x="196" y="317" on="1"/>
        <pt x="213" y="317" on="0"/>
        <pt x="248" y="295" on="0"/>
        <pt x="265" y="284" on="1"/>
        <pt x="297" y="263" on="0"/>
        <pt x="380" y="222" on="0"/>
        <pt x="479" y="190" on="0"/>
        <pt x="594" y="170" on="0"/>
        <pt x="658" y="170" on="1"/>
        <pt x="722" y="170" on="0"/>
        <pt x="832" y="194" on="0"/>
        <pt x="913" y="243" on="0"/>
        <pt x="959" y="317" on="0"/>
        <pt x="959" y="368" on="1"/>
        <pt x="959" y="434" on="0"/>
        <pt x="893" y="518" on="0"/>
        <pt x="785" y="577" on="0"/>
        <pt x="647" y="618" on="0"/>
        <pt x="575" y="641" on="1"/>
        <pt x="548" y="650" on="0"/>
        <pt x="474" y="676" on="0"/>
        <pt x="399" y="707" on="0"/>
        <pt x="332" y="740" on="0"/>
        <pt x="311" y="755" on="1"/>
        <pt x="128" y="846" on="0"/>
        <pt x="128" y="1063" on="1"/>
        <pt x="128" y="1159" on="0"/>
        <pt x="211" y="1310" on="0"/>
        <pt x="357" y="1415" on="0"/>
        <pt x="555" y="1470" on="0"/>
        <pt x="671" y="1470" on="1"/>
        <pt x="825" y="1470" on="0"/>
        <pt x="1067" y="1381" on="0"/>
        <pt x="1155" y="1292" on="1"/>
        <pt x="1168" y="1278" on="0"/>
        <pt x="1178" y="1247" on="0"/>
        <pt x="1178" y="1229" on="1"/>
        <pt x="1178" y="1212" on="0"/>
        <pt x="1168" y="1176" on="0"/>
        <pt x="1146" y="1146" on="0"/>
        <pt x="1111" y="1127" on="0"/>
        <pt x="1086" y="1127" on="1"/>
        <pt x="1058" y="1127" on="0"/>
        <pt x="1023" y="1157" on="1"/>
        <pt x="996" y="1176" on="0"/>
        <pt x="924" y="1215" on="0"/>
        <pt x="838" y="1245" on="0"/>
        <pt x="740" y="1264" on="0"/>
        <pt x="686" y="1264" on="1"/>
        <pt x="633" y="1264" on="0"/>
        <pt x="528" y="1243" on="0"/>
        <pt x="443" y="1198" on="0"/>
        <pt x="390" y="1127" on="0"/>
      </contour>
    </TTGlyph>
    <TTGlyph name="Scaron" xMin="109" yMin="-36" xMax="1225" yMax="1991">
      <component glyphName="caron" x="379" y="439" flags="0x1004"/>
      <component glyphName="S" x="0" y="0" flags="0x1004"/>
    </TTGlyph>
    <TTGlyph name="T" xMin="22" yMin="-1" xMax="1172" yMax="1438">
      <contour>
        <pt x="125" y="1236" on="1"/>
        <pt x="99" y="1236" on="0"/>
        <pt x="60" y="1253" on="0"/>
        <pt x="35" y="1281" on="0"/>
        <pt x="22" y="1317" on="0"/>
        <pt x="22" y="1336" on="1"/>
        <pt x="22" y="1355" on="0"/>
        <pt x="35" y="1392" on="0"/>
        <pt x="61" y="1420" on="0"/>
        <pt x="99" y="1438" on="0"/>
        <pt x="125" y="1438" on="1"/>
        <pt x="1070" y="1438" on="1"/>
        <pt x="1095" y="1438" on="0"/>
        <pt x="1133" y="1420" on="0"/>
        <pt x="1159" y="1392" on="0"/>
        <pt x="1172" y="1356" on="0"/>
        <pt x="1172" y="1337" on="1"/>
        <pt x="1172" y="1318" on="0"/>
        <pt x="1159" y="1282" on="0"/>
        <pt x="1134" y="1253" on="0"/>
        <pt x="1095" y="1236" on="0"/>
        <pt x="1070" y="1236" on="1"/>
        <pt x="734" y="1236" on="1"/>
        <pt x="734" y="129" on="1"/>
        <pt x="734" y="97" on="0"/>
        <pt x="711" y="48" on="0"/>
        <pt x="673" y="15" on="0"/>
        <pt x="625" y="-1" on="0"/>
        <pt x="600" y="-1" on="1"/>
        <pt x="575" y="-1" on="0"/>
        <pt x="527" y="15" on="0"/>
        <pt x="489" y="48" on="0"/>
        <pt x="466" y="97" on="0"/>
        <pt x="466" y="129" on="1"/>
        <pt x="466" y="1236" on="1"/>
      </contour>
    </TTGlyph>
    <TTGlyph name="Thorn" xMin="175" yMin="-1" xMax="1273" yMax="1450">
      <contour>
        <pt x="444" y="361" on="1"/>
        <pt x="444" y="128" on="1"/>
        <pt x="444" y="96" on="0"/>
        <pt x="421" y="47" on="0"/>
        <pt x="383" y="15" on="0"/>
        <pt x="334" y="-1" on="0"/>
        <pt x="309" y="-1" on="1"/>
        <pt x="284" y="-1" on="0"/>
        <pt x="236" y="15" on="0"/>
        <pt x="198" y="47" on="0"/>
        <pt x="175" y="96" on="0"/>
        <pt x="175" y="128" on="1"/>
        <pt x="175" y="1322" on="1"/>
        <pt x="175" y="1354" on="0"/>
        <pt x="198" y="1402" on="0"/>
        <pt x="236" y="1434" on="0"/>
        <pt x="284" y="1450" on="0"/>
        <pt x="309" y="1450" on="1"/>
        <pt x="334" y="1450" on="0"/>
        <pt x="383" y="1434" on="0"/>
        <pt x="421" y="1402" on="0"/>
        <pt x="444" y="1354" on="0"/>
        <pt x="444" y="1322" on="1"/>
        <pt x="444" y="1217" on="1"/>
        <pt x="715" y="1217" on="1"/>
        <pt x="827" y="1217" on="0"/>
        <pt x="1030" y="1171" on="0"/>
        <pt x="1183" y="1069" on="0"/>
        <pt x="1273" y="907" on="0"/>
        <pt x="1273" y="791" on="1"/>
        <pt x="1273" y="672" on="0"/>
        <pt x="1180" y="508" on="0"/>
        <pt x="1021" y="406" on="0"/>
        <pt x="809" y="361" on="0"/>
        <pt x="691" y="361" on="1"/>
      </contour>
      <contour>
        <pt x="679" y="544" on="1"/>
        <pt x="748" y="544" on="0"/>
        <pt x="867" y="568" on="0"/>
        <pt x="954" y="626" on="0"/>
        <pt x="1004" y="720" on="0"/>
        <pt x="1004" y="791" on="1"/>
        <pt x="1004" y="861" on="0"/>
        <pt x="955" y="954" on="0"/>
        <pt x="870" y="1010" on="0"/>
        <pt x="755" y="1034" on="0"/>
        <pt x="689" y="1034" on="1"/>
        <pt x="444" y="1034" on="1"/>
        <pt x="444" y="544" on="1"/>
      </contour>
    </TTGlyph>
    <TTGlyph name="U" xMin="168" yMin="-31" xMax="1346" yMax="1437">
      <contour>
        <pt x="168" y="1308" on="1"/>
        <pt x="168" y="1340" on="0"/>
        <pt x="191" y="1389" on="0"/>
        <pt x="228" y="1421" on="0"/>
        <pt x="276" y="1437" on="0"/>
        <pt x="302" y="1437" on="1"/>
        <pt x="327" y="1437" on="0"/>
        <pt x="375" y="1421" on="0"/>
        <pt x="413" y="1389" on="0"/>
        <pt x="436" y="1340" on="0"/>
        <pt x="436" y="1308" on="1"/>
        <pt x="436" y="499" on="1"/>
        <pt x="436" y="414" on="0"/>
        <pt x="491" y="291" on="0"/>
        <pt x="581" y="210" on="0"/>
        <pt x="696" y="171" on="0"/>
        <pt x="756" y="171" on="1"/>
        <pt x="817" y="171" on="0"/>
        <pt x="932" y="210" on="0"/>
        <pt x="1022" y="291" on="0"/>
        <pt x="1077" y="414" on="0"/>
        <pt x="1077" y="499" on="1"/>
        <pt x="1077" y="1308" on="1"/>
        <pt x="1077" y="1340" on="0"/>
        <pt x="1100" y="1389" on="0"/>
        <pt x="1138" y="1421" on="0"/>
        <pt x="1186" y="1437" on="0"/>
        <pt x="1212" y="1437" on="1"/>
        <pt x="1237" y="1437" on="0"/>
        <pt x="1285" y="1421" on="0"/>
        <pt x="1323" y="1389" on="0"/>
        <pt x="1346" y="1340" on="0"/>
        <pt x="1346" y="1308" on="1"/>
        <pt x="1346" y="491" on="1"/>
        <pt x="1346" y="359" on="0"/>
        <pt x="1252" y="163" on="0"/>
        <pt x="1092" y="33" on="0"/>
        <pt x="877" y="-31" on="0"/>
        <pt x="756" y="-31" on="1"/>
        <pt x="635" y="-31" on="0"/>
        <pt x="421" y="33" on="0"/>
        <pt x="261" y="163" on="0"/>
        <pt x="168" y="359" on="0"/>
        <pt x="168" y="491" on="1"/>
      </contour>
    </TTGlyph>
    <TTGlyph name="Uacute" xMin="168" yMin="-31" xMax="1346" yMax="1992">
      <component glyphName="acute" x="456" y="444" flags="0x1004"/>
      <component glyphName="U" x="0" y="0" flags="0x1004"/>
    </TTGlyph>
    <TTGlyph name="Ucircumflex" xMin="168" yMin="-31" xMax="1346" yMax="1999">
      <component glyphName="circumflex" x="474" y="444" flags="0x1004"/>
      <component glyphName="U" x="0" y="0" flags="0x1004"/>
    </TTGlyph>
    <TTGlyph name="Udieresis" xMin="168" yMin="-31" xMax="1346" yMax="1869">
      <component glyphName="dieresis" x="471" y="444" flags="0x1004"/>
      <component glyphName="U" x="0" y="0" flags="0x1004"/>
    </TTGlyph>
    <TTGlyph name="Ugrave" xMin="168" yMin="-31" xMax="1346" yMax="1992">
      <component glyphName="U" x="0" y="0" flags="0x1204"/>
      <component glyphName="grave" x="492" y="444" flags="0x1004"/>
    </TTGlyph>
    <TTGlyph name="V" xMin="49" yMin="0" xMax="1304" yMax="1438">
      <contour>
        <pt x="680" y="208" on="1"/>
        <pt x="684" y="208" on="1"/>
        <pt x="1061" y="1346" on="1"/>
        <pt x="1074" y="1389" on="0"/>
        <pt x="1141" y="1437" on="0"/>
        <pt x="1181" y="1437" on="1"/>
        <pt x="1206" y="1437" on="0"/>
        <pt x="1250" y="1419" on="0"/>
        <pt x="1284" y="1389" on="0"/>
        <pt x="1304" y="1347" on="0"/>
        <pt x="1304" y="1323" on="1"/>
        <pt x="1303" y="1314" on="0"/>
        <pt x="1301" y="1296" on="0"/>
        <pt x="1298" y="1286" on="1"/>
        <pt x="904" y="173" on="1"/>
        <pt x="889" y="125" on="0"/>
        <pt x="846" y="58" on="0"/>
        <pt x="789" y="18" on="0"/>
        <pt x="719" y="0" on="0"/>
        <pt x="677" y="0" on="1"/>
        <pt x="636" y="0" on="0"/>
        <pt x="568" y="16" on="0"/>
        <pt x="512" y="56" on="0"/>
        <pt x="469" y="123" on="0"/>
        <pt x="453" y="173" on="1"/>
        <pt x="55" y="1281" on="1"/>
        <pt x="49" y="1299" on="0"/>
        <pt x="49" y="1318" on="1"/>
        <pt x="49" y="1343" on="0"/>
        <pt x="70" y="1387" on="0"/>
        <pt x="106" y="1419" on="0"/>
        <pt x="153" y="1438" on="0"/>
        <pt x="179" y="1438" on="1"/>
        <pt x="219" y="1438" on="0"/>
        <pt x="284" y="1391" on="0"/>
        <pt x="297" y="1349" on="1"/>
      </contour>
    </TTGlyph>
    <TTGlyph name="W" xMin="36" yMin="-4" xMax="2038" yMax="1439">
      <contour>
        <pt x="1033" y="1191" on="1"/>
        <pt x="725" y="150" on="1"/>
        <pt x="717" y="114" on="0"/>
        <pt x="677" y="59" on="0"/>
        <pt x="621" y="20" on="0"/>
        <pt x="556" y="0" on="0"/>
        <pt x="522" y="0" on="1"/>
        <pt x="491" y="0" on="0"/>
        <pt x="432" y="18" on="0"/>
        <pt x="382" y="54" on="0"/>
        <pt x="344" y="111" on="0"/>
        <pt x="335" y="150" on="1"/>
        <pt x="40" y="1287" on="1"/>
        <pt x="36" y="1302" on="0"/>
        <pt x="36" y="1319" on="1"/>
        <pt x="36" y="1346" on="0"/>
        <pt x="60" y="1389" on="0"/>
        <pt x="97" y="1419" on="0"/>
        <pt x="145" y="1436" on="0"/>
        <pt x="169" y="1436" on="1"/>
        <pt x="206" y="1436" on="0"/>
        <pt x="267" y="1395" on="0"/>
        <pt x="276" y="1349" on="1"/>
        <pt x="542" y="235" on="1"/>
        <pt x="859" y="1295" on="1"/>
        <pt x="867" y="1331" on="0"/>
        <pt x="902" y="1385" on="0"/>
        <pt x="949" y="1421" on="0"/>
        <pt x="1005" y="1439" on="0"/>
        <pt x="1034" y="1439" on="1"/>
        <pt x="1063" y="1439" on="0"/>
        <pt x="1119" y="1421" on="0"/>
        <pt x="1167" y="1385" on="0"/>
        <pt x="1203" y="1331" on="0"/>
        <pt x="1211" y="1295" on="1"/>
        <pt x="1540" y="237" on="1"/>
        <pt x="1803" y="1347" on="1"/>
        <pt x="1812" y="1395" on="0"/>
        <pt x="1875" y="1438" on="0"/>
        <pt x="1912" y="1438" on="1"/>
        <pt x="1935" y="1438" on="0"/>
        <pt x="1980" y="1422" on="0"/>
        <pt x="2016" y="1393" on="0"/>
        <pt x="2038" y="1352" on="0"/>
        <pt x="2038" y="1326" on="1"/>
        <pt x="2038" y="1310" on="0"/>
        <pt x="2034" y="1295" on="1"/>
        <pt x="1735" y="150" on="1"/>
        <pt x="1726" y="112" on="0"/>
        <pt x="1686" y="55" on="0"/>
        <pt x="1633" y="16" on="0"/>
        <pt x="1570" y="-4" on="0"/>
        <pt x="1538" y="-4" on="1"/>
        <pt x="1506" y="-4" on="0"/>
        <pt x="1445" y="15" on="0"/>
        <pt x="1393" y="54" on="0"/>
        <pt x="1355" y="111" on="0"/>
        <pt x="1346" y="150" on="1"/>
      </contour>
    </TTGlyph>
    <TTGlyph name="X" xMin="64" yMin="-2" xMax="1254" yMax="1438">
      <contour>
        <pt x="291" y="62" on="1"/>
        <pt x="268" y="28" on="0"/>
        <pt x="211" y="-2" on="0"/>
        <pt x="182" y="-1" on="1"/>
        <pt x="159" y="-1" on="0"/>
        <pt x="116" y="16" on="0"/>
        <pt x="83" y="46" on="0"/>
        <pt x="64" y="85" on="0"/>
        <pt x="64" y="107" on="1"/>
        <pt x="64" y="139" on="0"/>
        <pt x="87" y="171" on="1"/>
        <pt x="502" y="739" on="1"/>
        <pt x="115" y="1264" on="1"/>
        <pt x="94" y="1292" on="0"/>
        <pt x="94" y="1323" on="1"/>
        <pt x="94" y="1346" on="0"/>
        <pt x="116" y="1388" on="0"/>
        <pt x="154" y="1419" on="0"/>
        <pt x="202" y="1438" on="0"/>
        <pt x="228" y="1438" on="1"/>
        <pt x="260" y="1438" on="0"/>
        <pt x="320" y="1407" on="0"/>
        <pt x="343" y="1372" on="1"/>
        <pt x="675" y="889" on="1"/>
        <pt x="1016" y="1372" on="1"/>
        <pt x="1039" y="1407" on="0"/>
        <pt x="1097" y="1437" on="0"/>
        <pt x="1126" y="1437" on="1"/>
        <pt x="1149" y="1437" on="0"/>
        <pt x="1191" y="1420" on="0"/>
        <pt x="1224" y="1391" on="0"/>
        <pt x="1243" y="1353" on="0"/>
        <pt x="1243" y="1331" on="1"/>
        <pt x="1243" y="1316" on="0"/>
        <pt x="1232" y="1284" on="0"/>
        <pt x="1220" y="1268" on="1"/>
        <pt x="825" y="739" on="1"/>
        <pt x="1233" y="177" on="1"/>
        <pt x="1254" y="147" on="0"/>
        <pt x="1254" y="117" on="1"/>
        <pt x="1254" y="93" on="0"/>
        <pt x="1231" y="51" on="0"/>
        <pt x="1193" y="19" on="0"/>
        <pt x="1144" y="0" on="0"/>
        <pt x="1119" y="0" on="1"/>
        <pt x="1089" y="0" on="0"/>
        <pt x="1032" y="29" on="0"/>
        <pt x="1010" y="63" on="1"/>
        <pt x="653" y="581" on="1"/>
      </contour>
    </TTGlyph>
    <TTGlyph name="Y" xMin="83" yMin="-1" xMax="1257" yMax="1436">
      <contour>
        <pt x="801" y="586" on="1"/>
        <pt x="801" y="129" on="1"/>
        <pt x="801" y="97" on="0"/>
        <pt x="778" y="48" on="0"/>
        <pt x="740" y="15" on="0"/>
        <pt x="691" y="-1" on="0"/>
        <pt x="666" y="-1" on="1"/>
        <pt x="641" y="-1" on="0"/>
        <pt x="593" y="15" on="0"/>
        <pt x="555" y="48" on="0"/>
        <pt x="532" y="97" on="0"/>
        <pt x="532" y="129" on="1"/>
        <pt x="532" y="581" on="1"/>
        <pt x="98" y="1271" on="1"/>
        <pt x="90" y="1285" on="0"/>
        <pt x="84" y="1311" on="0"/>
        <pt x="83" y="1323" on="1"/>
        <pt x="83" y="1347" on="0"/>
        <pt x="107" y="1389" on="0"/>
        <pt x="147" y="1419" on="0"/>
        <pt x="197" y="1436" on="0"/>
        <pt x="223" y="1436" on="1"/>
        <pt x="257" y="1436" on="0"/>
        <pt x="317" y="1403" on="0"/>
        <pt x="334" y="1366" on="1"/>
        <pt x="679" y="771" on="1"/>
        <pt x="683" y="771" on="1"/>
        <pt x="1031" y="1371" on="1"/>
        <pt x="1047" y="1406" on="0"/>
        <pt x="1103" y="1436" on="0"/>
        <pt x="1135" y="1436" on="1"/>
        <pt x="1158" y="1436" on="0"/>
        <pt x="1202" y="1422" on="0"/>
        <pt x="1236" y="1396" on="0"/>
        <pt x="1257" y="1360" on="0"/>
        <pt x="1257" y="1338" on="1"/>
        <pt x="1257" y="1327" on="0"/>
        <pt x="1251" y="1301" on="0"/>
        <pt x="1243" y="1288" on="1"/>
      </contour>
    </TTGlyph>
    <TTGlyph name="Yacute" xMin="83" yMin="-1" xMax="1257" yMax="1987">
      <component glyphName="Y" x="0" y="0" flags="0x1204"/>
      <component glyphName="acute" x="355" y="439" flags="0x1004"/>
    </TTGlyph>
    <TTGlyph name="Ydieresis" xMin="83" yMin="-1" xMax="1257" yMax="1869">
      <component glyphName="Y" x="0" y="0" flags="0x1204"/>
      <component glyphName="dieresis" x="380" y="444" flags="0x1004"/>
    </TTGlyph>
    <TTGlyph name="Z" xMin="64" yMin="0" xMax="1152" yMax="1438">
      <contour>
        <pt x="192" y="0" on="1"/>
        <pt x="159" y="0" on="0"/>
        <pt x="111" y="18" on="0"/>
        <pt x="79" y="48" on="0"/>
        <pt x="64" y="88" on="0"/>
        <pt x="64" y="109" on="1"/>
        <pt x="64" y="150" on="0"/>
        <pt x="90" y="187" on="1"/>
        <pt x="826" y="1240" on="1"/>
        <pt x="176" y="1240" on="1"/>
        <pt x="151" y="1240" on="0"/>
        <pt x="114" y="1257" on="0"/>
        <pt x="89" y="1285" on="0"/>
        <pt x="77" y="1321" on="0"/>
        <pt x="77" y="1339" on="1"/>
        <pt x="77" y="1358" on="0"/>
        <pt x="89" y="1393" on="0"/>
        <pt x="114" y="1421" on="0"/>
        <pt x="151" y="1438" on="0"/>
        <pt x="176" y="1438" on="1"/>
        <pt x="1037" y="1438" on="1"/>
        <pt x="1090" y="1438" on="0"/>
        <pt x="1152" y="1376" on="0"/>
        <pt x="1152" y="1332" on="1"/>
        <pt x="1152" y="1312" on="0"/>
        <pt x="1139" y="1272" on="0"/>
        <pt x="1125" y="1252" on="1"/>
        <pt x="385" y="198" on="1"/>
        <pt x="1047" y="198" on="1"/>
        <pt x="1072" y="198" on="0"/>
        <pt x="1109" y="181" on="0"/>
        <pt x="1134" y="153" on="0"/>
        <pt x="1146" y="118" on="0"/>
        <pt x="1146" y="99" on="1"/>
        <pt x="1146" y="81" on="0"/>
        <pt x="1134" y="45" on="0"/>
        <pt x="1109" y="17" on="0"/>
        <pt x="1072" y="0" on="0"/>
        <pt x="1047" y="0" on="1"/>
      </contour>
    </TTGlyph>
    <TTGlyph name="Zcaron" xMin="64" yMin="0" xMax="1152" yMax="1991">
      <component glyphName="caron" x="328" y="439" flags="0x1004"/>
      <component glyphName="Z" x="0" y="0" flags="0x1004"/>
    </TTGlyph>
    <TTGlyph name="a" xMin="62" yMin="-12" xMax="946" yMax="1013">
      <contour>
        <pt x="726" y="666" on="1"/>
        <pt x="726" y="717" on="0"/>
        <pt x="697" y="785" on="0"/>
        <pt x="645" y="827" on="0"/>
        <pt x="572" y="845" on="0"/>
        <pt x="528" y="845" on="1"/>
        <pt x="478" y="845" on="0"/>
        <pt x="396" y="834" on="0"/>
        <pt x="325" y="814" on="0"/>
        <pt x="263" y="789" on="0"/>
        <pt x="233" y="775" on="1"/>
        <pt x="218" y="769" on="0"/>
        <pt x="203" y="769" on="1"/>
        <pt x="189" y="769" on="0"/>
        <pt x="164" y="780" on="0"/>
        <pt x="145" y="799" on="0"/>
        <pt x="134" y="824" on="0"/>
        <pt x="134" y="837" on="1"/>
        <pt x="134" y="848" on="0"/>
        <pt x="141" y="865" on="0"/>
        <pt x="148" y="876" on="1"/>
        <pt x="196" y="948" on="0"/>
        <pt x="398" y="1013" on="0"/>
        <pt x="541" y="1013" on="1"/>
        <pt x="628" y="1013" on="0"/>
        <pt x="777" y="973" on="0"/>
        <pt x="885" y="886" on="0"/>
        <pt x="946" y="747" on="0"/>
        <pt x="946" y="648" on="1"/>
        <pt x="946" y="103" on="1"/>
        <pt x="945" y="77" on="0"/>
        <pt x="926" y="39" on="0"/>
        <pt x="895" y="13" on="0"/>
        <pt x="856" y="0" on="0"/>
        <pt x="836" y="0" on="1"/>
        <pt x="817" y="0" on="0"/>
        <pt x="780" y="12" on="0"/>
        <pt x="751" y="36" on="0"/>
        <pt x="733" y="72" on="0"/>
        <pt x="732" y="96" on="1"/>
        <pt x="732" y="171" on="1"/>
        <pt x="711" y="135" on="0"/>
        <pt x="642" y="62" on="0"/>
        <pt x="553" y="13" on="0"/>
        <pt x="453" y="-12" on="0"/>
        <pt x="402" y="-12" on="1"/>
        <pt x="330" y="-12" on="0"/>
        <pt x="205" y="28" on="0"/>
        <pt x="114" y="104" on="0"/>
        <pt x="62" y="216" on="0"/>
        <pt x="62" y="275" on="1"/>
        <pt x="62" y="367" on="0"/>
        <pt x="141" y="496" on="0"/>
        <pt x="288" y="577" on="0"/>
        <pt x="496" y="613" on="0"/>
        <pt x="625" y="613" on="1"/>
        <pt x="645" y="613" on="0"/>
        <pt x="704" y="612" on="0"/>
        <pt x="726" y="611" on="1"/>
      </contour>
      <contour>
        <pt x="725" y="480" on="1"/>
        <pt x="717" y="480" on="0"/>
        <pt x="694" y="479" on="0"/>
        <pt x="669" y="479" on="0"/>
        <pt x="644" y="479" on="0"/>
        <pt x="634" y="479" on="1"/>
        <pt x="571" y="479" on="0"/>
        <pt x="445" y="465" on="0"/>
        <pt x="344" y="424" on="0"/>
        <pt x="281" y="349" on="0"/>
        <pt x="281" y="289" on="1"/>
        <pt x="281" y="259" on="0"/>
        <pt x="311" y="195" on="0"/>
        <pt x="362" y="153" on="0"/>
        <pt x="432" y="132" on="0"/>
        <pt x="472" y="131" on="1"/>
        <pt x="525" y="132" on="0"/>
        <pt x="616" y="168" on="0"/>
        <pt x="684" y="239" on="0"/>
        <pt x="723" y="331" on="0"/>
        <pt x="725" y="400" on="1"/>
      </contour>
    </TTGlyph>
    <TTGlyph name="aacute" xMin="62" yMin="-12" xMax="946" yMax="1548">
      <component glyphName="a" x="0" y="0" flags="0x1204"/>
      <component glyphName="acute" x="248" y="0" flags="0x1004"/>
    </TTGlyph>
    <TTGlyph name="acircumflex" xMin="62" yMin="-12" xMax="946" yMax="1555">
      <component glyphName="a" x="0" y="0" flags="0x1204"/>
      <component glyphName="circumflex" x="255" y="0" flags="0x1004"/>
    </TTGlyph>
    <TTGlyph name="acute" xMin="71" yMin="1110" xMax="513" yMax="1548">
      <contour>
        <pt x="171" y="1129" on="1"/>
        <pt x="148" y="1110" on="0"/>
        <pt x="124" y="1110" on="1"/>
        <pt x="101" y="1110" on="0"/>
        <pt x="71" y="1141" on="0"/>
        <pt x="71" y="1163" on="1"/>
        <pt x="71" y="1180" on="0"/>
        <pt x="82" y="1197" on="1"/>
        <pt x="334" y="1511" on="1"/>
        <pt x="348" y="1531" on="0"/>
        <pt x="383" y="1548" on="0"/>
        <pt x="401" y="1548" on="1"/>
        <pt x="422" y="1548" on="0"/>
        <pt x="462" y="1530" on="0"/>
        <pt x="493" y="1500" on="0"/>
        <pt x="513" y="1461" on="0"/>
        <pt x="513" y="1441" on="1"/>
        <pt x="513" y="1410" on="0"/>
        <pt x="487" y="1384" on="1"/>
      </contour>
    </TTGlyph>
    <TTGlyph name="adieresis" xMin="62" yMin="-12" xMax="946" yMax="1425">
      <component glyphName="a" x="0" y="0" flags="0x1204"/>
      <component glyphName="dieresis" x="255" y="0" flags="0x1004"/>
    </TTGlyph>
    <TTGlyph name="ae" xMin="62" yMin="-24" xMax="1637" yMax="1027">
      <contour>
        <pt x="726" y="679" on="1"/>
        <pt x="726" y="730" on="0"/>
        <pt x="698" y="798" on="0"/>
        <pt x="646" y="840" on="0"/>
        <pt x="573" y="858" on="0"/>
        <pt x="528" y="858" on="1"/>
        <pt x="478" y="858" on="0"/>
        <pt x="396" y="845" on="0"/>
        <pt x="325" y="824" on="0"/>
        <pt x="263" y="797" on="0"/>
        <pt x="233" y="782" on="1"/>
        <pt x="219" y="775" on="0"/>
        <pt x="203" y="775" on="1"/>
        <pt x="174" y="775" on="0"/>
        <pt x="134" y="818" on="0"/>
        <pt x="134" y="845" on="1"/>
        <pt x="134" y="864" on="0"/>
        <pt x="148" y="884" on="1"/>
        <pt x="196" y="956" on="0"/>
        <pt x="398" y="1026" on="0"/>
        <pt x="541" y="1026" on="1"/>
        <pt x="657" y="1026" on="0"/>
        <pt x="819" y="948" on="0"/>
        <pt x="860" y="863" on="1"/>
        <pt x="918" y="938" on="0"/>
        <pt x="1086" y="1027" on="0"/>
        <pt x="1195" y="1027" on="1"/>
        <pt x="1307" y="1027" on="0"/>
        <pt x="1471" y="952" on="0"/>
        <pt x="1580" y="819" on="0"/>
        <pt x="1635" y="636" on="0"/>
        <pt x="1637" y="529" on="1"/>
        <pt x="1637" y="502" on="0"/>
        <pt x="1602" y="457" on="0"/>
        <pt x="1566" y="457" on="1"/>
        <pt x="955" y="457" on="1"/>
        <pt x="956" y="389" on="0"/>
        <pt x="985" y="274" on="0"/>
        <pt x="1050" y="190" on="0"/>
        <pt x="1153" y="142" on="0"/>
        <pt x="1228" y="142" on="1"/>
        <pt x="1268" y="142" on="0"/>
        <pt x="1344" y="158" on="0"/>
        <pt x="1412" y="182" on="0"/>
        <pt x="1473" y="212" on="0"/>
        <pt x="1500" y="226" on="1"/>
        <pt x="1510" y="231" on="0"/>
        <pt x="1527" y="236" on="0"/>
        <pt x="1535" y="236" on="1"/>
        <pt x="1561" y="236" on="0"/>
        <pt x="1594" y="195" on="0"/>
        <pt x="1594" y="168" on="1"/>
        <pt x="1594" y="127" on="0"/>
        <pt x="1523" y="57" on="0"/>
        <pt x="1406" y="6" on="0"/>
        <pt x="1258" y="-24" on="0"/>
        <pt x="1180" y="-24" on="1"/>
        <pt x="1057" y="-24" on="0"/>
        <pt x="880" y="87" on="0"/>
        <pt x="826" y="180" on="1"/>
        <pt x="798" y="126" on="0"/>
        <pt x="714" y="49" on="0"/>
        <pt x="609" y="0" on="0"/>
        <pt x="489" y="-24" on="0"/>
        <pt x="426" y="-24" on="1"/>
        <pt x="345" y="-24" on="0"/>
        <pt x="211" y="16" on="0"/>
        <pt x="115" y="92" on="0"/>
        <pt x="62" y="204" on="0"/>
        <pt x="62" y="275" on="1"/>
        <pt x="62" y="367" on="0"/>
        <pt x="141" y="496" on="0"/>
        <pt x="288" y="577" on="0"/>
        <pt x="496" y="613" on="0"/>
        <pt x="625" y="613" on="1"/>
        <pt x="645" y="613" on="0"/>
        <pt x="704" y="612" on="0"/>
        <pt x="726" y="611" on="1"/>
      </contour>
      <contour>
        <pt x="1429" y="588" on="1"/>
        <pt x="1425" y="654" on="0"/>
        <pt x="1393" y="761" on="0"/>
        <pt x="1336" y="837" on="0"/>
        <pt x="1252" y="878" on="0"/>
        <pt x="1197" y="878" on="1"/>
        <pt x="1141" y="878" on="0"/>
        <pt x="1055" y="833" on="0"/>
        <pt x="995" y="755" on="0"/>
        <pt x="960" y="649" on="0"/>
        <pt x="956" y="588" on="1"/>
      </contour>
      <contour>
        <pt x="725" y="480" on="1"/>
        <pt x="717" y="480" on="0"/>
        <pt x="694" y="479" on="0"/>
        <pt x="669" y="479" on="0"/>
        <pt x="644" y="479" on="0"/>
        <pt x="634" y="479" on="1"/>
        <pt x="571" y="479" on="0"/>
        <pt x="445" y="465" on="0"/>
        <pt x="344" y="424" on="0"/>
        <pt x="281" y="349" on="0"/>
        <pt x="281" y="289" on="1"/>
        <pt x="281" y="247" on="0"/>
        <pt x="311" y="183" on="0"/>
        <pt x="362" y="141" on="0"/>
        <pt x="432" y="120" on="0"/>
        <pt x="472" y="119" on="1"/>
        <pt x="525" y="120" on="0"/>
        <pt x="616" y="156" on="0"/>
        <pt x="684" y="227" on="0"/>
        <pt x="723" y="331" on="0"/>
        <pt x="725" y="400" on="1"/>
      </contour>
    </TTGlyph>
    <TTGlyph name="agrave" xMin="62" yMin="-12" xMax="946" yMax="1548">
      <component glyphName="a" x="0" y="0" flags="0x1204"/>
      <component glyphName="grave" x="266" y="0" flags="0x1004"/>
    </TTGlyph>
    <TTGlyph name="ampersand" xMin="89" yMin="-25" xMax="1451" yMax="1510">
      <contour>
        <pt x="1254" y="854" on="1"/>
        <pt x="1262" y="886" on="0"/>
        <pt x="1309" y="915" on="0"/>
        <pt x="1338" y="915" on="1"/>
        <pt x="1357" y="915" on="0"/>
        <pt x="1395" y="903" on="0"/>
        <pt x="1425" y="879" on="0"/>
        <pt x="1443" y="844" on="0"/>
        <pt x="1443" y="822" on="1"/>
        <pt x="1443" y="807" on="0"/>
        <pt x="1439" y="792" on="1"/>
        <pt x="1432" y="744" on="0"/>
        <pt x="1410" y="624" on="0"/>
        <pt x="1376" y="495" on="0"/>
        <pt x="1325" y="365" on="0"/>
        <pt x="1289" y="309" on="1"/>
        <pt x="1421" y="167" on="1"/>
        <pt x="1437" y="150" on="0"/>
        <pt x="1451" y="113" on="0"/>
        <pt x="1451" y="95" on="1"/>
        <pt x="1451" y="73" on="0"/>
        <pt x="1432" y="32" on="0"/>
        <pt x="1401" y="1" on="0"/>
        <pt x="1360" y="-18" on="0"/>
        <pt x="1338" y="-18" on="1"/>
        <pt x="1319" y="-18" on="0"/>
        <pt x="1278" y="-3" on="0"/>
        <pt x="1261" y="17" on="1"/>
        <pt x="1126" y="164" on="1"/>
        <pt x="1040" y="74" on="0"/>
        <pt x="811" y="-25" on="0"/>
        <pt x="665" y="-25" on="1"/>
        <pt x="551" y="-25" on="0"/>
        <pt x="342" y="30" on="0"/>
        <pt x="183" y="139" on="0"/>
        <pt x="89" y="300" on="0"/>
        <pt x="89" y="407" on="1"/>
        <pt x="89" y="486" on="0"/>
        <pt x="149" y="613" on="0"/>
        <pt x="251" y="719" on="0"/>
        <pt x="385" y="808" on="0"/>
        <pt x="460" y="850" on="1"/>
        <pt x="420" y="889" on="0"/>
        <pt x="345" y="972" on="0"/>
        <pt x="287" y="1062" on="0"/>
        <pt x="252" y="1160" on="0"/>
        <pt x="252" y="1213" on="1"/>
        <pt x="252" y="1289" on="0"/>
        <pt x="321" y="1400" on="0"/>
        <pt x="435" y="1474" on="0"/>
        <pt x="580" y="1510" on="0"/>
        <pt x="655" y="1510" on="1"/>
        <pt x="730" y="1510" on="0"/>
        <pt x="876" y="1476" on="0"/>
        <pt x="991" y="1405" on="0"/>
        <pt x="1062" y="1297" on="0"/>
        <pt x="1062" y="1224" on="1"/>
        <pt x="1062" y="1163" on="0"/>
        <pt x="1018" y="1055" on="0"/>
        <pt x="943" y="957" on="0"/>
        <pt x="842" y="870" on="0"/>
        <pt x="785" y="830" on="1"/>
        <pt x="1144" y="451" on="1"/>
        <pt x="1167" y="494" on="0"/>
        <pt x="1204" y="595" on="0"/>
        <pt x="1232" y="700" on="0"/>
        <pt x="1250" y="806" on="0"/>
      </contour>
      <contour>
        <pt x="601" y="714" on="1"/>
        <pt x="563" y="694" on="0"/>
        <pt x="472" y="629" on="0"/>
        <pt x="391" y="550" on="0"/>
        <pt x="337" y="464" on="0"/>
        <pt x="337" y="424" on="1"/>
        <pt x="337" y="357" on="0"/>
        <pt x="391" y="253" on="0"/>
        <pt x="481" y="182" on="0"/>
        <pt x="599" y="145" on="0"/>
        <pt x="663" y="145" on="1"/>
        <pt x="765" y="145" on="0"/>
        <pt x="924" y="225" on="0"/>
        <pt x="998" y="293" on="1"/>
      </contour>
      <contour>
        <pt x="490" y="1213" on="1"/>
        <pt x="490" y="1181" on="0"/>
        <pt x="517" y="1112" on="0"/>
        <pt x="560" y="1045" on="0"/>
        <pt x="615" y="982" on="0"/>
        <pt x="643" y="956" on="1"/>
        <pt x="675" y="984" on="0"/>
        <pt x="741" y="1043" on="0"/>
        <pt x="794" y="1106" on="0"/>
        <pt x="828" y="1175" on="0"/>
        <pt x="828" y="1213" on="1"/>
        <pt x="828" y="1247" on="0"/>
        <pt x="799" y="1297" on="0"/>
        <pt x="753" y="1330" on="0"/>
        <pt x="692" y="1346" on="0"/>
        <pt x="661" y="1346" on="1"/>
        <pt x="628" y="1346" on="0"/>
        <pt x="567" y="1331" on="0"/>
        <pt x="519" y="1299" on="0"/>
        <pt x="490" y="1249" on="0"/>
      </contour>
    </TTGlyph>
    <TTGlyph name="aring" xMin="62" yMin="-12" xMax="946" yMax="1513">
      <component glyphName="a" x="0" y="0" flags="0x1204"/>
      <component glyphName="ring" x="255" y="0" flags="0x1004"/>
    </TTGlyph>
    <TTGlyph name="asciicircum" xMin="190" yMin="545" xMax="1121" yMax="1421">
      <contour>
        <pt x="656" y="1224" on="1"/>
        <pt x="343" y="593" on="1"/>
        <pt x="330" y="567" on="0"/>
        <pt x="293" y="545" on="0"/>
        <pt x="272" y="545" on="1"/>
        <pt x="257" y="545" on="0"/>
        <pt x="227" y="556" on="0"/>
        <pt x="204" y="577" on="0"/>
        <pt x="190" y="604" on="0"/>
        <pt x="190" y="621" on="1"/>
        <pt x="191" y="629" on="0"/>
        <pt x="193" y="646" on="0"/>
        <pt x="198" y="655" on="1"/>
        <pt x="555" y="1355" on="1"/>
        <pt x="572" y="1387" on="0"/>
        <pt x="626" y="1421" on="0"/>
        <pt x="657" y="1421" on="1"/>
        <pt x="687" y="1421" on="0"/>
        <pt x="741" y="1388" on="0"/>
        <pt x="758" y="1355" on="1"/>
        <pt x="1113" y="655" on="1"/>
        <pt x="1118" y="646" on="0"/>
        <pt x="1121" y="629" on="0"/>
        <pt x="1121" y="621" on="1"/>
        <pt x="1121" y="605" on="0"/>
        <pt x="1107" y="578" on="0"/>
        <pt x="1085" y="558" on="0"/>
        <pt x="1055" y="547" on="0"/>
        <pt x="1040" y="547" on="1"/>
        <pt x="1020" y="547" on="0"/>
        <pt x="981" y="568" on="0"/>
        <pt x="967" y="593" on="1"/>
      </contour>
    </TTGlyph>
    <TTGlyph name="asciitilde" xMin="326" yMin="1158" xMax="962" yMax="1389">
      <contour>
        <pt x="782" y="1304" on="1"/>
        <pt x="802" y="1304" on="0"/>
        <pt x="830" y="1328" on="0"/>
        <pt x="842" y="1349" on="1"/>
        <pt x="855" y="1371" on="0"/>
        <pt x="886" y="1389" on="0"/>
        <pt x="902" y="1389" on="1"/>
        <pt x="925" y="1389" on="0"/>
        <pt x="962" y="1354" on="0"/>
        <pt x="962" y="1330" on="1"/>
        <pt x="962" y="1325" on="0"/>
        <pt x="960" y="1315" on="1"/>
        <pt x="943" y="1240" on="0"/>
        <pt x="855" y="1158" on="0"/>
        <pt x="778" y="1158" on="1"/>
        <pt x="741" y="1158" on="0"/>
        <pt x="670" y="1185" on="0"/>
        <pt x="603" y="1217" on="0"/>
        <pt x="543" y="1244" on="0"/>
        <pt x="518" y="1244" on="1"/>
        <pt x="495" y="1244" on="0"/>
        <pt x="459" y="1218" on="0"/>
        <pt x="442" y="1194" on="1"/>
        <pt x="420" y="1162" on="0"/>
        <pt x="386" y="1162" on="1"/>
        <pt x="363" y="1162" on="0"/>
        <pt x="326" y="1193" on="0"/>
        <pt x="326" y="1218" on="1"/>
        <pt x="326" y="1226" on="0"/>
        <pt x="329" y="1237" on="1"/>
        <pt x="349" y="1312" on="0"/>
        <pt x="439" y="1389" on="0"/>
        <pt x="512" y="1389" on="1"/>
        <pt x="554" y="1389" on="0"/>
        <pt x="631" y="1362" on="0"/>
        <pt x="699" y="1331" on="0"/>
        <pt x="758" y="1304" on="0"/>
      </contour>
    </TTGlyph>
    <TTGlyph name="asterisk" xMin="127" yMin="763" xMax="909" yMax="1439">
      <contour>
        <pt x="629" y="1160" on="1"/>
        <pt x="841" y="1167" on="1"/>
        <pt x="870" y="1167" on="0"/>
        <pt x="909" y="1129" on="0"/>
        <pt x="909" y="1100" on="1"/>
        <pt x="909" y="1073" on="0"/>
        <pt x="870" y="1034" on="0"/>
        <pt x="841" y="1034" on="1"/>
        <pt x="627" y="1041" on="1"/>
        <pt x="737" y="863" on="1"/>
        <pt x="742" y="855" on="0"/>
        <pt x="746" y="836" on="0"/>
        <pt x="746" y="828" on="1"/>
        <pt x="746" y="804" on="0"/>
        <pt x="709" y="763" on="0"/>
        <pt x="678" y="763" on="1"/>
        <pt x="661" y="763" on="0"/>
        <pt x="629" y="780" on="0"/>
        <pt x="620" y="796" on="1"/>
        <pt x="516" y="982" on="1"/>
        <pt x="414" y="796" on="1"/>
        <pt x="405" y="780" on="0"/>
        <pt x="372" y="763" on="0"/>
        <pt x="355" y="763" on="1"/>
        <pt x="325" y="763" on="0"/>
        <pt x="287" y="804" on="0"/>
        <pt x="287" y="828" on="1"/>
        <pt x="287" y="847" on="0"/>
        <pt x="297" y="863" on="1"/>
        <pt x="407" y="1041" on="1"/>
        <pt x="195" y="1034" on="1"/>
        <pt x="167" y="1034" on="0"/>
        <pt x="127" y="1073" on="0"/>
        <pt x="127" y="1100" on="1"/>
        <pt x="127" y="1129" on="0"/>
        <pt x="166" y="1167" on="0"/>
        <pt x="195" y="1167" on="1"/>
        <pt x="405" y="1160" on="1"/>
        <pt x="295" y="1338" on="1"/>
        <pt x="285" y="1354" on="0"/>
        <pt x="285" y="1372" on="1"/>
        <pt x="285" y="1398" on="0"/>
        <pt x="324" y="1439" on="0"/>
        <pt x="353" y="1439" on="1"/>
        <pt x="371" y="1439" on="0"/>
        <pt x="402" y="1421" on="0"/>
        <pt x="413" y="1405" on="1"/>
        <pt x="516" y="1214" on="1"/>
        <pt x="621" y="1405" on="1"/>
        <pt x="630" y="1422" on="0"/>
        <pt x="663" y="1438" on="0"/>
        <pt x="681" y="1439" on="1"/>
        <pt x="710" y="1439" on="0"/>
        <pt x="748" y="1398" on="0"/>
        <pt x="748" y="1372" on="1"/>
        <pt x="748" y="1354" on="0"/>
        <pt x="739" y="1338" on="1"/>
      </contour>
    </TTGlyph>
    <TTGlyph name="at" xMin="50" yMin="-27" xMax="1560" yMax="1511">
      <contour>
        <pt x="562" y="623" on="1"/>
        <pt x="562" y="586" on="0"/>
        <pt x="584" y="519" on="0"/>
        <pt x="625" y="469" on="0"/>
        <pt x="682" y="440" on="0"/>
        <pt x="718" y="440" on="1"/>
        <pt x="755" y="440" on="0"/>
        <pt x="831" y="462" on="0"/>
        <pt x="897" y="503" on="0"/>
        <pt x="948" y="562" on="0"/>
        <pt x="960" y="600" on="1"/>
        <pt x="1030" y="833" on="1"/>
        <pt x="1033" y="844" on="0"/>
        <pt x="1037" y="865" on="0"/>
        <pt x="1037" y="875" on="1"/>
        <pt x="1037" y="908" on="0"/>
        <pt x="1006" y="962" on="0"/>
        <pt x="958" y="1001" on="0"/>
        <pt x="899" y="1022" on="0"/>
        <pt x="870" y="1022" on="1"/>
        <pt x="825" y="1022" on="0"/>
        <pt x="744" y="986" on="0"/>
        <pt x="676" y="925" on="0"/>
        <pt x="621" y="845" on="0"/>
        <pt x="583" y="756" on="0"/>
        <pt x="562" y="665" on="0"/>
      </contour>
      <contour>
        <pt x="1079" y="138" on="1"/>
        <pt x="1092" y="142" on="0"/>
        <pt x="1106" y="142" on="1"/>
        <pt x="1137" y="142" on="0"/>
        <pt x="1170" y="102" on="0"/>
        <pt x="1170" y="79" on="1"/>
        <pt x="1170" y="60" on="0"/>
        <pt x="1149" y="28" on="0"/>
        <pt x="1127" y="21" on="1"/>
        <pt x="962" y="-27" on="0"/>
        <pt x="809" y="-27" on="1"/>
        <pt x="647" y="-27" on="0"/>
        <pt x="369" y="76" on="0"/>
        <pt x="166" y="271" on="0"/>
        <pt x="50" y="553" on="0"/>
        <pt x="50" y="731" on="1"/>
        <pt x="50" y="857" on="0"/>
        <pt x="119" y="1071" on="0"/>
        <pt x="239" y="1244" on="0"/>
        <pt x="401" y="1376" on="0"/>
        <pt x="589" y="1465" on="0"/>
        <pt x="792" y="1511" on="0"/>
        <pt x="893" y="1511" on="1"/>
        <pt x="979" y="1511" on="0"/>
        <pt x="1146" y="1477" on="0"/>
        <pt x="1294" y="1408" on="0"/>
        <pt x="1419" y="1304" on="0"/>
        <pt x="1509" y="1163" on="0"/>
        <pt x="1560" y="985" on="0"/>
        <pt x="1560" y="877" on="1"/>
        <pt x="1560" y="795" on="0"/>
        <pt x="1520" y="645" on="0"/>
        <pt x="1452" y="516" on="0"/>
        <pt x="1361" y="411" on="0"/>
        <pt x="1258" y="337" on="0"/>
        <pt x="1150" y="296" on="0"/>
        <pt x="1099" y="296" on="1"/>
        <pt x="1073" y="296" on="0"/>
        <pt x="1021" y="308" on="0"/>
        <pt x="976" y="333" on="0"/>
        <pt x="942" y="371" on="0"/>
        <pt x="933" y="397" on="1"/>
        <pt x="885" y="345" on="0"/>
        <pt x="748" y="290" on="0"/>
        <pt x="676" y="290" on="1"/>
        <pt x="606" y="290" on="0"/>
        <pt x="494" y="342" on="0"/>
        <pt x="416" y="431" on="0"/>
        <pt x="375" y="549" on="0"/>
        <pt x="375" y="615" on="1"/>
        <pt x="375" y="682" on="0"/>
        <pt x="407" y="818" on="0"/>
        <pt x="466" y="944" on="0"/>
        <pt x="551" y="1055" on="0"/>
        <pt x="658" y="1137" on="0"/>
        <pt x="785" y="1184" on="0"/>
        <pt x="857" y="1184" on="1"/>
        <pt x="930" y="1184" on="0"/>
        <pt x="1056" y="1120" on="0"/>
        <pt x="1091" y="1054" on="1"/>
        <pt x="1100" y="1082" on="1"/>
        <pt x="1109" y="1111" on="0"/>
        <pt x="1153" y="1140" on="0"/>
        <pt x="1179" y="1139" on="1"/>
        <pt x="1206" y="1139" on="0"/>
        <pt x="1248" y="1108" on="0"/>
        <pt x="1248" y="1077" on="1"/>
        <pt x="1248" y="1066" on="0"/>
        <pt x="1245" y="1053" on="1"/>
        <pt x="1104" y="583" on="1"/>
        <pt x="1093" y="548" on="0"/>
        <pt x="1081" y="491" on="0"/>
        <pt x="1081" y="471" on="1"/>
        <pt x="1081" y="447" on="0"/>
        <pt x="1104" y="420" on="0"/>
        <pt x="1131" y="420" on="1"/>
        <pt x="1182" y="420" on="0"/>
        <pt x="1281" y="493" on="0"/>
        <pt x="1360" y="616" on="0"/>
        <pt x="1409" y="776" on="0"/>
        <pt x="1409" y="862" on="1"/>
        <pt x="1409" y="996" on="0"/>
        <pt x="1324" y="1192" on="0"/>
        <pt x="1182" y="1320" on="0"/>
        <pt x="996" y="1382" on="0"/>
        <pt x="895" y="1382" on="1"/>
        <pt x="813" y="1382" on="0"/>
        <pt x="647" y="1343" on="0"/>
        <pt x="494" y="1266" on="0"/>
        <pt x="360" y="1153" on="0"/>
        <pt x="262" y="1006" on="0"/>
        <pt x="205" y="826" on="0"/>
        <pt x="205" y="721" on="1"/>
        <pt x="205" y="565" on="0"/>
        <pt x="305" y="332" on="0"/>
        <pt x="476" y="177" on="0"/>
        <pt x="700" y="100" on="0"/>
        <pt x="825" y="100" on="1"/>
        <pt x="888" y="100" on="0"/>
        <pt x="1015" y="118" on="0"/>
      </contour>
    </TTGlyph>
    <TTGlyph name="atilde" xMin="62" yMin="-12" xMax="946" yMax="1394">
      <component glyphName="a" x="0" y="0" flags="0x1204"/>
      <component glyphName="tilde" x="263" y="0" flags="0x1004"/>
    </TTGlyph>
    <TTGlyph name="b" xMin="127" yMin="-12" xMax="1124" yMax="1437">
      <contour>
        <pt x="356" y="101" on="1"/>
        <pt x="353" y="76" on="0"/>
        <pt x="332" y="38" on="0"/>
        <pt x="300" y="13" on="0"/>
        <pt x="260" y="0" on="0"/>
        <pt x="240" y="0" on="1"/>
        <pt x="219" y="0" on="0"/>
        <pt x="178" y="14" on="0"/>
        <pt x="146" y="42" on="0"/>
        <pt x="127" y="84" on="0"/>
        <pt x="127" y="112" on="1"/>
        <pt x="127" y="1327" on="1"/>
        <pt x="127" y="1354" on="0"/>
        <pt x="147" y="1396" on="0"/>
        <pt x="180" y="1423" on="0"/>
        <pt x="222" y="1437" on="0"/>
        <pt x="244" y="1437" on="1"/>
        <pt x="266" y="1437" on="0"/>
        <pt x="308" y="1423" on="0"/>
        <pt x="341" y="1396" on="0"/>
        <pt x="361" y="1355" on="0"/>
        <pt x="361" y="1327" on="1"/>
        <pt x="361" y="830" on="1"/>
        <pt x="387" y="866" on="0"/>
        <pt x="464" y="939" on="0"/>
        <pt x="555" y="988" on="0"/>
        <pt x="656" y="1013" on="0"/>
        <pt x="707" y="1013" on="1"/>
        <pt x="809" y="1013" on="0"/>
        <pt x="965" y="933" on="0"/>
        <pt x="1070" y="794" on="0"/>
        <pt x="1124" y="604" on="0"/>
        <pt x="1124" y="506" on="1"/>
        <pt x="1124" y="414" on="0"/>
        <pt x="1073" y="223" on="0"/>
        <pt x="970" y="76" on="0"/>
        <pt x="815" y="-12" on="0"/>
        <pt x="712" y="-12" on="1"/>
        <pt x="604" y="-12" on="0"/>
        <pt x="421" y="90" on="0"/>
        <pt x="357" y="184" on="1"/>
        <pt x="357" y="183" on="0"/>
        <pt x="357" y="158" on="0"/>
        <pt x="357" y="127" on="0"/>
        <pt x="356" y="102" on="0"/>
      </contour>
      <contour>
        <pt x="361" y="514" on="1"/>
        <pt x="361" y="428" on="0"/>
        <pt x="388" y="300" on="0"/>
        <pt x="452" y="199" on="0"/>
        <pt x="559" y="142" on="0"/>
        <pt x="640" y="142" on="1"/>
        <pt x="714" y="142" on="0"/>
        <pt x="808" y="212" on="0"/>
        <pt x="862" y="321" on="0"/>
        <pt x="882" y="454" on="0"/>
        <pt x="882" y="509" on="1"/>
        <pt x="882" y="568" on="0"/>
        <pt x="857" y="697" on="0"/>
        <pt x="798" y="797" on="0"/>
        <pt x="701" y="857" on="0"/>
        <pt x="628" y="857" on="1"/>
        <pt x="554" y="857" on="0"/>
        <pt x="452" y="802" on="0"/>
        <pt x="389" y="706" on="0"/>
        <pt x="361" y="591" on="0"/>
      </contour>
    </TTGlyph>
    <TTGlyph name="backslash" xMin="-11" yMin="-89" xMax="636" yMax="1502">
      <contour>
        <pt x="-5" y="1390" on="1"/>
        <pt x="-11" y="1408" on="0"/>
        <pt x="-11" y="1423" on="1"/>
        <pt x="-11" y="1442" on="0"/>
        <pt x="4" y="1471" on="0"/>
        <pt x="28" y="1491" on="0"/>
        <pt x="59" y="1502" on="0"/>
        <pt x="75" y="1502" on="1"/>
        <pt x="101" y="1502" on="0"/>
        <pt x="147" y="1474" on="0"/>
        <pt x="158" y="1443" on="1"/>
        <pt x="631" y="21" on="1"/>
        <pt x="636" y="3" on="0"/>
        <pt x="636" y="-10" on="1"/>
        <pt x="636" y="-28" on="0"/>
        <pt x="621" y="-58" on="0"/>
        <pt x="597" y="-78" on="0"/>
        <pt x="566" y="-89" on="0"/>
        <pt x="550" y="-89" on="1"/>
        <pt x="526" y="-89" on="0"/>
        <pt x="481" y="-62" on="0"/>
        <pt x="471" y="-31" on="1"/>
      </contour>
    </TTGlyph>
    <TTGlyph name="bar" xMin="143" yMin="-356" xMax="312" yMax="1486">
      <contour>
        <pt x="143" y="1402" on="1"/>
        <pt x="143" y="1423" on="0"/>
        <pt x="158" y="1454" on="0"/>
        <pt x="182" y="1475" on="0"/>
        <pt x="212" y="1486" on="0"/>
        <pt x="228" y="1486" on="1"/>
        <pt x="244" y="1486" on="0"/>
        <pt x="274" y="1475" on="0"/>
        <pt x="298" y="1454" on="0"/>
        <pt x="312" y="1423" on="0"/>
        <pt x="312" y="1402" on="1"/>
        <pt x="312" y="-271" on="1"/>
        <pt x="312" y="-292" on="0"/>
        <pt x="297" y="-324" on="0"/>
        <pt x="273" y="-345" on="0"/>
        <pt x="243" y="-356" on="0"/>
        <pt x="227" y="-356" on="1"/>
        <pt x="211" y="-356" on="0"/>
        <pt x="181" y="-345" on="0"/>
        <pt x="157" y="-324" on="0"/>
        <pt x="143" y="-292" on="0"/>
        <pt x="143" y="-271" on="1"/>
      </contour>
    </TTGlyph>
    <TTGlyph name="braceleft" xMin="9" yMin="-226" xMax="673" yMax="1479">
      <contour>
        <pt x="595" y="-54" on="1"/>
        <pt x="614" y="-54" on="0"/>
        <pt x="644" y="-69" on="0"/>
        <pt x="663" y="-93" on="0"/>
        <pt x="673" y="-124" on="0"/>
        <pt x="673" y="-140" on="1"/>
        <pt x="673" y="-156" on="0"/>
        <pt x="663" y="-187" on="0"/>
        <pt x="644" y="-211" on="0"/>
        <pt x="614" y="-226" on="0"/>
        <pt x="595" y="-226" on="1"/>
        <pt x="446" y="-226" on="1"/>
        <pt x="404" y="-226" on="0"/>
        <pt x="327" y="-191" on="0"/>
        <pt x="269" y="-128" on="0"/>
        <pt x="234" y="-42" on="0"/>
        <pt x="234" y="8" on="1"/>
        <pt x="234" y="316" on="1"/>
        <pt x="234" y="367" on="0"/>
        <pt x="223" y="446" on="0"/>
        <pt x="192" y="500" on="0"/>
        <pt x="137" y="531" on="0"/>
        <pt x="93" y="535" on="1"/>
        <pt x="72" y="535" on="0"/>
        <pt x="40" y="550" on="0"/>
        <pt x="19" y="576" on="0"/>
        <pt x="9" y="607" on="0"/>
        <pt x="9" y="624" on="1"/>
        <pt x="9" y="641" on="0"/>
        <pt x="19" y="673" on="0"/>
        <pt x="40" y="699" on="0"/>
        <pt x="72" y="714" on="0"/>
        <pt x="93" y="714" on="1"/>
        <pt x="137" y="718" on="0"/>
        <pt x="192" y="749" on="0"/>
        <pt x="223" y="804" on="0"/>
        <pt x="234" y="883" on="0"/>
        <pt x="234" y="935" on="1"/>
        <pt x="234" y="1245" on="1"/>
        <pt x="234" y="1295" on="0"/>
        <pt x="269" y="1380" on="0"/>
        <pt x="327" y="1443" on="0"/>
        <pt x="404" y="1479" on="0"/>
        <pt x="446" y="1479" on="1"/>
        <pt x="595" y="1479" on="1"/>
        <pt x="634" y="1479" on="0"/>
        <pt x="673" y="1425" on="0"/>
        <pt x="673" y="1392" on="1"/>
        <pt x="673" y="1376" on="0"/>
        <pt x="663" y="1345" on="0"/>
        <pt x="644" y="1321" on="0"/>
        <pt x="614" y="1306" on="0"/>
        <pt x="595" y="1306" on="1"/>
        <pt x="541" y="1306" on="1"/>
        <pt x="493" y="1306" on="0"/>
        <pt x="457" y="1232" on="0"/>
        <pt x="457" y="1162" on="1"/>
        <pt x="457" y="886" on="1"/>
        <pt x="457" y="824" on="0"/>
        <pt x="422" y="736" on="0"/>
        <pt x="374" y="675" on="0"/>
        <pt x="321" y="640" on="0"/>
        <pt x="303" y="631" on="1"/>
        <pt x="299" y="628" on="0"/>
        <pt x="295" y="624" on="1"/>
        <pt x="309" y="619" on="0"/>
        <pt x="363" y="588" on="0"/>
        <pt x="417" y="527" on="0"/>
        <pt x="457" y="432" on="0"/>
        <pt x="457" y="365" on="1"/>
        <pt x="457" y="91" on="1"/>
        <pt x="457" y="20" on="0"/>
        <pt x="493" y="-54" on="0"/>
        <pt x="541" y="-54" on="1"/>
      </contour>
    </TTGlyph>
    <TTGlyph name="braceright" xMin="19" yMin="-226" xMax="683" yMax="1479">
      <contour>
        <pt x="151" y="-54" on="1"/>
        <pt x="199" y="-54" on="0"/>
        <pt x="235" y="20" on="0"/>
        <pt x="235" y="91" on="1"/>
        <pt x="235" y="365" on="1"/>
        <pt x="235" y="432" on="0"/>
        <pt x="275" y="527" on="0"/>
        <pt x="329" y="588" on="0"/>
        <pt x="383" y="619" on="0"/>
        <pt x="397" y="624" on="1"/>
        <pt x="396" y="625" on="0"/>
        <pt x="393" y="628" on="0"/>
        <pt x="391" y="630" on="1"/>
        <pt x="374" y="637" on="0"/>
        <pt x="321" y="672" on="0"/>
        <pt x="271" y="732" on="0"/>
        <pt x="235" y="823" on="0"/>
        <pt x="235" y="886" on="1"/>
        <pt x="235" y="1162" on="1"/>
        <pt x="235" y="1232" on="0"/>
        <pt x="199" y="1306" on="0"/>
        <pt x="151" y="1306" on="1"/>
        <pt x="97" y="1306" on="1"/>
        <pt x="77" y="1306" on="0"/>
        <pt x="48" y="1321" on="0"/>
        <pt x="29" y="1345" on="0"/>
        <pt x="19" y="1376" on="0"/>
        <pt x="19" y="1392" on="1"/>
        <pt x="19" y="1425" on="0"/>
        <pt x="58" y="1479" on="0"/>
        <pt x="97" y="1479" on="1"/>
        <pt x="246" y="1479" on="1"/>
        <pt x="288" y="1479" on="0"/>
        <pt x="365" y="1443" on="0"/>
        <pt x="424" y="1380" on="0"/>
        <pt x="458" y="1295" on="0"/>
        <pt x="458" y="1245" on="1"/>
        <pt x="458" y="935" on="1"/>
        <pt x="458" y="883" on="0"/>
        <pt x="469" y="804" on="0"/>
        <pt x="500" y="749" on="0"/>
        <pt x="555" y="718" on="0"/>
        <pt x="599" y="714" on="1"/>
        <pt x="620" y="714" on="0"/>
        <pt x="651" y="699" on="0"/>
        <pt x="672" y="673" on="0"/>
        <pt x="683" y="641" on="0"/>
        <pt x="683" y="624" on="1"/>
        <pt x="683" y="607" on="0"/>
        <pt x="672" y="576" on="0"/>
        <pt x="651" y="550" on="0"/>
        <pt x="620" y="535" on="0"/>
        <pt x="599" y="535" on="1"/>
        <pt x="555" y="531" on="0"/>
        <pt x="500" y="500" on="0"/>
        <pt x="469" y="446" on="0"/>
        <pt x="458" y="367" on="0"/>
        <pt x="458" y="316" on="1"/>
        <pt x="458" y="8" on="1"/>
        <pt x="458" y="-42" on="0"/>
        <pt x="424" y="-128" on="0"/>
        <pt x="365" y="-191" on="0"/>
        <pt x="288" y="-226" on="0"/>
        <pt x="246" y="-226" on="1"/>
        <pt x="97" y="-226" on="1"/>
        <pt x="77" y="-226" on="0"/>
        <pt x="48" y="-211" on="0"/>
        <pt x="29" y="-187" on="0"/>
        <pt x="19" y="-156" on="0"/>
        <pt x="19" y="-140" on="1"/>
        <pt x="19" y="-124" on="0"/>
        <pt x="29" y="-93" on="0"/>
        <pt x="48" y="-69" on="0"/>
        <pt x="77" y="-54" on="0"/>
        <pt x="97" y="-54" on="1"/>
      </contour>
    </TTGlyph>
    <TTGlyph name="bracketleft" xMin="171" yMin="-221" xMax="592" yMax="1438">
      <contour>
        <pt x="171" y="1327" on="1"/>
        <pt x="171" y="1350" on="0"/>
        <pt x="188" y="1390" on="0"/>
        <pt x="218" y="1420" on="0"/>
        <pt x="259" y="1438" on="0"/>
        <pt x="283" y="1438" on="1"/>
        <pt x="507" y="1438" on="1"/>
        <pt x="528" y="1438" on="0"/>
        <pt x="560" y="1424" on="0"/>
        <pt x="581" y="1400" on="0"/>
        <pt x="592" y="1369" on="0"/>
        <pt x="592" y="1353" on="1"/>
        <pt x="592" y="1337" on="0"/>
        <pt x="581" y="1307" on="0"/>
        <pt x="560" y="1283" on="0"/>
        <pt x="528" y="1268" on="0"/>
        <pt x="507" y="1268" on="1"/>
        <pt x="394" y="1268" on="1"/>
        <pt x="394" y="-50" on="1"/>
        <pt x="507" y="-50" on="1"/>
        <pt x="528" y="-50" on="0"/>
        <pt x="560" y="-64" on="0"/>
        <pt x="581" y="-88" on="0"/>
        <pt x="592" y="-118" on="0"/>
        <pt x="592" y="-134" on="1"/>
        <pt x="592" y="-166" on="0"/>
        <pt x="550" y="-219" on="0"/>
        <pt x="507" y="-221" on="1"/>
        <pt x="283" y="-221" on="1"/>
        <pt x="259" y="-221" on="0"/>
        <pt x="218" y="-204" on="0"/>
        <pt x="188" y="-174" on="0"/>
        <pt x="171" y="-134" on="0"/>
        <pt x="171" y="-111" on="1"/>
      </contour>
    </TTGlyph>
    <TTGlyph name="bracketright" xMin="101" yMin="-221" xMax="522" yMax="1438">
      <contour>
        <pt x="522" y="-111" on="1"/>
        <pt x="522" y="-134" on="0"/>
        <pt x="505" y="-174" on="0"/>
        <pt x="475" y="-204" on="0"/>
        <pt x="434" y="-221" on="0"/>
        <pt x="410" y="-221" on="1"/>
        <pt x="186" y="-221" on="1"/>
        <pt x="143" y="-219" on="0"/>
        <pt x="101" y="-166" on="0"/>
        <pt x="101" y="-134" on="1"/>
        <pt x="101" y="-118" on="0"/>
        <pt x="112" y="-88" on="0"/>
        <pt x="133" y="-64" on="0"/>
        <pt x="165" y="-50" on="0"/>
        <pt x="186" y="-50" on="1"/>
        <pt x="299" y="-50" on="1"/>
        <pt x="299" y="1268" on="1"/>
        <pt x="186" y="1268" on="1"/>
        <pt x="165" y="1268" on="0"/>
        <pt x="133" y="1283" on="0"/>
        <pt x="112" y="1307" on="0"/>
        <pt x="101" y="1337" on="0"/>
        <pt x="101" y="1353" on="1"/>
        <pt x="101" y="1369" on="0"/>
        <pt x="112" y="1400" on="0"/>
        <pt x="133" y="1424" on="0"/>
        <pt x="165" y="1438" on="0"/>
        <pt x="186" y="1438" on="1"/>
        <pt x="410" y="1438" on="1"/>
        <pt x="434" y="1438" on="0"/>
        <pt x="475" y="1420" on="0"/>
        <pt x="505" y="1390" on="0"/>
        <pt x="522" y="1350" on="0"/>
        <pt x="522" y="1327" on="1"/>
      </contour>
    </TTGlyph>
    <TTGlyph name="breve" xMin="-16" yMin="1217" xMax="586" yMax="1489">
      <contour>
        <pt x="285" y="1217" on="1"/>
        <pt x="182" y="1217" on="0"/>
        <pt x="28" y="1305" on="0"/>
        <pt x="-7" y="1386" on="1"/>
        <pt x="-16" y="1407" on="0"/>
        <pt x="-16" y="1425" on="1"/>
        <pt x="-16" y="1455" on="0"/>
        <pt x="26" y="1489" on="0"/>
        <pt x="52" y="1489" on="1"/>
        <pt x="72" y="1489" on="0"/>
        <pt x="109" y="1469" on="0"/>
        <pt x="121" y="1448" on="1"/>
        <pt x="151" y="1404" on="0"/>
        <pt x="223" y="1368" on="0"/>
        <pt x="285" y="1368" on="1"/>
        <pt x="347" y="1368" on="0"/>
        <pt x="419" y="1404" on="0"/>
        <pt x="449" y="1448" on="1"/>
        <pt x="461" y="1469" on="0"/>
        <pt x="498" y="1489" on="0"/>
        <pt x="518" y="1489" on="1"/>
        <pt x="544" y="1489" on="0"/>
        <pt x="586" y="1455" on="0"/>
        <pt x="586" y="1425" on="1"/>
        <pt x="585" y="1416" on="0"/>
        <pt x="582" y="1397" on="0"/>
        <pt x="577" y="1386" on="1"/>
        <pt x="542" y="1305" on="0"/>
        <pt x="388" y="1217" on="0"/>
      </contour>
    </TTGlyph>
    <TTGlyph name="brokenbar" xMin="141" yMin="-27" xMax="312" yMax="1450">
      <contour>
        <pt x="141" y="629" on="1"/>
        <pt x="141" y="650" on="0"/>
        <pt x="155" y="682" on="0"/>
        <pt x="179" y="703" on="0"/>
        <pt x="210" y="714" on="0"/>
        <pt x="226" y="714" on="1"/>
        <pt x="242" y="714" on="0"/>
        <pt x="272" y="703" on="0"/>
        <pt x="296" y="682" on="0"/>
        <pt x="310" y="650" on="0"/>
        <pt x="310" y="629" on="1"/>
        <pt x="310" y="58" on="1"/>
        <pt x="310" y="37" on="0"/>
        <pt x="295" y="5" on="0"/>
        <pt x="271" y="-16" on="0"/>
        <pt x="241" y="-27" on="0"/>
        <pt x="225" y="-27" on="1"/>
        <pt x="209" y="-27" on="0"/>
        <pt x="179" y="-16" on="0"/>
        <pt x="155" y="5" on="0"/>
        <pt x="141" y="37" on="0"/>
        <pt x="141" y="58" on="1"/>
      </contour>
      <contour>
        <pt x="143" y="1365" on="1"/>
        <pt x="143" y="1386" on="0"/>
        <pt x="157" y="1418" on="0"/>
        <pt x="181" y="1439" on="0"/>
        <pt x="212" y="1450" on="0"/>
        <pt x="228" y="1450" on="1"/>
        <pt x="244" y="1450" on="0"/>
        <pt x="274" y="1439" on="0"/>
        <pt x="298" y="1418" on="0"/>
        <pt x="312" y="1386" on="0"/>
        <pt x="312" y="1365" on="1"/>
        <pt x="312" y="808" on="1"/>
        <pt x="312" y="787" on="0"/>
        <pt x="297" y="755" on="0"/>
        <pt x="273" y="734" on="0"/>
        <pt x="243" y="723" on="0"/>
        <pt x="227" y="723" on="1"/>
        <pt x="211" y="723" on="0"/>
        <pt x="181" y="734" on="0"/>
        <pt x="157" y="755" on="0"/>
        <pt x="143" y="787" on="0"/>
        <pt x="143" y="808" on="1"/>
      </contour>
    </TTGlyph>
    <TTGlyph name="bullet" xMin="142" yMin="359" xMax="882" yMax="1077">
      <contour>
        <pt x="882" y="717" on="1"/>
        <pt x="882" y="644" on="0"/>
        <pt x="824" y="514" on="0"/>
        <pt x="723" y="416" on="0"/>
        <pt x="588" y="359" on="0"/>
        <pt x="511" y="359" on="1"/>
        <pt x="435" y="359" on="0"/>
        <pt x="301" y="416" on="0"/>
        <pt x="200" y="514" on="0"/>
        <pt x="142" y="644" on="0"/>
        <pt x="142" y="717" on="1"/>
        <pt x="142" y="792" on="0"/>
        <pt x="200" y="923" on="0"/>
        <pt x="301" y="1021" on="0"/>
        <pt x="435" y="1077" on="0"/>
        <pt x="511" y="1077" on="1"/>
        <pt x="588" y="1077" on="0"/>
        <pt x="723" y="1021" on="0"/>
        <pt x="824" y="923" on="0"/>
        <pt x="882" y="792" on="0"/>
      </contour>
    </TTGlyph>
    <TTGlyph name="c" xMin="82" yMin="-12" xMax="919" yMax="1013">
      <contour>
        <pt x="82" y="501" on="1"/>
        <pt x="82" y="601" on="0"/>
        <pt x="155" y="793" on="0"/>
        <pt x="288" y="934" on="0"/>
        <pt x="472" y="1013" on="0"/>
        <pt x="583" y="1013" on="1"/>
        <pt x="637" y="1013" on="0"/>
        <pt x="750" y="994" on="0"/>
        <pt x="843" y="956" on="0"/>
        <pt x="903" y="900" on="0"/>
        <pt x="903" y="864" on="1"/>
        <pt x="903" y="833" on="0"/>
        <pt x="863" y="784" on="0"/>
        <pt x="828" y="784" on="1"/>
        <pt x="818" y="784" on="0"/>
        <pt x="806" y="787" on="1"/>
        <pt x="754" y="808" on="0"/>
        <pt x="654" y="833" on="0"/>
        <pt x="607" y="833" on="1"/>
        <pt x="544" y="833" on="0"/>
        <pt x="439" y="785" on="0"/>
        <pt x="364" y="697" on="0"/>
        <pt x="323" y="569" on="0"/>
        <pt x="323" y="503" on="1"/>
        <pt x="323" y="450" on="0"/>
        <pt x="355" y="326" on="0"/>
        <pt x="424" y="230" on="0"/>
        <pt x="529" y="171" on="0"/>
        <pt x="603" y="171" on="1"/>
        <pt x="651" y="171" on="0"/>
        <pt x="766" y="198" on="0"/>
        <pt x="822" y="223" on="1"/>
        <pt x="834" y="226" on="0"/>
        <pt x="845" y="226" on="1"/>
        <pt x="879" y="226" on="0"/>
        <pt x="919" y="178" on="0"/>
        <pt x="919" y="147" on="1"/>
        <pt x="919" y="111" on="0"/>
        <pt x="854" y="53" on="0"/>
        <pt x="753" y="11" on="0"/>
        <pt x="630" y="-12" on="0"/>
        <pt x="573" y="-12" on="1"/>
        <pt x="462" y="-12" on="0"/>
        <pt x="280" y="67" on="0"/>
        <pt x="152" y="206" on="0"/>
        <pt x="82" y="399" on="0"/>
      </contour>
    </TTGlyph>
    <TTGlyph name="caron" xMin="-32" yMin="1118" xMax="595" yMax="1552">
      <contour>
        <pt x="-10" y="1433" on="1"/>
        <pt x="-32" y="1461" on="0"/>
        <pt x="-32" y="1487" on="1"/>
        <pt x="-32" y="1516" on="0"/>
        <pt x="10" y="1552" on="0"/>
        <pt x="39" y="1552" on="1"/>
        <pt x="59" y="1552" on="0"/>
        <pt x="103" y="1531" on="0"/>
        <pt x="122" y="1506" on="1"/>
        <pt x="284" y="1289" on="1"/>
        <pt x="445" y="1506" on="1"/>
        <pt x="463" y="1531" on="0"/>
        <pt x="505" y="1551" on="0"/>
        <pt x="525" y="1552" on="1"/>
        <pt x="554" y="1552" on="0"/>
        <pt x="595" y="1514" on="0"/>
        <pt x="595" y="1485" on="1"/>
        <pt x="595" y="1459" on="0"/>
        <pt x="575" y="1432" on="1"/>
        <pt x="385" y="1176" on="1"/>
        <pt x="363" y="1146" on="0"/>
        <pt x="310" y="1119" on="0"/>
        <pt x="284" y="1118" on="1"/>
        <pt x="256" y="1118" on="0"/>
        <pt x="204" y="1148" on="0"/>
        <pt x="181" y="1176" on="1"/>
      </contour>
    </TTGlyph>
    <TTGlyph name="ccedilla" xMin="82" yMin="-416" xMax="919" yMax="1013">
      <component glyphName="c" x="0" y="0" flags="0x1004"/>
      <component glyphName="cedilla" x="251" y="0" flags="0x1004"/>
    </TTGlyph>
    <TTGlyph name="cedilla" xMin="55" yMin="-416" xMax="509" yMax="7">
      <contour>
        <pt x="244" y="7" on="1"/>
        <pt x="328" y="7" on="1"/>
        <pt x="286" y="-106" on="1"/>
        <pt x="295" y="-106" on="0"/>
        <pt x="304" y="-105" on="1"/>
        <pt x="311" y="-105" on="0"/>
        <pt x="325" y="-104" on="0"/>
        <pt x="327" y="-104" on="1"/>
        <pt x="363" y="-104" on="0"/>
        <pt x="429" y="-119" on="0"/>
        <pt x="479" y="-154" on="0"/>
        <pt x="509" y="-211" on="0"/>
        <pt x="509" y="-253" on="1"/>
        <pt x="509" y="-294" on="0"/>
        <pt x="473" y="-355" on="0"/>
        <pt x="413" y="-395" on="0"/>
        <pt x="336" y="-416" on="0"/>
        <pt x="295" y="-416" on="1"/>
        <pt x="221" y="-416" on="0"/>
        <pt x="121" y="-391" on="0"/>
        <pt x="78" y="-374" on="1"/>
        <pt x="66" y="-369" on="0"/>
        <pt x="55" y="-348" on="0"/>
        <pt x="55" y="-337" on="1"/>
        <pt x="55" y="-321" on="0"/>
        <pt x="74" y="-295" on="0"/>
        <pt x="91" y="-295" on="1"/>
        <pt x="97" y="-295" on="0"/>
        <pt x="105" y="-298" on="1"/>
        <pt x="143" y="-312" on="0"/>
        <pt x="219" y="-332" on="0"/>
        <pt x="260" y="-332" on="1"/>
        <pt x="317" y="-332" on="0"/>
        <pt x="360" y="-288" on="0"/>
        <pt x="360" y="-250" on="1"/>
        <pt x="360" y="-232" on="0"/>
        <pt x="343" y="-206" on="0"/>
        <pt x="315" y="-189" on="0"/>
        <pt x="280" y="-181" on="0"/>
        <pt x="261" y="-181" on="1"/>
        <pt x="253" y="-181" on="0"/>
        <pt x="238" y="-183" on="0"/>
        <pt x="231" y="-183" on="1"/>
        <pt x="210" y="-183" on="0"/>
        <pt x="188" y="-164" on="0"/>
        <pt x="188" y="-148" on="1"/>
        <pt x="188" y="-137" on="0"/>
        <pt x="194" y="-123" on="1"/>
      </contour>
    </TTGlyph>
    <TTGlyph name="cent" xMin="93" yMin="-282" xMax="952" yMax="1288">
      <contour>
        <pt x="93" y="501" on="1"/>
        <pt x="93" y="605" on="0"/>
        <pt x="159" y="785" on="0"/>
        <pt x="275" y="923" on="0"/>
        <pt x="434" y="1011" on="0"/>
        <pt x="527" y="1022" on="1"/>
        <pt x="527" y="1221" on="1"/>
        <pt x="527" y="1254" on="0"/>
        <pt x="569" y="1288" on="0"/>
        <pt x="595" y="1288" on="1"/>
        <pt x="621" y="1288" on="0"/>
        <pt x="662" y="1255" on="0"/>
        <pt x="662" y="1221" on="1"/>
        <pt x="662" y="1023" on="1"/>
        <pt x="707" y="1019" on="0"/>
        <pt x="802" y="995" on="0"/>
        <pt x="881" y="959" on="0"/>
        <pt x="931" y="912" on="0"/>
        <pt x="931" y="884" on="1"/>
        <pt x="931" y="870" on="0"/>
        <pt x="922" y="842" on="0"/>
        <pt x="904" y="819" on="0"/>
        <pt x="878" y="804" on="0"/>
        <pt x="862" y="804" on="1"/>
        <pt x="856" y="804" on="0"/>
        <pt x="853" y="805" on="1"/>
        <pt x="794" y="822" on="0"/>
        <pt x="691" y="847" on="0"/>
        <pt x="640" y="847" on="1"/>
        <pt x="575" y="847" on="0"/>
        <pt x="464" y="806" on="0"/>
        <pt x="381" y="722" on="0"/>
        <pt x="334" y="592" on="0"/>
        <pt x="334" y="503" on="1"/>
        <pt x="334" y="421" on="0"/>
        <pt x="376" y="293" on="0"/>
        <pt x="454" y="205" on="0"/>
        <pt x="566" y="159" on="0"/>
        <pt x="636" y="159" on="1"/>
        <pt x="688" y="159" on="0"/>
        <pt x="807" y="183" on="0"/>
        <pt x="870" y="205" on="1"/>
        <pt x="874" y="206" on="0"/>
        <pt x="883" y="206" on="1"/>
        <pt x="899" y="206" on="0"/>
        <pt x="924" y="192" on="0"/>
        <pt x="942" y="170" on="0"/>
        <pt x="952" y="142" on="0"/>
        <pt x="952" y="129" on="1"/>
        <pt x="952" y="103" on="0"/>
        <pt x="935" y="88" on="1"/>
        <pt x="896" y="40" on="0"/>
        <pt x="751" y="-13" on="0"/>
        <pt x="662" y="-21" on="1"/>
        <pt x="662" y="-214" on="1"/>
        <pt x="662" y="-248" on="0"/>
        <pt x="620" y="-282" on="0"/>
        <pt x="594" y="-282" on="1"/>
        <pt x="568" y="-282" on="0"/>
        <pt x="527" y="-248" on="0"/>
        <pt x="527" y="-214" on="1"/>
        <pt x="527" y="-21" on="1"/>
        <pt x="427" y="-12" on="0"/>
        <pt x="266" y="74" on="0"/>
        <pt x="154" y="212" on="0"/>
        <pt x="93" y="394" on="0"/>
      </contour>
    </TTGlyph>
    <TTGlyph name="circumflex" xMin="-32" yMin="1122" xMax="597" yMax="1555">
      <contour>
        <pt x="181" y="1498" on="1"/>
        <pt x="227" y="1555" on="0"/>
        <pt x="283" y="1555" on="1"/>
        <pt x="309" y="1555" on="0"/>
        <pt x="362" y="1527" on="0"/>
        <pt x="385" y="1498" on="1"/>
        <pt x="575" y="1242" on="1"/>
        <pt x="597" y="1212" on="0"/>
        <pt x="596" y="1188" on="1"/>
        <pt x="596" y="1160" on="0"/>
        <pt x="555" y="1123" on="0"/>
        <pt x="526" y="1123" on="1"/>
        <pt x="506" y="1123" on="0"/>
        <pt x="464" y="1144" on="0"/>
        <pt x="445" y="1168" on="1"/>
        <pt x="284" y="1385" on="1"/>
        <pt x="122" y="1168" on="1"/>
        <pt x="102" y="1144" on="0"/>
        <pt x="58" y="1122" on="0"/>
        <pt x="38" y="1122" on="1"/>
        <pt x="9" y="1122" on="0"/>
        <pt x="-32" y="1158" on="0"/>
        <pt x="-32" y="1186" on="1"/>
        <pt x="-32" y="1212" on="0"/>
        <pt x="-10" y="1241" on="1"/>
      </contour>
    </TTGlyph>
    <TTGlyph name="colon" xMin="171" yMin="-3" xMax="443" yMax="1025">
      <contour>
        <pt x="171" y="896" on="1"/>
        <pt x="171" y="921" on="0"/>
        <pt x="190" y="968" on="0"/>
        <pt x="226" y="1004" on="0"/>
        <pt x="276" y="1025" on="0"/>
        <pt x="307" y="1025" on="1"/>
        <pt x="338" y="1025" on="0"/>
        <pt x="388" y="1004" on="0"/>
        <pt x="424" y="968" on="0"/>
        <pt x="443" y="921" on="0"/>
        <pt x="443" y="896" on="1"/>
        <pt x="443" y="870" on="0"/>
        <pt x="424" y="824" on="0"/>
        <pt x="388" y="789" on="0"/>
        <pt x="338" y="768" on="0"/>
        <pt x="307" y="768" on="1"/>
        <pt x="276" y="768" on="0"/>
        <pt x="226" y="789" on="0"/>
        <pt x="190" y="824" on="0"/>
        <pt x="171" y="870" on="0"/>
      </contour>
      <contour>
        <pt x="171" y="126" on="1"/>
        <pt x="171" y="151" on="0"/>
        <pt x="190" y="197" on="0"/>
        <pt x="226" y="233" on="0"/>
        <pt x="276" y="254" on="0"/>
        <pt x="307" y="254" on="1"/>
        <pt x="338" y="254" on="0"/>
        <pt x="388" y="233" on="0"/>
        <pt x="424" y="197" on="0"/>
        <pt x="443" y="151" on="0"/>
        <pt x="443" y="126" on="1"/>
        <pt x="443" y="100" on="0"/>
        <pt x="424" y="54" on="0"/>
        <pt x="388" y="18" on="0"/>
        <pt x="338" y="-3" on="0"/>
        <pt x="307" y="-3" on="1"/>
        <pt x="276" y="-3" on="0"/>
        <pt x="226" y="18" on="0"/>
        <pt x="190" y="54" on="0"/>
        <pt x="171" y="100" on="0"/>
      </contour>
    </TTGlyph>
    <TTGlyph name="comma" xMin="91" yMin="-232" xMax="454" yMax="238">
      <contour>
        <pt x="292" y="-232" on="1"/>
        <pt x="91" y="-232" on="1"/>
        <pt x="195" y="238" on="1"/>
        <pt x="454" y="238" on="1"/>
      </contour>
    </TTGlyph>
    <TTGlyph name="copyright" xMin="142" yMin="99" xMax="1563" yMax="1461">
      <contour>
        <pt x="854" y="99" on="1"/>
        <pt x="756" y="99" on="0"/>
        <pt x="574" y="148" on="0"/>
        <pt x="416" y="236" on="0"/>
        <pt x="286" y="360" on="0"/>
        <pt x="193" y="512" on="0"/>
        <pt x="142" y="685" on="0"/>
        <pt x="142" y="779" on="1"/>
        <pt x="142" y="873" on="0"/>
        <pt x="193" y="1047" on="0"/>
        <pt x="286" y="1198" on="0"/>
        <pt x="416" y="1323" on="0"/>
        <pt x="574" y="1412" on="0"/>
        <pt x="756" y="1461" on="0"/>
        <pt x="854" y="1461" on="1"/>
        <pt x="952" y="1461" on="0"/>
        <pt x="1133" y="1412" on="0"/>
        <pt x="1290" y="1323" on="0"/>
        <pt x="1420" y="1198" on="0"/>
        <pt x="1512" y="1047" on="0"/>
        <pt x="1563" y="873" on="0"/>
        <pt x="1563" y="779" on="1"/>
        <pt x="1563" y="685" on="0"/>
        <pt x="1512" y="512" on="0"/>
        <pt x="1420" y="360" on="0"/>
        <pt x="1290" y="236" on="0"/>
        <pt x="1133" y="148" on="0"/>
        <pt x="952" y="99" on="0"/>
      </contour>
      <contour>
        <pt x="282" y="779" on="1"/>
        <pt x="282" y="660" on="0"/>
        <pt x="368" y="456" on="0"/>
        <pt x="521" y="308" on="0"/>
        <pt x="731" y="224" on="0"/>
        <pt x="854" y="224" on="1"/>
        <pt x="976" y="224" on="0"/>
        <pt x="1185" y="308" on="0"/>
        <pt x="1337" y="456" on="0"/>
        <pt x="1423" y="660" on="0"/>
        <pt x="1423" y="779" on="1"/>
        <pt x="1423" y="898" on="0"/>
        <pt x="1337" y="1101" on="0"/>
        <pt x="1185" y="1249" on="0"/>
        <pt x="976" y="1333" on="0"/>
        <pt x="854" y="1333" on="1"/>
        <pt x="731" y="1333" on="0"/>
        <pt x="521" y="1249" on="0"/>
        <pt x="368" y="1101" on="0"/>
        <pt x="282" y="898" on="0"/>
      </contour>
      <contour>
        <pt x="1060" y="546" on="1"/>
        <pt x="1072" y="551" on="0"/>
        <pt x="1080" y="551" on="1"/>
        <pt x="1099" y="551" on="0"/>
        <pt x="1126" y="519" on="0"/>
        <pt x="1126" y="499" on="1"/>
        <pt x="1126" y="470" on="0"/>
        <pt x="1067" y="427" on="0"/>
        <pt x="985" y="399" on="0"/>
        <pt x="894" y="386" on="0"/>
        <pt x="863" y="386" on="1"/>
        <pt x="788" y="386" on="0"/>
        <pt x="648" y="436" on="0"/>
        <pt x="540" y="536" on="0"/>
        <pt x="476" y="684" on="0"/>
        <pt x="476" y="783" on="1"/>
        <pt x="476" y="881" on="0"/>
        <pt x="539" y="1028" on="0"/>
        <pt x="646" y="1125" on="0"/>
        <pt x="785" y="1174" on="0"/>
        <pt x="862" y="1174" on="1"/>
        <pt x="891" y="1174" on="0"/>
        <pt x="983" y="1161" on="0"/>
        <pt x="1070" y="1135" on="0"/>
        <pt x="1132" y="1095" on="0"/>
        <pt x="1132" y="1068" on="1"/>
        <pt x="1132" y="1046" on="0"/>
        <pt x="1104" y="1009" on="0"/>
        <pt x="1081" y="1009" on="1"/>
        <pt x="1073" y="1009" on="0"/>
        <pt x="1061" y="1014" on="1"/>
        <pt x="1016" y="1036" on="0"/>
        <pt x="921" y="1059" on="0"/>
        <pt x="876" y="1059" on="1"/>
        <pt x="823" y="1059" on="0"/>
        <pt x="730" y="1028" on="0"/>
        <pt x="660" y="962" on="0"/>
        <pt x="619" y="858" on="0"/>
        <pt x="619" y="785" on="1"/>
        <pt x="619" y="714" on="0"/>
        <pt x="662" y="607" on="0"/>
        <pt x="735" y="536" on="0"/>
        <pt x="832" y="500" on="0"/>
        <pt x="885" y="500" on="1"/>
        <pt x="929" y="500" on="0"/>
        <pt x="1016" y="524" on="0"/>
      </contour>
    </TTGlyph>
    <TTGlyph name="currency" xMin="165" yMin="158" xMax="1055" yMax="1048">
      <contour>
        <pt x="609" y="190" on="1"/>
        <pt x="531" y="190" on="0"/>
        <pt x="403" y="228" on="0"/>
        <pt x="352" y="263" on="1"/>
        <pt x="266" y="176" on="1"/>
        <pt x="256" y="166" on="0"/>
        <pt x="235" y="158" on="0"/>
        <pt x="225" y="158" on="1"/>
        <pt x="201" y="158" on="0"/>
        <pt x="165" y="194" on="0"/>
        <pt x="165" y="218" on="1"/>
        <pt x="165" y="229" on="0"/>
        <pt x="173" y="250" on="0"/>
        <pt x="183" y="260" on="1"/>
        <pt x="266" y="343" on="1"/>
        <pt x="221" y="399" on="0"/>
        <pt x="177" y="535" on="0"/>
        <pt x="177" y="607" on="1"/>
        <pt x="177" y="677" on="0"/>
        <pt x="220" y="811" on="0"/>
        <pt x="263" y="867" on="1"/>
        <pt x="183" y="947" on="1"/>
        <pt x="165" y="965" on="0"/>
        <pt x="165" y="988" on="1"/>
        <pt x="165" y="1012" on="0"/>
        <pt x="201" y="1048" on="0"/>
        <pt x="224" y="1048" on="1"/>
        <pt x="235" y="1048" on="0"/>
        <pt x="256" y="1040" on="0"/>
        <pt x="266" y="1030" on="1"/>
        <pt x="347" y="948" on="1"/>
        <pt x="398" y="984" on="0"/>
        <pt x="528" y="1026" on="0"/>
        <pt x="609" y="1026" on="1"/>
        <pt x="690" y="1026" on="0"/>
        <pt x="821" y="985" on="0"/>
        <pt x="872" y="948" on="1"/>
        <pt x="953" y="1030" on="1"/>
        <pt x="963" y="1040" on="0"/>
        <pt x="984" y="1048" on="0"/>
        <pt x="995" y="1048" on="1"/>
        <pt x="1019" y="1048" on="0"/>
        <pt x="1055" y="1012" on="0"/>
        <pt x="1055" y="988" on="1"/>
        <pt x="1055" y="978" on="0"/>
        <pt x="1047" y="956" on="0"/>
        <pt x="1037" y="947" on="1"/>
        <pt x="956" y="867" on="1"/>
        <pt x="1000" y="810" on="0"/>
        <pt x="1042" y="676" on="0"/>
        <pt x="1042" y="607" on="1"/>
        <pt x="1042" y="535" on="0"/>
        <pt x="998" y="399" on="0"/>
        <pt x="953" y="342" on="1"/>
        <pt x="1037" y="260" on="1"/>
        <pt x="1047" y="250" on="0"/>
        <pt x="1055" y="229" on="0"/>
        <pt x="1055" y="218" on="1"/>
        <pt x="1055" y="194" on="0"/>
        <pt x="1019" y="158" on="0"/>
        <pt x="995" y="158" on="1"/>
        <pt x="984" y="158" on="0"/>
        <pt x="963" y="166" on="0"/>
        <pt x="954" y="176" on="1"/>
        <pt x="867" y="264" on="1"/>
        <pt x="816" y="229" on="0"/>
        <pt x="688" y="190" on="0"/>
      </contour>
      <contour>
        <pt x="609" y="913" on="1"/>
        <pt x="535" y="913" on="0"/>
        <pt x="424" y="860" on="0"/>
        <pt x="351" y="774" on="0"/>
        <pt x="314" y="664" on="0"/>
        <pt x="314" y="607" on="1"/>
        <pt x="314" y="550" on="0"/>
        <pt x="351" y="440" on="0"/>
        <pt x="424" y="355" on="0"/>
        <pt x="535" y="302" on="0"/>
        <pt x="609" y="302" on="1"/>
        <pt x="683" y="302" on="0"/>
        <pt x="794" y="355" on="0"/>
        <pt x="868" y="440" on="0"/>
        <pt x="905" y="550" on="0"/>
        <pt x="905" y="607" on="1"/>
        <pt x="905" y="664" on="0"/>
        <pt x="868" y="774" on="0"/>
        <pt x="794" y="860" on="0"/>
        <pt x="683" y="913" on="0"/>
      </contour>
    </TTGlyph>
    <TTGlyph name="d" xMin="85" yMin="-14" xMax="1083" yMax="1437">
      <contour>
        <pt x="1083" y="112" on="1"/>
        <pt x="1083" y="84" on="0"/>
        <pt x="1063" y="42" on="0"/>
        <pt x="1031" y="14" on="0"/>
        <pt x="990" y="0" on="0"/>
        <pt x="968" y="0" on="1"/>
        <pt x="947" y="0" on="0"/>
        <pt x="905" y="13" on="0"/>
        <pt x="872" y="40" on="0"/>
        <pt x="850" y="80" on="0"/>
        <pt x="848" y="106" on="1"/>
        <pt x="848" y="116" on="1"/>
        <pt x="848" y="127" on="0"/>
        <pt x="847" y="154" on="0"/>
        <pt x="846" y="164" on="1"/>
        <pt x="846" y="175" on="1"/>
        <pt x="780" y="82" on="0"/>
        <pt x="604" y="-14" on="0"/>
        <pt x="497" y="-14" on="1"/>
        <pt x="394" y="-14" on="0"/>
        <pt x="240" y="74" on="0"/>
        <pt x="137" y="221" on="0"/>
        <pt x="85" y="412" on="0"/>
        <pt x="85" y="506" on="1"/>
        <pt x="85" y="604" on="0"/>
        <pt x="139" y="794" on="0"/>
        <pt x="244" y="933" on="0"/>
        <pt x="400" y="1013" on="0"/>
        <pt x="502" y="1013" on="1"/>
        <pt x="553" y="1013" on="0"/>
        <pt x="655" y="988" on="0"/>
        <pt x="746" y="939" on="0"/>
        <pt x="822" y="866" on="0"/>
        <pt x="848" y="830" on="1"/>
        <pt x="848" y="1327" on="1"/>
        <pt x="848" y="1355" on="0"/>
        <pt x="868" y="1396" on="0"/>
        <pt x="901" y="1423" on="0"/>
        <pt x="943" y="1437" on="0"/>
        <pt x="965" y="1437" on="1"/>
        <pt x="987" y="1437" on="0"/>
        <pt x="1030" y="1423" on="0"/>
        <pt x="1063" y="1396" on="0"/>
        <pt x="1083" y="1354" on="0"/>
        <pt x="1083" y="1327" on="1"/>
      </contour>
      <contour>
        <pt x="581" y="857" on="1"/>
        <pt x="508" y="857" on="0"/>
        <pt x="411" y="797" on="0"/>
        <pt x="352" y="697" on="0"/>
        <pt x="327" y="568" on="0"/>
        <pt x="327" y="509" on="1"/>
        <pt x="327" y="452" on="0"/>
        <pt x="347" y="319" on="0"/>
        <pt x="401" y="210" on="0"/>
        <pt x="495" y="140" on="0"/>
        <pt x="569" y="140" on="1"/>
        <pt x="650" y="140" on="0"/>
        <pt x="756" y="197" on="0"/>
        <pt x="819" y="298" on="0"/>
        <pt x="845" y="428" on="0"/>
        <pt x="845" y="514" on="1"/>
        <pt x="845" y="591" on="0"/>
        <pt x="818" y="706" on="0"/>
        <pt x="756" y="802" on="0"/>
        <pt x="655" y="857" on="0"/>
      </contour>
    </TTGlyph>
    <TTGlyph name="dagger" xMin="163" yMin="1" xMax="1065" yMax="1477">
      <contour>
        <pt x="721" y="951" on="1"/>
        <pt x="721" y="105" on="1"/>
        <pt x="721" y="79" on="0"/>
        <pt x="703" y="40" on="0"/>
        <pt x="673" y="14" on="0"/>
        <pt x="635" y="1" on="0"/>
        <pt x="615" y="1" on="1"/>
        <pt x="595" y="1" on="0"/>
        <pt x="557" y="14" on="0"/>
        <pt x="527" y="40" on="0"/>
        <pt x="509" y="79" on="0"/>
        <pt x="509" y="105" on="1"/>
        <pt x="509" y="951" on="1"/>
        <pt x="248" y="951" on="1"/>
        <pt x="227" y="951" on="0"/>
        <pt x="195" y="966" on="0"/>
        <pt x="174" y="991" on="0"/>
        <pt x="163" y="1023" on="0"/>
        <pt x="163" y="1040" on="1"/>
        <pt x="163" y="1057" on="0"/>
        <pt x="174" y="1090" on="0"/>
        <pt x="195" y="1115" on="0"/>
        <pt x="227" y="1131" on="0"/>
        <pt x="248" y="1131" on="1"/>
        <pt x="509" y="1131" on="1"/>
        <pt x="509" y="1372" on="1"/>
        <pt x="509" y="1398" on="0"/>
        <pt x="527" y="1438" on="0"/>
        <pt x="557" y="1464" on="0"/>
        <pt x="595" y="1477" on="0"/>
        <pt x="615" y="1477" on="1"/>
        <pt x="635" y="1477" on="0"/>
        <pt x="673" y="1464" on="0"/>
        <pt x="703" y="1437" on="0"/>
        <pt x="721" y="1398" on="0"/>
        <pt x="721" y="1372" on="1"/>
        <pt x="721" y="1131" on="1"/>
        <pt x="978" y="1131" on="1"/>
        <pt x="1000" y="1131" on="0"/>
        <pt x="1032" y="1116" on="0"/>
        <pt x="1054" y="1090" on="0"/>
        <pt x="1065" y="1058" on="0"/>
        <pt x="1065" y="1042" on="1"/>
        <pt x="1065" y="1025" on="0"/>
        <pt x="1054" y="992" on="0"/>
        <pt x="1032" y="966" on="0"/>
        <pt x="1000" y="951" on="0"/>
        <pt x="978" y="951" on="1"/>
      </contour>
    </TTGlyph>
    <TTGlyph name="daggerdbl" xMin="163" yMin="0" xMax="1065" yMax="1477">
      <contour>
        <pt x="718" y="325" on="1"/>
        <pt x="718" y="104" on="1"/>
        <pt x="718" y="78" on="0"/>
        <pt x="700" y="39" on="0"/>
        <pt x="671" y="13" on="0"/>
        <pt x="634" y="0" on="0"/>
        <pt x="615" y="0" on="1"/>
        <pt x="595" y="0" on="0"/>
        <pt x="558" y="13" on="0"/>
        <pt x="530" y="39" on="0"/>
        <pt x="512" y="78" on="0"/>
        <pt x="512" y="104" on="1"/>
        <pt x="512" y="325" on="1"/>
        <pt x="250" y="325" on="1"/>
        <pt x="228" y="325" on="0"/>
        <pt x="196" y="340" on="0"/>
        <pt x="174" y="364" on="0"/>
        <pt x="163" y="395" on="0"/>
        <pt x="163" y="411" on="1"/>
        <pt x="163" y="427" on="0"/>
        <pt x="174" y="458" on="0"/>
        <pt x="196" y="483" on="0"/>
        <pt x="229" y="498" on="0"/>
        <pt x="250" y="498" on="1"/>
        <pt x="512" y="498" on="1"/>
        <pt x="512" y="976" on="1"/>
        <pt x="250" y="976" on="1"/>
        <pt x="228" y="976" on="0"/>
        <pt x="196" y="991" on="0"/>
        <pt x="174" y="1015" on="0"/>
        <pt x="163" y="1046" on="0"/>
        <pt x="163" y="1062" on="1"/>
        <pt x="163" y="1078" on="0"/>
        <pt x="174" y="1109" on="0"/>
        <pt x="196" y="1134" on="0"/>
        <pt x="229" y="1149" on="0"/>
        <pt x="250" y="1149" on="1"/>
        <pt x="512" y="1149" on="1"/>
        <pt x="512" y="1372" on="1"/>
        <pt x="512" y="1398" on="0"/>
        <pt x="530" y="1438" on="0"/>
        <pt x="558" y="1464" on="0"/>
        <pt x="595" y="1477" on="0"/>
        <pt x="615" y="1477" on="1"/>
        <pt x="634" y="1477" on="0"/>
        <pt x="671" y="1464" on="0"/>
        <pt x="700" y="1438" on="0"/>
        <pt x="718" y="1398" on="0"/>
        <pt x="718" y="1372" on="1"/>
        <pt x="718" y="1149" on="1"/>
        <pt x="976" y="1149" on="1"/>
        <pt x="998" y="1149" on="0"/>
        <pt x="1031" y="1134" on="0"/>
        <pt x="1054" y="1110" on="0"/>
        <pt x="1065" y="1079" on="0"/>
        <pt x="1065" y="1063" on="1"/>
        <pt x="1065" y="1047" on="0"/>
        <pt x="1054" y="1016" on="0"/>
        <pt x="1031" y="991" on="0"/>
        <pt x="998" y="976" on="0"/>
        <pt x="976" y="976" on="1"/>
        <pt x="718" y="976" on="1"/>
        <pt x="718" y="498" on="1"/>
        <pt x="976" y="498" on="1"/>
        <pt x="998" y="498" on="0"/>
        <pt x="1031" y="483" on="0"/>
        <pt x="1054" y="459" on="0"/>
        <pt x="1065" y="428" on="0"/>
        <pt x="1065" y="412" on="1"/>
        <pt x="1065" y="396" on="0"/>
        <pt x="1054" y="365" on="0"/>
        <pt x="1031" y="340" on="0"/>
        <pt x="998" y="325" on="0"/>
        <pt x="976" y="325" on="1"/>
      </contour>
    </TTGlyph>
    <TTGlyph name="degree" xMin="107" yMin="840" xMax="713" yMax="1428">
      <contour>
        <pt x="713" y="1134" on="1"/>
        <pt x="713" y="1073" on="0"/>
        <pt x="665" y="966" on="0"/>
        <pt x="582" y="886" on="0"/>
        <pt x="472" y="840" on="0"/>
        <pt x="410" y="840" on="1"/>
        <pt x="347" y="840" on="0"/>
        <pt x="237" y="886" on="0"/>
        <pt x="154" y="966" on="0"/>
        <pt x="107" y="1073" on="0"/>
        <pt x="107" y="1134" on="1"/>
        <pt x="107" y="1195" on="0"/>
        <pt x="154" y="1302" on="0"/>
        <pt x="236" y="1382" on="0"/>
        <pt x="347" y="1428" on="0"/>
        <pt x="410" y="1428" on="1"/>
        <pt x="472" y="1428" on="0"/>
        <pt x="582" y="1382" on="0"/>
        <pt x="665" y="1302" on="0"/>
        <pt x="713" y="1195" on="0"/>
      </contour>
      <contour>
        <pt x="226" y="1134" on="1"/>
        <pt x="226" y="1095" on="0"/>
        <pt x="254" y="1030" on="0"/>
        <pt x="303" y="983" on="0"/>
        <pt x="370" y="956" on="0"/>
        <pt x="410" y="956" on="1"/>
        <pt x="449" y="956" on="0"/>
        <pt x="516" y="983" on="0"/>
        <pt x="566" y="1030" on="0"/>
        <pt x="594" y="1095" on="0"/>
        <pt x="594" y="1134" on="1"/>
        <pt x="594" y="1172" on="0"/>
        <pt x="566" y="1237" on="0"/>
        <pt x="516" y="1285" on="0"/>
        <pt x="448" y="1313" on="0"/>
        <pt x="409" y="1313" on="1"/>
        <pt x="369" y="1313" on="0"/>
        <pt x="302" y="1285" on="0"/>
        <pt x="253" y="1237" on="0"/>
        <pt x="226" y="1172" on="0"/>
      </contour>
    </TTGlyph>
    <TTGlyph name="dieresis" xMin="-48" yMin="1191" xMax="617" yMax="1425">
      <contour>
        <pt x="77" y="1191" on="1"/>
        <pt x="48" y="1191" on="0"/>
        <pt x="2" y="1210" on="0"/>
        <pt x="-30" y="1243" on="0"/>
        <pt x="-48" y="1285" on="0"/>
        <pt x="-48" y="1308" on="1"/>
        <pt x="-48" y="1331" on="0"/>
        <pt x="-30" y="1373" on="0"/>
        <pt x="2" y="1406" on="0"/>
        <pt x="48" y="1425" on="0"/>
        <pt x="77" y="1425" on="1"/>
        <pt x="105" y="1425" on="0"/>
        <pt x="151" y="1406" on="0"/>
        <pt x="184" y="1373" on="0"/>
        <pt x="201" y="1331" on="0"/>
        <pt x="201" y="1308" on="1"/>
        <pt x="201" y="1285" on="0"/>
        <pt x="184" y="1243" on="0"/>
        <pt x="151" y="1210" on="0"/>
        <pt x="105" y="1191" on="0"/>
      </contour>
      <contour>
        <pt x="493" y="1191" on="1"/>
        <pt x="464" y="1191" on="0"/>
        <pt x="418" y="1210" on="0"/>
        <pt x="386" y="1243" on="0"/>
        <pt x="368" y="1285" on="0"/>
        <pt x="368" y="1308" on="1"/>
        <pt x="368" y="1331" on="0"/>
        <pt x="386" y="1373" on="0"/>
        <pt x="418" y="1406" on="0"/>
        <pt x="464" y="1425" on="0"/>
        <pt x="493" y="1425" on="1"/>
        <pt x="521" y="1425" on="0"/>
        <pt x="567" y="1406" on="0"/>
        <pt x="600" y="1373" on="0"/>
        <pt x="617" y="1331" on="0"/>
        <pt x="617" y="1308" on="1"/>
        <pt x="617" y="1285" on="0"/>
        <pt x="600" y="1243" on="0"/>
        <pt x="567" y="1210" on="0"/>
        <pt x="521" y="1191" on="0"/>
      </contour>
    </TTGlyph>
    <TTGlyph name="divide" xMin="127" yMin="-28" xMax="1196" yMax="1059">
      <contour>
        <pt x="207" y="431" on="1"/>
        <pt x="187" y="431" on="0"/>
        <pt x="157" y="445" on="0"/>
        <pt x="137" y="469" on="0"/>
        <pt x="127" y="499" on="0"/>
        <pt x="127" y="515" on="1"/>
        <pt x="127" y="531" on="0"/>
        <pt x="137" y="562" on="0"/>
        <pt x="157" y="586" on="0"/>
        <pt x="187" y="600" on="0"/>
        <pt x="207" y="600" on="1"/>
        <pt x="1117" y="600" on="1"/>
        <pt x="1137" y="600" on="0"/>
        <pt x="1167" y="586" on="0"/>
        <pt x="1186" y="562" on="0"/>
        <pt x="1196" y="531" on="0"/>
        <pt x="1196" y="515" on="1"/>
        <pt x="1196" y="499" on="0"/>
        <pt x="1186" y="469" on="0"/>
        <pt x="1167" y="445" on="0"/>
        <pt x="1137" y="431" on="0"/>
        <pt x="1117" y="431" on="1"/>
      </contour>
      <contour>
        <pt x="537" y="86" on="1"/>
        <pt x="537" y="108" on="0"/>
        <pt x="554" y="149" on="0"/>
        <pt x="585" y="180" on="0"/>
        <pt x="630" y="199" on="0"/>
        <pt x="658" y="199" on="1"/>
        <pt x="686" y="199" on="0"/>
        <pt x="730" y="180" on="0"/>
        <pt x="762" y="149" on="0"/>
        <pt x="779" y="108" on="0"/>
        <pt x="779" y="86" on="1"/>
        <pt x="779" y="63" on="0"/>
        <pt x="762" y="22" on="0"/>
        <pt x="730" y="-9" on="0"/>
        <pt x="686" y="-28" on="0"/>
        <pt x="658" y="-28" on="1"/>
        <pt x="630" y="-28" on="0"/>
        <pt x="585" y="-9" on="0"/>
        <pt x="554" y="22" on="0"/>
        <pt x="537" y="63" on="0"/>
      </contour>
      <contour>
        <pt x="537" y="946" on="1"/>
        <pt x="537" y="968" on="0"/>
        <pt x="554" y="1009" on="0"/>
        <pt x="585" y="1040" on="0"/>
        <pt x="630" y="1059" on="0"/>
        <pt x="658" y="1059" on="1"/>
        <pt x="686" y="1059" on="0"/>
        <pt x="730" y="1040" on="0"/>
        <pt x="762" y="1009" on="0"/>
        <pt x="779" y="968" on="0"/>
        <pt x="779" y="946" on="1"/>
        <pt x="779" y="923" on="0"/>
        <pt x="762" y="882" on="0"/>
        <pt x="730" y="851" on="0"/>
        <pt x="686" y="832" on="0"/>
        <pt x="658" y="832" on="1"/>
        <pt x="630" y="832" on="0"/>
        <pt x="585" y="851" on="0"/>
        <pt x="554" y="882" on="0"/>
        <pt x="537" y="923" on="0"/>
      </contour>
    </TTGlyph>
    <TTGlyph name="dollar" xMin="86" yMin="-192" xMax="1182" yMax="1572">
      <contour>
        <pt x="561" y="-40" on="1"/>
        <pt x="507" y="-38" on="0"/>
        <pt x="401" y="-22" on="0"/>
        <pt x="303" y="0" on="0"/>
        <pt x="217" y="26" on="0"/>
        <pt x="183" y="39" on="1"/>
        <pt x="145" y="53" on="0"/>
        <pt x="110" y="106" on="0"/>
        <pt x="110" y="134" on="1"/>
        <pt x="110" y="152" on="0"/>
        <pt x="123" y="187" on="0"/>
        <pt x="146" y="213" on="0"/>
        <pt x="178" y="229" on="0"/>
        <pt x="198" y="229" on="1"/>
        <pt x="213" y="229" on="0"/>
        <pt x="231" y="223" on="1"/>
        <pt x="270" y="210" on="0"/>
        <pt x="350" y="186" on="0"/>
        <pt x="441" y="167" on="0"/>
        <pt x="549" y="155" on="0"/>
        <pt x="615" y="155" on="1"/>
        <pt x="673" y="155" on="0"/>
        <pt x="781" y="181" on="0"/>
        <pt x="865" y="232" on="0"/>
        <pt x="916" y="309" on="0"/>
        <pt x="916" y="361" on="1"/>
        <pt x="916" y="409" on="0"/>
        <pt x="873" y="480" on="0"/>
        <pt x="800" y="533" on="0"/>
        <pt x="700" y="573" on="0"/>
        <pt x="586" y="609" on="0"/>
        <pt x="462" y="643" on="0"/>
        <pt x="402" y="664" on="1"/>
        <pt x="331" y="688" on="0"/>
        <pt x="215" y="753" on="0"/>
        <pt x="132" y="842" on="0"/>
        <pt x="86" y="960" on="0"/>
        <pt x="86" y="1037" on="1"/>
        <pt x="86" y="1123" on="0"/>
        <pt x="157" y="1262" on="0"/>
        <pt x="284" y="1364" on="0"/>
        <pt x="458" y="1426" on="0"/>
        <pt x="561" y="1434" on="1"/>
        <pt x="561" y="1511" on="1"/>
        <pt x="561" y="1541" on="0"/>
        <pt x="599" y="1572" on="0"/>
        <pt x="622" y="1572" on="1"/>
        <pt x="645" y="1572" on="0"/>
        <pt x="682" y="1542" on="0"/>
        <pt x="682" y="1511" on="1"/>
        <pt x="682" y="1434" on="1"/>
        <pt x="725" y="1432" on="0"/>
        <pt x="816" y="1423" on="0"/>
        <pt x="906" y="1408" on="0"/>
        <pt x="990" y="1386" on="0"/>
        <pt x="1026" y="1373" on="1"/>
        <pt x="1065" y="1358" on="0"/>
        <pt x="1101" y="1304" on="0"/>
        <pt x="1101" y="1275" on="1"/>
        <pt x="1101" y="1240" on="0"/>
        <pt x="1055" y="1187" on="0"/>
        <pt x="1012" y="1187" on="1"/>
        <pt x="1004" y="1186" on="0"/>
        <pt x="987" y="1190" on="0"/>
        <pt x="977" y="1192" on="1"/>
        <pt x="944" y="1200" on="0"/>
        <pt x="859" y="1218" on="0"/>
        <pt x="768" y="1232" on="0"/>
        <pt x="675" y="1241" on="0"/>
        <pt x="634" y="1241" on="1"/>
        <pt x="584" y="1241" on="0"/>
        <pt x="481" y="1220" on="0"/>
        <pt x="399" y="1177" on="0"/>
        <pt x="347" y="1109" on="0"/>
        <pt x="347" y="1062" on="1"/>
        <pt x="347" y="1019" on="0"/>
        <pt x="379" y="954" on="0"/>
        <pt x="435" y="904" on="0"/>
        <pt x="509" y="867" on="0"/>
        <pt x="550" y="852" on="1"/>
        <pt x="618" y="828" on="0"/>
        <pt x="765" y="787" on="0"/>
        <pt x="905" y="738" on="0"/>
        <pt x="1031" y="676" on="0"/>
        <pt x="1126" y="588" on="0"/>
        <pt x="1182" y="469" on="0"/>
        <pt x="1182" y="387" on="1"/>
        <pt x="1182" y="294" on="0"/>
        <pt x="1106" y="144" on="0"/>
        <pt x="973" y="34" on="0"/>
        <pt x="790" y="-31" on="0"/>
        <pt x="682" y="-39" on="1"/>
        <pt x="682" y="-132" on="1"/>
        <pt x="682" y="-161" on="0"/>
        <pt x="643" y="-192" on="0"/>
        <pt x="620" y="-192" on="1"/>
        <pt x="597" y="-192" on="0"/>
        <pt x="561" y="-163" on="0"/>
        <pt x="561" y="-132" on="1"/>
      </contour>
    </TTGlyph>
    <TTGlyph name="dotaccent" xMin="148" yMin="1218" xMax="421" yMax="1475">
      <contour>
        <pt x="148" y="1347" on="1"/>
        <pt x="148" y="1372" on="0"/>
        <pt x="167" y="1418" on="0"/>
        <pt x="203" y="1454" on="0"/>
        <pt x="253" y="1475" on="0"/>
        <pt x="284" y="1475" on="1"/>
        <pt x="315" y="1475" on="0"/>
        <pt x="366" y="1454" on="0"/>
        <pt x="402" y="1418" on="0"/>
        <pt x="421" y="1372" on="0"/>
        <pt x="421" y="1347" on="1"/>
        <pt x="421" y="1321" on="0"/>
        <pt x="402" y="1274" on="0"/>
        <pt x="366" y="1239" on="0"/>
        <pt x="315" y="1218" on="0"/>
        <pt x="284" y="1218" on="1"/>
        <pt x="253" y="1218" on="0"/>
        <pt x="203" y="1239" on="0"/>
        <pt x="167" y="1274" on="0"/>
        <pt x="148" y="1321" on="0"/>
      </contour>
    </TTGlyph>
    <TTGlyph name="dotlessi" xMin="138" yMin="0" xMax="373" yMax="1002">
      <contour>
        <pt x="138" y="885" on="1"/>
        <pt x="138" y="914" on="0"/>
        <pt x="158" y="958" on="0"/>
        <pt x="191" y="987" on="0"/>
        <pt x="234" y="1002" on="0"/>
        <pt x="256" y="1002" on="1"/>
        <pt x="278" y="1002" on="0"/>
        <pt x="320" y="987" on="0"/>
        <pt x="353" y="958" on="0"/>
        <pt x="373" y="914" on="0"/>
        <pt x="373" y="885" on="1"/>
        <pt x="373" y="116" on="1"/>
        <pt x="373" y="87" on="0"/>
        <pt x="352" y="44" on="0"/>
        <pt x="319" y="15" on="0"/>
        <pt x="276" y="0" on="0"/>
        <pt x="254" y="0" on="1"/>
        <pt x="232" y="0" on="0"/>
        <pt x="190" y="14" on="0"/>
        <pt x="158" y="43" on="0"/>
        <pt x="138" y="87" on="0"/>
        <pt x="138" y="116" on="1"/>
      </contour>
    </TTGlyph>
    <TTGlyph name="e" xMin="85" yMin="-12" xMax="1073" yMax="1013">
      <contour>
        <pt x="1073" y="533" on="1"/>
        <pt x="1073" y="506" on="0"/>
        <pt x="1038" y="465" on="0"/>
        <pt x="1002" y="465" on="1"/>
        <pt x="321" y="465" on="1"/>
        <pt x="330" y="320" on="0"/>
        <pt x="491" y="160" on="0"/>
        <pt x="623" y="160" on="1"/>
        <pt x="704" y="160" on="0"/>
        <pt x="848" y="206" on="0"/>
        <pt x="923" y="244" on="1"/>
        <pt x="941" y="253" on="0"/>
        <pt x="957" y="253" on="1"/>
        <pt x="984" y="253" on="0"/>
        <pt x="1017" y="213" on="0"/>
        <pt x="1017" y="187" on="1"/>
        <pt x="1017" y="176" on="0"/>
        <pt x="1010" y="151" on="0"/>
        <pt x="1002" y="140" on="1"/>
        <pt x="970" y="99" on="0"/>
        <pt x="877" y="41" on="0"/>
        <pt x="769" y="5" on="0"/>
        <pt x="654" y="-12" on="0"/>
        <pt x="600" y="-12" on="1"/>
        <pt x="491" y="-12" on="0"/>
        <pt x="303" y="60" on="0"/>
        <pt x="164" y="197" on="0"/>
        <pt x="85" y="398" on="0"/>
        <pt x="85" y="505" on="1"/>
        <pt x="85" y="596" on="0"/>
        <pt x="159" y="784" on="0"/>
        <pt x="288" y="924" on="0"/>
        <pt x="469" y="1013" on="0"/>
        <pt x="589" y="1013" on="1"/>
        <pt x="712" y="1013" on="0"/>
        <pt x="891" y="935" on="0"/>
        <pt x="1010" y="805" on="0"/>
        <pt x="1071" y="624" on="0"/>
      </contour>
      <contour>
        <pt x="865" y="585" on="1"/>
        <pt x="861" y="633" on="0"/>
        <pt x="823" y="741" on="0"/>
        <pt x="754" y="818" on="0"/>
        <pt x="655" y="857" on="0"/>
        <pt x="591" y="857" on="1"/>
        <pt x="533" y="857" on="0"/>
        <pt x="438" y="815" on="0"/>
        <pt x="369" y="735" on="0"/>
        <pt x="327" y="629" on="0"/>
        <pt x="323" y="585" on="1"/>
      </contour>
    </TTGlyph>
    <TTGlyph name="eacute" xMin="87" yMin="-12" xMax="1075" yMax="1548">
      <component glyphName="acute" x="294" y="0" flags="0x1004"/>
      <component glyphName="e" x="2" y="0" flags="0x1004"/>
    </TTGlyph>
    <TTGlyph name="ecircumflex" xMin="87" yMin="-12" xMax="1075" yMax="1555">
      <component glyphName="circumflex" x="306" y="0" flags="0x1004"/>
      <component glyphName="e" x="2" y="0" flags="0x1004"/>
    </TTGlyph>
    <TTGlyph name="edieresis" xMin="87" yMin="-12" xMax="1075" yMax="1425">
      <component glyphName="dieresis" x="304" y="0" flags="0x1004"/>
      <component glyphName="e" x="2" y="0" flags="0x1004"/>
    </TTGlyph>
    <TTGlyph name="egrave" xMin="87" yMin="-12" xMax="1075" yMax="1548">
      <component glyphName="e" x="2" y="0" flags="0x1004"/>
      <component glyphName="grave" x="332" y="0" flags="0x1004"/>
    </TTGlyph>
    <TTGlyph name="eight" xMin="79" yMin="-23" xMax="1151" yMax="1438">
      <contour>
        <pt x="383" y="733" on="1"/>
        <pt x="321" y="741" on="0"/>
        <pt x="219" y="794" on="0"/>
        <pt x="145" y="877" on="0"/>
        <pt x="104" y="986" on="0"/>
        <pt x="104" y="1049" on="1"/>
        <pt x="104" y="1145" on="0"/>
        <pt x="183" y="1290" on="0"/>
        <pt x="321" y="1388" on="0"/>
        <pt x="507" y="1438" on="0"/>
        <pt x="614" y="1438" on="1"/>
        <pt x="722" y="1438" on="0"/>
        <pt x="909" y="1388" on="0"/>
        <pt x="1047" y="1290" on="0"/>
        <pt x="1127" y="1145" on="0"/>
        <pt x="1127" y="1049" on="1"/>
        <pt x="1127" y="985" on="0"/>
        <pt x="1086" y="880" on="0"/>
        <pt x="1012" y="800" on="0"/>
        <pt x="909" y="746" on="0"/>
        <pt x="848" y="733" on="1"/>
        <pt x="848" y="731" on="1"/>
        <pt x="994" y="696" on="0"/>
        <pt x="1151" y="521" on="0"/>
        <pt x="1151" y="385" on="1"/>
        <pt x="1151" y="289" on="0"/>
        <pt x="1073" y="137" on="0"/>
        <pt x="931" y="32" on="0"/>
        <pt x="734" y="-23" on="0"/>
        <pt x="614" y="-23" on="1"/>
        <pt x="495" y="-23" on="0"/>
        <pt x="298" y="32" on="0"/>
        <pt x="157" y="137" on="0"/>
        <pt x="79" y="289" on="0"/>
        <pt x="79" y="385" on="1"/>
        <pt x="79" y="451" on="0"/>
        <pt x="120" y="564" on="0"/>
        <pt x="198" y="653" on="0"/>
        <pt x="311" y="714" on="0"/>
        <pt x="383" y="729" on="1"/>
      </contour>
      <contour>
        <pt x="354" y="1041" on="1"/>
        <pt x="354" y="985" on="0"/>
        <pt x="393" y="903" on="0"/>
        <pt x="462" y="849" on="0"/>
        <pt x="558" y="822" on="0"/>
        <pt x="615" y="822" on="1"/>
        <pt x="673" y="822" on="0"/>
        <pt x="769" y="849" on="0"/>
        <pt x="838" y="903" on="0"/>
        <pt x="877" y="985" on="0"/>
        <pt x="877" y="1041" on="1"/>
        <pt x="877" y="1100" on="0"/>
        <pt x="832" y="1184" on="0"/>
        <pt x="759" y="1237" on="0"/>
        <pt x="664" y="1262" on="0"/>
        <pt x="615" y="1262" on="1"/>
        <pt x="566" y="1262" on="0"/>
        <pt x="472" y="1237" on="0"/>
        <pt x="399" y="1184" on="0"/>
        <pt x="354" y="1100" on="0"/>
      </contour>
      <contour>
        <pt x="340" y="403" on="1"/>
        <pt x="340" y="339" on="0"/>
        <pt x="385" y="248" on="0"/>
        <pt x="461" y="189" on="0"/>
        <pt x="561" y="161" on="0"/>
        <pt x="615" y="161" on="1"/>
        <pt x="669" y="161" on="0"/>
        <pt x="768" y="189" on="0"/>
        <pt x="844" y="248" on="0"/>
        <pt x="889" y="339" on="0"/>
        <pt x="889" y="403" on="1"/>
        <pt x="889" y="467" on="0"/>
        <pt x="844" y="558" on="0"/>
        <pt x="768" y="617" on="0"/>
        <pt x="669" y="645" on="0"/>
        <pt x="615" y="645" on="1"/>
        <pt x="561" y="645" on="0"/>
        <pt x="461" y="617" on="0"/>
        <pt x="385" y="558" on="0"/>
        <pt x="340" y="467" on="0"/>
      </contour>
    </TTGlyph>
    <TTGlyph name="ellipsis" xMin="171" yMin="-3" xMax="1672" yMax="254">
      <contour>
        <pt x="171" y="126" on="1"/>
        <pt x="171" y="151" on="0"/>
        <pt x="190" y="197" on="0"/>
        <pt x="226" y="233" on="0"/>
        <pt x="276" y="254" on="0"/>
        <pt x="307" y="254" on="1"/>
        <pt x="338" y="254" on="0"/>
        <pt x="388" y="233" on="0"/>
        <pt x="424" y="197" on="0"/>
        <pt x="443" y="151" on="0"/>
        <pt x="443" y="126" on="1"/>
        <pt x="443" y="100" on="0"/>
        <pt x="424" y="54" on="0"/>
        <pt x="388" y="18" on="0"/>
        <pt x="338" y="-3" on="0"/>
        <pt x="307" y="-3" on="1"/>
        <pt x="276" y="-3" on="0"/>
        <pt x="226" y="18" on="0"/>
        <pt x="190" y="54" on="0"/>
        <pt x="171" y="100" on="0"/>
      </contour>
      <contour>
        <pt x="785" y="126" on="1"/>
        <pt x="785" y="151" on="0"/>
        <pt x="804" y="197" on="0"/>
        <pt x="840" y="233" on="0"/>
        <pt x="890" y="254" on="0"/>
        <pt x="921" y="254" on="1"/>
        <pt x="952" y="254" on="0"/>
        <pt x="1003" y="233" on="0"/>
        <pt x="1039" y="197" on="0"/>
        <pt x="1058" y="151" on="0"/>
        <pt x="1058" y="126" on="1"/>
        <pt x="1058" y="100" on="0"/>
        <pt x="1039" y="54" on="0"/>
        <pt x="1003" y="18" on="0"/>
        <pt x="952" y="-3" on="0"/>
        <pt x="921" y="-3" on="1"/>
        <pt x="890" y="-3" on="0"/>
        <pt x="840" y="18" on="0"/>
        <pt x="804" y="54" on="0"/>
        <pt x="785" y="100" on="0"/>
      </contour>
      <contour>
        <pt x="1400" y="126" on="1"/>
        <pt x="1400" y="151" on="0"/>
        <pt x="1419" y="197" on="0"/>
        <pt x="1455" y="233" on="0"/>
        <pt x="1505" y="254" on="0"/>
        <pt x="1536" y="254" on="1"/>
        <pt x="1567" y="254" on="0"/>
        <pt x="1617" y="233" on="0"/>
        <pt x="1653" y="197" on="0"/>
        <pt x="1672" y="151" on="0"/>
        <pt x="1672" y="126" on="1"/>
        <pt x="1672" y="100" on="0"/>
        <pt x="1653" y="54" on="0"/>
        <pt x="1617" y="18" on="0"/>
        <pt x="1567" y="-3" on="0"/>
        <pt x="1536" y="-3" on="1"/>
        <pt x="1505" y="-3" on="0"/>
        <pt x="1455" y="18" on="0"/>
        <pt x="1419" y="54" on="0"/>
        <pt x="1400" y="100" on="0"/>
      </contour>
    </TTGlyph>
    <TTGlyph name="emdash" xMin="1" yMin="438" xMax="2046" yMax="625">
      <contour>
        <pt x="88" y="438" on="1"/>
        <pt x="66" y="438" on="0"/>
        <pt x="34" y="454" on="0"/>
        <pt x="12" y="481" on="0"/>
        <pt x="1" y="514" on="0"/>
        <pt x="1" y="532" on="1"/>
        <pt x="1" y="549" on="0"/>
        <pt x="12" y="583" on="0"/>
        <pt x="34" y="609" on="0"/>
        <pt x="66" y="625" on="0"/>
        <pt x="88" y="625" on="1"/>
        <pt x="1959" y="625" on="1"/>
        <pt x="1981" y="625" on="0"/>
        <pt x="2013" y="609" on="0"/>
        <pt x="2035" y="582" on="0"/>
        <pt x="2046" y="549" on="0"/>
        <pt x="2046" y="531" on="1"/>
        <pt x="2046" y="513" on="0"/>
        <pt x="2035" y="480" on="0"/>
        <pt x="2013" y="454" on="0"/>
        <pt x="1981" y="438" on="0"/>
        <pt x="1959" y="438" on="1"/>
      </contour>
    </TTGlyph>
    <TTGlyph name="endash" xMin="1" yMin="438" xMax="1021" yMax="625">
      <contour>
        <pt x="90" y="438" on="1"/>
        <pt x="68" y="438" on="0"/>
        <pt x="35" y="454" on="0"/>
        <pt x="12" y="481" on="0"/>
        <pt x="1" y="514" on="0"/>
        <pt x="1" y="532" on="1"/>
        <pt x="1" y="549" on="0"/>
        <pt x="12" y="583" on="0"/>
        <pt x="35" y="609" on="0"/>
        <pt x="68" y="625" on="0"/>
        <pt x="90" y="625" on="1"/>
        <pt x="933" y="625" on="1"/>
        <pt x="955" y="625" on="0"/>
        <pt x="988" y="609" on="0"/>
        <pt x="1010" y="582" on="0"/>
        <pt x="1021" y="549" on="0"/>
        <pt x="1021" y="531" on="1"/>
        <pt x="1021" y="513" on="0"/>
        <pt x="1010" y="480" on="0"/>
        <pt x="988" y="454" on="0"/>
        <pt x="955" y="438" on="0"/>
        <pt x="933" y="438" on="1"/>
      </contour>
    </TTGlyph>
    <TTGlyph name="equal" xMin="144" yMin="210" xMax="1171" yMax="793">
      <contour>
        <pt x="229" y="210" on="1"/>
        <pt x="211" y="210" on="0"/>
        <pt x="180" y="223" on="0"/>
        <pt x="157" y="245" on="0"/>
        <pt x="144" y="275" on="0"/>
        <pt x="144" y="292" on="1"/>
        <pt x="144" y="328" on="0"/>
        <pt x="193" y="376" on="0"/>
        <pt x="229" y="376" on="1"/>
        <pt x="1086" y="376" on="1"/>
        <pt x="1121" y="376" on="0"/>
        <pt x="1171" y="328" on="0"/>
        <pt x="1171" y="292" on="1"/>
        <pt x="1171" y="275" on="0"/>
        <pt x="1158" y="245" on="0"/>
        <pt x="1135" y="223" on="0"/>
        <pt x="1104" y="210" on="0"/>
        <pt x="1086" y="210" on="1"/>
      </contour>
      <contour>
        <pt x="229" y="626" on="1"/>
        <pt x="211" y="626" on="0"/>
        <pt x="180" y="639" on="0"/>
        <pt x="157" y="662" on="0"/>
        <pt x="144" y="692" on="0"/>
        <pt x="144" y="709" on="1"/>
        <pt x="144" y="744" on="0"/>
        <pt x="193" y="793" on="0"/>
        <pt x="229" y="793" on="1"/>
        <pt x="1086" y="793" on="1"/>
        <pt x="1121" y="793" on="0"/>
        <pt x="1171" y="744" on="0"/>
        <pt x="1171" y="709" on="1"/>
        <pt x="1171" y="692" on="0"/>
        <pt x="1158" y="662" on="0"/>
        <pt x="1135" y="639" on="0"/>
        <pt x="1104" y="626" on="0"/>
        <pt x="1086" y="626" on="1"/>
      </contour>
    </TTGlyph>
    <TTGlyph name="eth" xMin="82" yMin="-34" xMax="1294" yMax="1551">
      <contour>
        <pt x="611" y="1059" on="1"/>
        <pt x="576" y="1059" on="0"/>
        <pt x="541" y="1101" on="0"/>
        <pt x="541" y="1127" on="1"/>
        <pt x="541" y="1153" on="0"/>
        <pt x="576" y="1197" on="0"/>
        <pt x="611" y="1197" on="1"/>
        <pt x="788" y="1197" on="1"/>
        <pt x="779" y="1219" on="0"/>
        <pt x="753" y="1271" on="0"/>
        <pt x="723" y="1322" on="0"/>
        <pt x="690" y="1369" on="0"/>
        <pt x="673" y="1388" on="1"/>
        <pt x="651" y="1419" on="0"/>
        <pt x="651" y="1450" on="1"/>
        <pt x="651" y="1471" on="0"/>
        <pt x="669" y="1508" on="0"/>
        <pt x="701" y="1535" on="0"/>
        <pt x="741" y="1551" on="0"/>
        <pt x="764" y="1551" on="1"/>
        <pt x="801" y="1551" on="0"/>
        <pt x="876" y="1497" on="0"/>
        <pt x="948" y="1401" on="0"/>
        <pt x="1016" y="1272" on="0"/>
        <pt x="1046" y="1197" on="1"/>
        <pt x="1225" y="1197" on="1"/>
        <pt x="1260" y="1197" on="0"/>
        <pt x="1294" y="1154" on="0"/>
        <pt x="1294" y="1128" on="1"/>
        <pt x="1294" y="1102" on="0"/>
        <pt x="1260" y="1059" on="0"/>
        <pt x="1225" y="1059" on="1"/>
        <pt x="1094" y="1059" on="1"/>
        <pt x="1122" y="951" on="0"/>
        <pt x="1148" y="735" on="0"/>
        <pt x="1148" y="636" on="1"/>
        <pt x="1148" y="499" on="0"/>
        <pt x="1089" y="255" on="0"/>
        <pt x="957" y="72" on="0"/>
        <pt x="744" y="-34" on="0"/>
        <pt x="590" y="-34" on="1"/>
        <pt x="472" y="-34" on="0"/>
        <pt x="284" y="38" on="0"/>
        <pt x="152" y="167" on="0"/>
        <pt x="82" y="345" on="0"/>
        <pt x="82" y="451" on="1"/>
        <pt x="82" y="554" on="0"/>
        <pt x="146" y="722" on="0"/>
        <pt x="264" y="840" on="0"/>
        <pt x="431" y="904" on="0"/>
        <pt x="533" y="904" on="1"/>
        <pt x="589" y="904" on="0"/>
        <pt x="695" y="881" on="0"/>
        <pt x="786" y="835" on="0"/>
        <pt x="861" y="763" on="0"/>
        <pt x="887" y="714" on="1"/>
        <pt x="890" y="716" on="1"/>
        <pt x="890" y="789" on="0"/>
        <pt x="868" y="966" on="0"/>
        <pt x="841" y="1059" on="1"/>
      </contour>
      <contour>
        <pt x="599" y="149" on="1"/>
        <pt x="657" y="149" on="0"/>
        <pt x="755" y="193" on="0"/>
        <pt x="826" y="270" on="0"/>
        <pt x="865" y="374" on="0"/>
        <pt x="865" y="435" on="1"/>
        <pt x="865" y="503" on="0"/>
        <pt x="828" y="616" on="0"/>
        <pt x="755" y="697" on="0"/>
        <pt x="649" y="742" on="0"/>
        <pt x="580" y="742" on="1"/>
        <pt x="515" y="742" on="0"/>
        <pt x="421" y="695" on="0"/>
        <pt x="360" y="613" on="0"/>
        <pt x="331" y="504" on="0"/>
        <pt x="331" y="441" on="1"/>
        <pt x="331" y="375" on="0"/>
        <pt x="366" y="267" on="0"/>
        <pt x="435" y="190" on="0"/>
        <pt x="534" y="149" on="0"/>
      </contour>
    </TTGlyph>
    <TTGlyph name="exclam" xMin="249" yMin="0" xMax="528" yMax="1479">
      <contour>
        <pt x="389" y="216" on="1"/>
        <pt x="423" y="216" on="0"/>
        <pt x="475" y="197" on="0"/>
        <pt x="510" y="167" on="0"/>
        <pt x="528" y="129" on="0"/>
        <pt x="528" y="109" on="1"/>
        <pt x="528" y="88" on="0"/>
        <pt x="510" y="49" on="0"/>
        <pt x="475" y="19" on="0"/>
        <pt x="423" y="0" on="0"/>
        <pt x="389" y="0" on="1"/>
        <pt x="354" y="0" on="0"/>
        <pt x="302" y="19" on="0"/>
        <pt x="267" y="49" on="0"/>
        <pt x="249" y="88" on="0"/>
        <pt x="249" y="109" on="1"/>
        <pt x="249" y="128" on="0"/>
        <pt x="267" y="167" on="0"/>
        <pt x="302" y="197" on="0"/>
        <pt x="354" y="216" on="0"/>
      </contour>
      <contour>
        <pt x="252" y="1364" on="1"/>
        <pt x="252" y="1366" on="0"/>
        <pt x="251" y="1371" on="0"/>
        <pt x="251" y="1374" on="1"/>
        <pt x="251" y="1400" on="0"/>
        <pt x="274" y="1439" on="0"/>
        <pt x="312" y="1466" on="0"/>
        <pt x="361" y="1479" on="0"/>
        <pt x="386" y="1479" on="1"/>
        <pt x="411" y="1479" on="0"/>
        <pt x="458" y="1466" on="0"/>
        <pt x="494" y="1439" on="0"/>
        <pt x="516" y="1398" on="0"/>
        <pt x="516" y="1370" on="1"/>
        <pt x="516" y="1364" on="1"/>
        <pt x="484" y="491" on="1"/>
        <pt x="483" y="462" on="0"/>
        <pt x="465" y="419" on="0"/>
        <pt x="436" y="390" on="0"/>
        <pt x="401" y="375" on="0"/>
        <pt x="383" y="375" on="1"/>
        <pt x="365" y="375" on="0"/>
        <pt x="330" y="390" on="0"/>
        <pt x="302" y="419" on="0"/>
        <pt x="284" y="462" on="0"/>
        <pt x="283" y="491" on="1"/>
      </contour>
    </TTGlyph>
    <TTGlyph name="exclamdown" xMin="267" yMin="-372" xMax="546" yMax="1107">
      <component glyphName="exclam" x="18" y="1107" scalex="1.0" scaley="-0.999877929688" flags="0x1004"/>
    </TTGlyph>
    <TTGlyph name="f" xMin="31" yMin="0" xMax="738" yMax="1458">
      <contour>
        <pt x="456" y="852" on="1"/>
        <pt x="456" y="115" on="1"/>
        <pt x="456" y="86" on="0"/>
        <pt x="436" y="43" on="0"/>
        <pt x="403" y="14" on="0"/>
        <pt x="360" y="0" on="0"/>
        <pt x="338" y="0" on="1"/>
        <pt x="316" y="0" on="0"/>
        <pt x="274" y="14" on="0"/>
        <pt x="241" y="43" on="0"/>
        <pt x="221" y="86" on="0"/>
        <pt x="221" y="115" on="1"/>
        <pt x="221" y="852" on="1"/>
        <pt x="114" y="852" on="1"/>
        <pt x="72" y="852" on="0"/>
        <pt x="31" y="898" on="0"/>
        <pt x="31" y="927" on="1"/>
        <pt x="31" y="955" on="0"/>
        <pt x="72" y="1001" on="0"/>
        <pt x="114" y="1001" on="1"/>
        <pt x="221" y="1001" on="1"/>
        <pt x="221" y="1089" on="1"/>
        <pt x="221" y="1191" on="0"/>
        <pt x="260" y="1332" on="0"/>
        <pt x="335" y="1419" on="0"/>
        <pt x="444" y="1458" on="0"/>
        <pt x="515" y="1458" on="1"/>
        <pt x="557" y="1458" on="0"/>
        <pt x="643" y="1446" on="0"/>
        <pt x="684" y="1435" on="1"/>
        <pt x="712" y="1427" on="0"/>
        <pt x="738" y="1385" on="0"/>
        <pt x="738" y="1360" on="1"/>
        <pt x="738" y="1345" on="0"/>
        <pt x="729" y="1317" on="0"/>
        <pt x="712" y="1295" on="0"/>
        <pt x="686" y="1282" on="0"/>
        <pt x="669" y="1282" on="1"/>
        <pt x="643" y="1282" on="0"/>
        <pt x="605" y="1289" on="0"/>
        <pt x="585" y="1289" on="1"/>
        <pt x="543" y="1289" on="0"/>
        <pt x="492" y="1266" on="0"/>
        <pt x="465" y="1208" on="0"/>
        <pt x="456" y="1107" on="0"/>
        <pt x="456" y="1029" on="1"/>
        <pt x="456" y="1001" on="1"/>
        <pt x="598" y="1001" on="1"/>
        <pt x="640" y="1001" on="0"/>
        <pt x="681" y="955" on="0"/>
        <pt x="681" y="927" on="1"/>
        <pt x="681" y="898" on="0"/>
        <pt x="640" y="852" on="0"/>
        <pt x="598" y="852" on="1"/>
      </contour>
    </TTGlyph>
    <TTGlyph name="fi" xMin="16" yMin="0" xMax="1110" yMax="1458">
      <contour>
        <pt x="854" y="845" on="1"/>
        <pt x="444" y="845" on="1"/>
        <pt x="444" y="116" on="1"/>
        <pt x="444" y="87" on="0"/>
        <pt x="424" y="44" on="0"/>
        <pt x="391" y="15" on="0"/>
        <pt x="349" y="1" on="0"/>
        <pt x="327" y="1" on="1"/>
        <pt x="305" y="1" on="0"/>
        <pt x="263" y="15" on="0"/>
        <pt x="230" y="44" on="0"/>
        <pt x="210" y="87" on="0"/>
        <pt x="210" y="116" on="1"/>
        <pt x="210" y="845" on="1"/>
        <pt x="99" y="845" on="1"/>
        <pt x="58" y="845" on="0"/>
        <pt x="16" y="893" on="0"/>
        <pt x="16" y="922" on="1"/>
        <pt x="16" y="951" on="0"/>
        <pt x="57" y="999" on="0"/>
        <pt x="99" y="999" on="1"/>
        <pt x="210" y="999" on="1"/>
        <pt x="210" y="1089" on="1"/>
        <pt x="210" y="1191" on="0"/>
        <pt x="249" y="1332" on="0"/>
        <pt x="324" y="1419" on="0"/>
        <pt x="433" y="1458" on="0"/>
        <pt x="503" y="1458" on="1"/>
        <pt x="587" y="1458" on="0"/>
        <pt x="668" y="1437" on="1"/>
        <pt x="697" y="1429" on="0"/>
        <pt x="725" y="1384" on="0"/>
        <pt x="725" y="1358" on="1"/>
        <pt x="725" y="1327" on="0"/>
        <pt x="688" y="1276" on="0"/>
        <pt x="653" y="1276" on="1"/>
        <pt x="629" y="1276" on="0"/>
        <pt x="588" y="1283" on="0"/>
        <pt x="566" y="1283" on="1"/>
        <pt x="523" y="1283" on="0"/>
        <pt x="474" y="1262" on="0"/>
        <pt x="450" y="1206" on="0"/>
        <pt x="444" y="1107" on="0"/>
        <pt x="444" y="1029" on="1"/>
        <pt x="444" y="999" on="1"/>
        <pt x="968" y="999" on="1"/>
        <pt x="990" y="999" on="0"/>
        <pt x="1034" y="985" on="0"/>
        <pt x="1068" y="956" on="0"/>
        <pt x="1089" y="913" on="0"/>
        <pt x="1089" y="883" on="1"/>
        <pt x="1089" y="116" on="1"/>
        <pt x="1089" y="87" on="0"/>
        <pt x="1068" y="44" on="0"/>
        <pt x="1035" y="15" on="0"/>
        <pt x="992" y="0" on="0"/>
        <pt x="970" y="0" on="1"/>
        <pt x="948" y="0" on="0"/>
        <pt x="906" y="14" on="0"/>
        <pt x="874" y="43" on="0"/>
        <pt x="854" y="87" on="0"/>
        <pt x="854" y="116" on="1"/>
      </contour>
      <contour>
        <pt x="1110" y="1333" on="1"/>
        <pt x="1110" y="1284" on="0"/>
        <pt x="1032" y="1221" on="0"/>
        <pt x="971" y="1221" on="1"/>
        <pt x="941" y="1221" on="0"/>
        <pt x="890" y="1238" on="0"/>
        <pt x="853" y="1268" on="0"/>
        <pt x="832" y="1309" on="0"/>
        <pt x="832" y="1333" on="1"/>
        <pt x="832" y="1357" on="0"/>
        <pt x="853" y="1398" on="0"/>
        <pt x="890" y="1428" on="0"/>
        <pt x="941" y="1445" on="0"/>
        <pt x="971" y="1445" on="1"/>
        <pt x="1032" y="1445" on="0"/>
        <pt x="1110" y="1382" on="0"/>
      </contour>
    </TTGlyph>
    <TTGlyph name="five" xMin="151" yMin="-28" xMax="1137" yMax="1436">
      <contour>
        <pt x="172" y="1317" on="1"/>
        <pt x="172" y="1380" on="0"/>
        <pt x="237" y="1436" on="0"/>
        <pt x="303" y="1436" on="1"/>
        <pt x="985" y="1436" on="1"/>
        <pt x="1007" y="1436" on="0"/>
        <pt x="1040" y="1420" on="0"/>
        <pt x="1062" y="1393" on="0"/>
        <pt x="1073" y="1360" on="0"/>
        <pt x="1073" y="1342" on="1"/>
        <pt x="1073" y="1324" on="0"/>
        <pt x="1062" y="1291" on="0"/>
        <pt x="1040" y="1264" on="0"/>
        <pt x="1007" y="1248" on="0"/>
        <pt x="985" y="1248" on="1"/>
        <pt x="387" y="1248" on="1"/>
        <pt x="381" y="793" on="1"/>
        <pt x="446" y="859" on="0"/>
        <pt x="608" y="926" on="0"/>
        <pt x="705" y="926" on="1"/>
        <pt x="802" y="926" on="0"/>
        <pt x="961" y="855" on="0"/>
        <pt x="1075" y="728" on="0"/>
        <pt x="1137" y="554" on="0"/>
        <pt x="1137" y="451" on="1"/>
        <pt x="1137" y="342" on="0"/>
        <pt x="1057" y="165" on="0"/>
        <pt x="917" y="40" on="0"/>
        <pt x="724" y="-28" on="0"/>
        <pt x="612" y="-28" on="1"/>
        <pt x="541" y="-28" on="0"/>
        <pt x="408" y="-3" on="0"/>
        <pt x="294" y="50" on="0"/>
        <pt x="204" y="130" on="0"/>
        <pt x="176" y="184" on="1"/>
        <pt x="162" y="201" on="0"/>
        <pt x="151" y="234" on="0"/>
        <pt x="151" y="250" on="1"/>
        <pt x="151" y="285" on="0"/>
        <pt x="198" y="335" on="0"/>
        <pt x="231" y="335" on="1"/>
        <pt x="247" y="335" on="0"/>
        <pt x="280" y="321" on="0"/>
        <pt x="296" y="306" on="1"/>
        <pt x="339" y="232" on="0"/>
        <pt x="497" y="158" on="0"/>
        <pt x="591" y="158" on="1"/>
        <pt x="661" y="158" on="0"/>
        <pt x="766" y="203" on="0"/>
        <pt x="836" y="284" on="0"/>
        <pt x="872" y="395" on="0"/>
        <pt x="872" y="462" on="1"/>
        <pt x="872" y="526" on="0"/>
        <pt x="839" y="634" on="0"/>
        <pt x="776" y="712" on="0"/>
        <pt x="686" y="755" on="0"/>
        <pt x="629" y="755" on="1"/>
        <pt x="582" y="755" on="0"/>
        <pt x="507" y="732" on="0"/>
        <pt x="448" y="696" on="0"/>
        <pt x="408" y="653" on="0"/>
        <pt x="396" y="633" on="1"/>
        <pt x="380" y="598" on="0"/>
        <pt x="313" y="559" on="0"/>
        <pt x="277" y="559" on="1"/>
        <pt x="257" y="559" on="0"/>
        <pt x="219" y="572" on="0"/>
        <pt x="190" y="599" on="0"/>
        <pt x="172" y="640" on="0"/>
        <pt x="172" y="669" on="1"/>
      </contour>
    </TTGlyph>
    <TTGlyph name="fl" xMin="16" yMin="0" xMax="1033" yMax="1454">
      <contour>
        <pt x="444" y="845" on="1"/>
        <pt x="444" y="116" on="1"/>
        <pt x="444" y="87" on="0"/>
        <pt x="424" y="44" on="0"/>
        <pt x="391" y="15" on="0"/>
        <pt x="349" y="1" on="0"/>
        <pt x="327" y="1" on="1"/>
        <pt x="305" y="1" on="0"/>
        <pt x="263" y="15" on="0"/>
        <pt x="230" y="44" on="0"/>
        <pt x="210" y="87" on="0"/>
        <pt x="210" y="116" on="1"/>
        <pt x="210" y="845" on="1"/>
        <pt x="99" y="845" on="1"/>
        <pt x="58" y="845" on="0"/>
        <pt x="16" y="893" on="0"/>
        <pt x="16" y="922" on="1"/>
        <pt x="16" y="951" on="0"/>
        <pt x="57" y="999" on="0"/>
        <pt x="99" y="999" on="1"/>
        <pt x="210" y="999" on="1"/>
        <pt x="210" y="1089" on="1"/>
        <pt x="210" y="1189" on="0"/>
        <pt x="254" y="1328" on="0"/>
        <pt x="331" y="1414" on="0"/>
        <pt x="433" y="1453" on="0"/>
        <pt x="492" y="1454" on="1"/>
        <pt x="566" y="1454" on="0"/>
        <pt x="676" y="1429" on="0"/>
        <pt x="752" y="1394" on="0"/>
        <pt x="795" y="1358" on="0"/>
        <pt x="802" y="1346" on="1"/>
        <pt x="806" y="1368" on="0"/>
        <pt x="828" y="1402" on="0"/>
        <pt x="860" y="1425" on="0"/>
        <pt x="897" y="1436" on="0"/>
        <pt x="917" y="1436" on="1"/>
        <pt x="939" y="1436" on="0"/>
        <pt x="980" y="1422" on="0"/>
        <pt x="1013" y="1393" on="0"/>
        <pt x="1033" y="1350" on="0"/>
        <pt x="1033" y="1321" on="1"/>
        <pt x="1033" y="116" on="1"/>
        <pt x="1033" y="87" on="0"/>
        <pt x="1012" y="44" on="0"/>
        <pt x="979" y="15" on="0"/>
        <pt x="936" y="0" on="0"/>
        <pt x="914" y="0" on="1"/>
        <pt x="892" y="0" on="0"/>
        <pt x="850" y="14" on="0"/>
        <pt x="818" y="43" on="0"/>
        <pt x="798" y="87" on="0"/>
        <pt x="798" y="116" on="1"/>
        <pt x="798" y="1308" on="1"/>
        <pt x="571" y="1308" on="1"/>
        <pt x="532" y="1308" on="0"/>
        <pt x="482" y="1281" on="0"/>
        <pt x="454" y="1218" on="0"/>
        <pt x="444" y="1114" on="0"/>
        <pt x="444" y="1038" on="1"/>
        <pt x="444" y="999" on="1"/>
        <pt x="579" y="999" on="1"/>
        <pt x="621" y="999" on="0"/>
        <pt x="662" y="951" on="0"/>
        <pt x="662" y="922" on="1"/>
        <pt x="662" y="908" on="0"/>
        <pt x="652" y="881" on="0"/>
        <pt x="631" y="859" on="0"/>
        <pt x="600" y="845" on="0"/>
        <pt x="579" y="845" on="1"/>
      </contour>
    </TTGlyph>
    <TTGlyph name="florin" xMin="-30" yMin="-539" xMax="1133" yMax="1582">
      <contour>
        <pt x="690" y="747" on="1"/>
        <pt x="653" y="570" on="0"/>
        <pt x="577" y="189" on="0"/>
        <pt x="534" y="5" on="1"/>
        <pt x="495" y="-161" on="0"/>
        <pt x="391" y="-372" on="0"/>
        <pt x="272" y="-493" on="0"/>
        <pt x="142" y="-539" on="0"/>
        <pt x="77" y="-539" on="1"/>
        <pt x="20" y="-539" on="0"/>
        <pt x="-30" y="-496" on="0"/>
        <pt x="-30" y="-468" on="1"/>
        <pt x="-30" y="-452" on="0"/>
        <pt x="-14" y="-419" on="0"/>
        <pt x="15" y="-393" on="0"/>
        <pt x="56" y="-377" on="0"/>
        <pt x="82" y="-377" on="1"/>
        <pt x="113" y="-377" on="0"/>
        <pt x="181" y="-350" on="0"/>
        <pt x="249" y="-268" on="0"/>
        <pt x="316" y="-117" on="0"/>
        <pt x="345" y="7" on="1"/>
        <pt x="388" y="190" on="0"/>
        <pt x="463" y="570" on="0"/>
        <pt x="500" y="747" on="1"/>
        <pt x="359" y="747" on="1"/>
        <pt x="336" y="747" on="0"/>
        <pt x="301" y="763" on="0"/>
        <pt x="278" y="790" on="0"/>
        <pt x="266" y="823" on="0"/>
        <pt x="266" y="841" on="1"/>
        <pt x="266" y="858" on="0"/>
        <pt x="278" y="892" on="0"/>
        <pt x="301" y="918" on="0"/>
        <pt x="336" y="934" on="0"/>
        <pt x="359" y="934" on="1"/>
        <pt x="534" y="934" on="1"/>
        <pt x="565" y="1108" on="0"/>
        <pt x="662" y="1354" on="0"/>
        <pt x="789" y="1510" on="0"/>
        <pt x="944" y="1582" on="0"/>
        <pt x="1033" y="1582" on="1"/>
        <pt x="1084" y="1582" on="0"/>
        <pt x="1133" y="1539" on="0"/>
        <pt x="1133" y="1512" on="1"/>
        <pt x="1133" y="1497" on="0"/>
        <pt x="1118" y="1467" on="0"/>
        <pt x="1088" y="1444" on="0"/>
        <pt x="1043" y="1429" on="0"/>
        <pt x="1014" y="1429" on="1"/>
        <pt x="964" y="1429" on="0"/>
        <pt x="880" y="1374" on="0"/>
        <pt x="809" y="1256" on="0"/>
        <pt x="750" y="1067" on="0"/>
        <pt x="725" y="934" on="1"/>
        <pt x="895" y="934" on="1"/>
        <pt x="918" y="934" on="0"/>
        <pt x="953" y="918" on="0"/>
        <pt x="976" y="891" on="0"/>
        <pt x="988" y="858" on="0"/>
        <pt x="988" y="840" on="1"/>
        <pt x="988" y="822" on="0"/>
        <pt x="976" y="789" on="0"/>
        <pt x="953" y="763" on="0"/>
        <pt x="918" y="747" on="0"/>
        <pt x="895" y="747" on="1"/>
      </contour>
    </TTGlyph>
    <TTGlyph name="four" xMin="34" yMin="-4" xMax="1175" yMax="1437">
      <contour>
        <pt x="565" y="1306" on="1"/>
        <pt x="606" y="1380" on="0"/>
        <pt x="714" y="1437" on="0"/>
        <pt x="781" y="1437" on="1"/>
        <pt x="817" y="1437" on="0"/>
        <pt x="883" y="1417" on="0"/>
        <pt x="933" y="1374" on="0"/>
        <pt x="963" y="1306" on="0"/>
        <pt x="963" y="1258" on="1"/>
        <pt x="963" y="478" on="1"/>
        <pt x="1084" y="478" on="1"/>
        <pt x="1107" y="478" on="0"/>
        <pt x="1141" y="462" on="0"/>
        <pt x="1164" y="436" on="0"/>
        <pt x="1175" y="403" on="0"/>
        <pt x="1175" y="385" on="1"/>
        <pt x="1175" y="368" on="0"/>
        <pt x="1164" y="335" on="0"/>
        <pt x="1141" y="309" on="0"/>
        <pt x="1107" y="293" on="0"/>
        <pt x="1084" y="293" on="1"/>
        <pt x="962" y="293" on="1"/>
        <pt x="962" y="112" on="1"/>
        <pt x="962" y="83" on="0"/>
        <pt x="940" y="40" on="0"/>
        <pt x="905" y="11" on="0"/>
        <pt x="861" y="-4" on="0"/>
        <pt x="838" y="-4" on="1"/>
        <pt x="815" y="-4" on="0"/>
        <pt x="771" y="11" on="0"/>
        <pt x="736" y="40" on="0"/>
        <pt x="713" y="83" on="0"/>
        <pt x="712" y="112" on="1"/>
        <pt x="712" y="293" on="1"/>
        <pt x="160" y="293" on="1"/>
        <pt x="101" y="293" on="0"/>
        <pt x="34" y="358" on="0"/>
        <pt x="34" y="405" on="1"/>
        <pt x="34" y="422" on="0"/>
        <pt x="44" y="461" on="0"/>
        <pt x="56" y="480" on="1"/>
      </contour>
      <contour>
        <pt x="260" y="478" on="1"/>
        <pt x="712" y="478" on="1"/>
        <pt x="712" y="1224" on="1"/>
      </contour>
    </TTGlyph>
    <TTGlyph name="foursuperior" xMin="39" yMin="593" xMax="691" yMax="1430">
      <contour>
        <pt x="352" y="1349" on="1"/>
        <pt x="379" y="1396" on="0"/>
        <pt x="438" y="1430" on="0"/>
        <pt x="476" y="1430" on="1"/>
        <pt x="515" y="1430" on="0"/>
        <pt x="566" y="1376" on="0"/>
        <pt x="566" y="1322" on="1"/>
        <pt x="566" y="867" on="1"/>
        <pt x="639" y="867" on="1"/>
        <pt x="665" y="867" on="0"/>
        <pt x="691" y="838" on="0"/>
        <pt x="691" y="821" on="1"/>
        <pt x="691" y="804" on="0"/>
        <pt x="665" y="775" on="0"/>
        <pt x="639" y="775" on="1"/>
        <pt x="566" y="775" on="1"/>
        <pt x="566" y="660" on="1"/>
        <pt x="566" y="626" on="0"/>
        <pt x="526" y="593" on="0"/>
        <pt x="503" y="593" on="1"/>
        <pt x="479" y="593" on="0"/>
        <pt x="439" y="626" on="0"/>
        <pt x="439" y="660" on="1"/>
        <pt x="439" y="775" on="1"/>
        <pt x="111" y="775" on="1"/>
        <pt x="78" y="775" on="0"/>
        <pt x="39" y="808" on="0"/>
        <pt x="39" y="834" on="1"/>
        <pt x="39" y="856" on="0"/>
        <pt x="52" y="876" on="1"/>
      </contour>
      <contour>
        <pt x="165" y="865" on="1"/>
        <pt x="439" y="865" on="1"/>
        <pt x="439" y="1310" on="1"/>
      </contour>
    </TTGlyph>
    <TTGlyph name="fraction" xMin="-10" yMin="-66" xMax="637" yMax="1527">
      <contour>
        <pt x="155" y="-7" on="1"/>
        <pt x="144" y="-38" on="0"/>
        <pt x="101" y="-66" on="0"/>
        <pt x="76" y="-66" on="1"/>
        <pt x="60" y="-66" on="0"/>
        <pt x="29" y="-55" on="0"/>
        <pt x="5" y="-34" on="0"/>
        <pt x="-10" y="-4" on="0"/>
        <pt x="-10" y="15" on="1"/>
        <pt x="-10" y="22" on="0"/>
        <pt x="-8" y="38" on="0"/>
        <pt x="-5" y="46" on="1"/>
        <pt x="468" y="1467" on="1"/>
        <pt x="479" y="1499" on="0"/>
        <pt x="525" y="1527" on="0"/>
        <pt x="551" y="1527" on="1"/>
        <pt x="567" y="1527" on="0"/>
        <pt x="598" y="1516" on="0"/>
        <pt x="622" y="1495" on="0"/>
        <pt x="637" y="1466" on="0"/>
        <pt x="637" y="1447" on="1"/>
        <pt x="637" y="1432" on="0"/>
        <pt x="631" y="1414" on="1"/>
      </contour>
    </TTGlyph>
    <TTGlyph name="g" xMin="81" yMin="-442" xMax="1080" yMax="1013">
      <contour>
        <pt x="855" y="498" on="1"/>
        <pt x="855" y="576" on="0"/>
        <pt x="828" y="697" on="0"/>
        <pt x="766" y="798" on="0"/>
        <pt x="663" y="857" on="0"/>
        <pt x="587" y="857" on="1"/>
        <pt x="513" y="857" on="0"/>
        <pt x="416" y="801" on="0"/>
        <pt x="357" y="702" on="0"/>
        <pt x="333" y="568" on="0"/>
        <pt x="333" y="501" on="1"/>
        <pt x="333" y="407" on="0"/>
        <pt x="373" y="279" on="0"/>
        <pt x="442" y="194" on="0"/>
        <pt x="536" y="152" on="0"/>
        <pt x="589" y="152" on="1"/>
        <pt x="643" y="152" on="0"/>
        <pt x="740" y="195" on="0"/>
        <pt x="812" y="280" on="0"/>
        <pt x="855" y="407" on="0"/>
      </contour>
      <contour>
        <pt x="856" y="189" on="1"/>
        <pt x="829" y="141" on="0"/>
        <pt x="753" y="69" on="0"/>
        <pt x="663" y="23" on="0"/>
        <pt x="564" y="0" on="0"/>
        <pt x="514" y="0" on="1"/>
        <pt x="407" y="0" on="0"/>
        <pt x="245" y="74" on="0"/>
        <pt x="136" y="204" on="0"/>
        <pt x="81" y="383" on="0"/>
        <pt x="81" y="494" on="1"/>
        <pt x="81" y="594" on="0"/>
        <pt x="135" y="788" on="0"/>
        <pt x="242" y="931" on="0"/>
        <pt x="399" y="1013" on="0"/>
        <pt x="502" y="1013" on="1"/>
        <pt x="557" y="1013" on="0"/>
        <pt x="660" y="993" on="0"/>
        <pt x="751" y="946" on="0"/>
        <pt x="830" y="869" on="0"/>
        <pt x="861" y="826" on="1"/>
        <pt x="861" y="912" on="1"/>
        <pt x="864" y="934" on="0"/>
        <pt x="884" y="967" on="0"/>
        <pt x="914" y="990" on="0"/>
        <pt x="950" y="1001" on="0"/>
        <pt x="969" y="1001" on="1"/>
        <pt x="990" y="1001" on="0"/>
        <pt x="1029" y="987" on="0"/>
        <pt x="1061" y="959" on="0"/>
        <pt x="1080" y="918" on="0"/>
        <pt x="1080" y="890" on="1"/>
        <pt x="1080" y="0" on="1"/>
        <pt x="1080" y="-121" on="0"/>
        <pt x="1004" y="-290" on="0"/>
        <pt x="869" y="-395" on="0"/>
        <pt x="685" y="-442" on="0"/>
        <pt x="576" y="-442" on="1"/>
        <pt x="423" y="-442" on="0"/>
        <pt x="243" y="-372" on="0"/>
        <pt x="201" y="-300" on="1"/>
        <pt x="187" y="-277" on="0"/>
        <pt x="187" y="-257" on="1"/>
        <pt x="187" y="-227" on="0"/>
        <pt x="229" y="-181" on="0"/>
        <pt x="259" y="-181" on="1"/>
        <pt x="272" y="-181" on="0"/>
        <pt x="287" y="-187" on="1"/>
        <pt x="315" y="-199" on="0"/>
        <pt x="372" y="-225" on="0"/>
        <pt x="436" y="-245" on="0"/>
        <pt x="512" y="-258" on="0"/>
        <pt x="559" y="-258" on="1"/>
        <pt x="626" y="-258" on="0"/>
        <pt x="735" y="-234" on="0"/>
        <pt x="813" y="-179" on="0"/>
        <pt x="856" y="-88" on="0"/>
        <pt x="856" y="-20" on="1"/>
      </contour>
    </TTGlyph>
    <TTGlyph name="germandbls" xMin="147" yMin="-25" xMax="1278" yMax="1470">
      <contour>
        <pt x="562" y="146" on="1"/>
        <pt x="557" y="156" on="0"/>
        <pt x="553" y="175" on="0"/>
        <pt x="553" y="185" on="1"/>
        <pt x="553" y="203" on="0"/>
        <pt x="568" y="234" on="0"/>
        <pt x="594" y="257" on="0"/>
        <pt x="625" y="270" on="0"/>
        <pt x="642" y="270" on="1"/>
        <pt x="660" y="270" on="0"/>
        <pt x="694" y="253" on="0"/>
        <pt x="707" y="233" on="1"/>
        <pt x="736" y="188" on="0"/>
        <pt x="818" y="132" on="0"/>
        <pt x="877" y="132" on="1"/>
        <pt x="955" y="132" on="0"/>
        <pt x="1051" y="217" on="0"/>
        <pt x="1051" y="306" on="1"/>
        <pt x="1051" y="358" on="0"/>
        <pt x="987" y="433" on="0"/>
        <pt x="891" y="496" on="0"/>
        <pt x="778" y="555" on="0"/>
        <pt x="682" y="626" on="0"/>
        <pt x="618" y="718" on="0"/>
        <pt x="618" y="782" on="1"/>
        <pt x="618" y="827" on="0"/>
        <pt x="653" y="898" on="0"/>
        <pt x="707" y="958" on="0"/>
        <pt x="768" y="1009" on="0"/>
        <pt x="822" y="1061" on="0"/>
        <pt x="857" y="1116" on="0"/>
        <pt x="857" y="1150" on="1"/>
        <pt x="857" y="1193" on="0"/>
        <pt x="819" y="1256" on="0"/>
        <pt x="758" y="1298" on="0"/>
        <pt x="679" y="1318" on="0"/>
        <pt x="639" y="1318" on="1"/>
        <pt x="567" y="1318" on="0"/>
        <pt x="469" y="1259" on="0"/>
        <pt x="409" y="1162" on="0"/>
        <pt x="382" y="1035" on="0"/>
        <pt x="381" y="967" on="1"/>
        <pt x="381" y="113" on="1"/>
        <pt x="381" y="85" on="0"/>
        <pt x="361" y="43" on="0"/>
        <pt x="328" y="14" on="0"/>
        <pt x="285" y="0" on="0"/>
        <pt x="263" y="0" on="1"/>
        <pt x="241" y="0" on="0"/>
        <pt x="200" y="14" on="0"/>
        <pt x="167" y="42" on="0"/>
        <pt x="147" y="84" on="0"/>
        <pt x="147" y="113" on="1"/>
        <pt x="147" y="975" on="1"/>
        <pt x="147" y="1092" on="0"/>
        <pt x="208" y="1276" on="0"/>
        <pt x="334" y="1403" on="0"/>
        <pt x="528" y="1470" on="0"/>
        <pt x="661" y="1470" on="1"/>
        <pt x="745" y="1470" on="0"/>
        <pt x="901" y="1428" on="0"/>
        <pt x="1021" y="1346" on="0"/>
        <pt x="1093" y="1225" on="0"/>
        <pt x="1093" y="1147" on="1"/>
        <pt x="1093" y="1105" on="0"/>
        <pt x="1058" y="1034" on="0"/>
        <pt x="1007" y="972" on="0"/>
        <pt x="946" y="917" on="0"/>
        <pt x="895" y="867" on="0"/>
        <pt x="860" y="820" on="0"/>
        <pt x="860" y="797" on="1"/>
        <pt x="860" y="755" on="0"/>
        <pt x="922" y="696" on="0"/>
        <pt x="1015" y="642" on="0"/>
        <pt x="1123" y="585" on="0"/>
        <pt x="1216" y="507" on="0"/>
        <pt x="1278" y="397" on="0"/>
        <pt x="1278" y="318" on="1"/>
        <pt x="1278" y="235" on="0"/>
        <pt x="1214" y="108" on="0"/>
        <pt x="1106" y="20" on="0"/>
        <pt x="965" y="-25" on="0"/>
        <pt x="888" y="-25" on="1"/>
        <pt x="777" y="-25" on="0"/>
        <pt x="604" y="60" on="0"/>
      </contour>
    </TTGlyph>
    <TTGlyph name="grave" xMin="50" yMin="1109" xMax="494" yMax="1548">
      <contour>
        <pt x="78" y="1384" on="1"/>
        <pt x="63" y="1396" on="0"/>
        <pt x="50" y="1425" on="0"/>
        <pt x="50" y="1440" on="1"/>
        <pt x="50" y="1460" on="0"/>
        <pt x="70" y="1499" on="0"/>
        <pt x="102" y="1529" on="0"/>
        <pt x="143" y="1548" on="0"/>
        <pt x="164" y="1548" on="1"/>
        <pt x="182" y="1548" on="0"/>
        <pt x="217" y="1531" on="0"/>
        <pt x="231" y="1511" on="1"/>
        <pt x="483" y="1197" on="1"/>
        <pt x="494" y="1180" on="0"/>
        <pt x="494" y="1163" on="1"/>
        <pt x="494" y="1141" on="0"/>
        <pt x="464" y="1109" on="0"/>
        <pt x="441" y="1109" on="1"/>
        <pt x="418" y="1109" on="0"/>
        <pt x="394" y="1129" on="1"/>
      </contour>
    </TTGlyph>
    <TTGlyph name="greater" xMin="141" yMin="34" xMax="1190" yMax="979">
      <contour>
        <pt x="1119" y="594" on="1"/>
        <pt x="1156" y="578" on="0"/>
        <pt x="1190" y="527" on="0"/>
        <pt x="1190" y="500" on="1"/>
        <pt x="1190" y="471" on="0"/>
        <pt x="1154" y="419" on="0"/>
        <pt x="1116" y="403" on="1"/>
        <pt x="251" y="40" on="1"/>
        <pt x="234" y="34" on="0"/>
        <pt x="220" y="34" on="1"/>
        <pt x="202" y="34" on="0"/>
        <pt x="174" y="48" on="0"/>
        <pt x="153" y="71" on="0"/>
        <pt x="142" y="101" on="0"/>
        <pt x="142" y="116" on="1"/>
        <pt x="142" y="137" on="0"/>
        <pt x="164" y="173" on="0"/>
        <pt x="190" y="184" on="1"/>
        <pt x="952" y="500" on="1"/>
        <pt x="188" y="831" on="1"/>
        <pt x="163" y="842" on="0"/>
        <pt x="141" y="878" on="0"/>
        <pt x="141" y="898" on="1"/>
        <pt x="141" y="913" on="0"/>
        <pt x="152" y="942" on="0"/>
        <pt x="172" y="965" on="0"/>
        <pt x="200" y="979" on="0"/>
        <pt x="217" y="979" on="1"/>
        <pt x="233" y="979" on="0"/>
        <pt x="250" y="972" on="1"/>
      </contour>
    </TTGlyph>
    <TTGlyph name="greaterequal" xMin="97" yMin="2" xMax="1147" yMax="1214">
      <contour>
        <pt x="208" y="276" on="1"/>
        <pt x="193" y="269" on="0"/>
        <pt x="176" y="269" on="1"/>
        <pt x="141" y="269" on="0"/>
        <pt x="98" y="320" on="0"/>
        <pt x="98" y="351" on="1"/>
        <pt x="98" y="371" on="0"/>
        <pt x="121" y="409" on="0"/>
        <pt x="147" y="420" on="1"/>
        <pt x="908" y="735" on="1"/>
        <pt x="145" y="1066" on="1"/>
        <pt x="120" y="1077" on="0"/>
        <pt x="97" y="1113" on="0"/>
        <pt x="97" y="1133" on="1"/>
        <pt x="97" y="1148" on="0"/>
        <pt x="108" y="1177" on="0"/>
        <pt x="128" y="1200" on="0"/>
        <pt x="156" y="1214" on="0"/>
        <pt x="173" y="1214" on="1"/>
        <pt x="189" y="1214" on="0"/>
        <pt x="206" y="1207" on="1"/>
        <pt x="1075" y="829" on="1"/>
        <pt x="1112" y="814" on="0"/>
        <pt x="1147" y="763" on="0"/>
        <pt x="1147" y="734" on="1"/>
        <pt x="1147" y="706" on="0"/>
        <pt x="1111" y="655" on="0"/>
        <pt x="1073" y="639" on="1"/>
      </contour>
      <contour>
        <pt x="181" y="2" on="1"/>
        <pt x="147" y="2" on="0"/>
        <pt x="114" y="46" on="0"/>
        <pt x="114" y="72" on="1"/>
        <pt x="114" y="98" on="0"/>
        <pt x="147" y="141" on="0"/>
        <pt x="181" y="141" on="1"/>
        <pt x="1027" y="141" on="1"/>
        <pt x="1061" y="141" on="0"/>
        <pt x="1095" y="97" on="0"/>
        <pt x="1095" y="71" on="1"/>
        <pt x="1095" y="45" on="0"/>
        <pt x="1061" y="2" on="0"/>
        <pt x="1027" y="2" on="1"/>
      </contour>
    </TTGlyph>
    <TTGlyph name="guillemotleft" xMin="151" yMin="64" xMax="1004" yMax="1009">
      <contour>
        <pt x="385" y="947" on="1"/>
        <pt x="405" y="981" on="0"/>
        <pt x="454" y="1009" on="0"/>
        <pt x="479" y="1009" on="1"/>
        <pt x="496" y="1009" on="0"/>
        <pt x="526" y="997" on="0"/>
        <pt x="549" y="977" on="0"/>
        <pt x="563" y="949" on="0"/>
        <pt x="563" y="933" on="1"/>
        <pt x="563" y="916" on="0"/>
        <pt x="556" y="901" on="1"/>
        <pt x="389" y="537" on="1"/>
        <pt x="556" y="172" on="1"/>
        <pt x="563" y="157" on="0"/>
        <pt x="563" y="140" on="1"/>
        <pt x="563" y="124" on="0"/>
        <pt x="549" y="96" on="0"/>
        <pt x="526" y="76" on="0"/>
        <pt x="496" y="64" on="0"/>
        <pt x="479" y="64" on="1"/>
        <pt x="455" y="64" on="0"/>
        <pt x="404" y="92" on="0"/>
        <pt x="385" y="126" on="1"/>
        <pt x="151" y="537" on="1"/>
      </contour>
      <contour>
        <pt x="825" y="947" on="1"/>
        <pt x="845" y="981" on="0"/>
        <pt x="895" y="1009" on="0"/>
        <pt x="920" y="1009" on="1"/>
        <pt x="937" y="1009" on="0"/>
        <pt x="967" y="997" on="0"/>
        <pt x="990" y="977" on="0"/>
        <pt x="1004" y="949" on="0"/>
        <pt x="1004" y="933" on="1"/>
        <pt x="1004" y="916" on="0"/>
        <pt x="997" y="901" on="1"/>
        <pt x="829" y="537" on="1"/>
        <pt x="997" y="172" on="1"/>
        <pt x="1004" y="157" on="0"/>
        <pt x="1004" y="140" on="1"/>
        <pt x="1004" y="124" on="0"/>
        <pt x="990" y="96" on="0"/>
        <pt x="967" y="76" on="0"/>
        <pt x="937" y="64" on="0"/>
        <pt x="920" y="64" on="1"/>
        <pt x="895" y="64" on="0"/>
        <pt x="845" y="92" on="0"/>
        <pt x="825" y="126" on="1"/>
        <pt x="591" y="537" on="1"/>
      </contour>
    </TTGlyph>
    <TTGlyph name="guillemotright" xMin="188" yMin="64" xMax="1040" yMax="1009">
      <contour>
        <pt x="1040" y="537" on="1"/>
        <pt x="806" y="126" on="1"/>
        <pt x="786" y="92" on="0"/>
        <pt x="736" y="64" on="0"/>
        <pt x="712" y="64" on="1"/>
        <pt x="695" y="64" on="0"/>
        <pt x="665" y="76" on="0"/>
        <pt x="642" y="96" on="0"/>
        <pt x="628" y="124" on="0"/>
        <pt x="628" y="140" on="1"/>
        <pt x="628" y="157" on="0"/>
        <pt x="635" y="172" on="1"/>
        <pt x="803" y="537" on="1"/>
        <pt x="635" y="901" on="1"/>
        <pt x="628" y="916" on="0"/>
        <pt x="628" y="933" on="1"/>
        <pt x="628" y="949" on="0"/>
        <pt x="642" y="977" on="0"/>
        <pt x="665" y="997" on="0"/>
        <pt x="695" y="1009" on="0"/>
        <pt x="712" y="1009" on="1"/>
        <pt x="736" y="1009" on="0"/>
        <pt x="786" y="981" on="0"/>
        <pt x="806" y="947" on="1"/>
      </contour>
      <contour>
        <pt x="600" y="537" on="1"/>
        <pt x="366" y="126" on="1"/>
        <pt x="346" y="92" on="0"/>
        <pt x="295" y="64" on="0"/>
        <pt x="271" y="64" on="1"/>
        <pt x="238" y="64" on="0"/>
        <pt x="188" y="108" on="0"/>
        <pt x="188" y="140" on="1"/>
        <pt x="188" y="157" on="0"/>
        <pt x="195" y="172" on="1"/>
        <pt x="362" y="537" on="1"/>
        <pt x="195" y="901" on="1"/>
        <pt x="188" y="916" on="0"/>
        <pt x="188" y="933" on="1"/>
        <pt x="188" y="965" on="0"/>
        <pt x="238" y="1009" on="0"/>
        <pt x="271" y="1009" on="1"/>
        <pt x="295" y="1009" on="0"/>
        <pt x="346" y="981" on="0"/>
        <pt x="366" y="947" on="1"/>
      </contour>
    </TTGlyph>
</ttFont>
